SplineFontDB: 3.0
FontName: Shabnam-Bold
FullName: Shabnam Bold
FamilyName: Shabnam
Weight: Bold
Copyright: Copyright (c) 2003 by Bitstream, Inc. All Rights Reserved.\nDejaVu changes are in public domain\nCopyright (c) 2015 by Saber Rastikerdar. All Rights Reserved.\nNon-Arabic(Latin) glyphs and data are imported from Roboto font under the Apache License, Version 2.0.
Version: 1.1.0
ItalicAngle: 0
UnderlinePosition: -500
UnderlineWidth: 100
Ascent: 1638
Descent: 410
InvalidEm: 0
LayerCount: 2
Layer: 0 1 "Back" 1
Layer: 1 1 "Fore" 0
XUID: [1021 502 1027637223 10770418]
UniqueID: 4099970
UseUniqueID: 1
FSType: 0
OS2Version: 1
OS2_WeightWidthSlopeOnly: 0
OS2_UseTypoMetrics: 1
CreationTime: 1431850356
ModificationTime: 1484840683
PfmFamily: 33
TTFWeight: 700
TTFWidth: 5
LineGap: 0
VLineGap: 0
Panose: 2 11 6 3 3 8 4 2 2 4
OS2TypoAscent: 2250
OS2TypoAOffset: 0
OS2TypoDescent: -1100
OS2TypoDOffset: 0
OS2TypoLinegap: 0
OS2WinAscent: 2250
OS2WinAOffset: 0
OS2WinDescent: 1100
OS2WinDOffset: 0
HheadAscent: 2250
HheadAOffset: 0
HheadDescent: -1100
HheadDOffset: 0
OS2SubXSize: 1331
OS2SubYSize: 1433
OS2SubXOff: 0
OS2SubYOff: 286
OS2SupXSize: 1331
OS2SupYSize: 1433
OS2SupXOff: 0
OS2SupYOff: 983
OS2StrikeYSize: 102
OS2StrikeYPos: 530
OS2Vendor: 'PfEd'
OS2CodePages: 00000041.20080000
OS2UnicodeRanges: 80002003.80000000.00000008.00000000
Lookup: 1 9 0 "'fina' Terminal Forms in Arabic lookup 9" { "'fina' Terminal Forms in Arabic lookup 9 subtable"  } ['fina' ('arab' <'KUR ' 'SND ' 'URD ' 'dflt' > ) ]
Lookup: 1 9 0 "'medi' Medial Forms in Arabic lookup 11" { "'medi' Medial Forms in Arabic lookup 11 subtable"  } ['medi' ('arab' <'KUR ' 'SND ' 'URD ' 'dflt' > ) ]
Lookup: 1 9 0 "'init' Initial Forms in Arabic lookup 13" { "'init' Initial Forms in Arabic lookup 13 subtable"  } ['init' ('arab' <'KUR ' 'SND ' 'URD ' 'dflt' > ) ]
Lookup: 4 1 1 "'rlig' Required Ligatures in Arabic lookup 14" { "'rlig' Required Ligatures in Arabic lookup 14 subtable"  } ['rlig' ('arab' <'KUR ' 'dflt' > ) ]

StartChar: exclam
Encoding: 33 33 1
Width: 568
VWidth: 2431
GlyphClass: 2
Flags: W
LayerCount: 2
Fore
SplineSet
110.919921875 172.381835938 m 128,-1,1
 110.919921875 242.950195312 110.919921875 242.950195312 160.635742188 292.666015625 c 128,-1,2
 210.19921875 342.23046875 210.19921875 342.23046875 281.416992188 342.883789062 c 0,3,4
 353.637695312 342.232421875 353.637695312 342.232421875 403.204101562 292.666015625 c 128,-1,5
 452.919921875 242.950195312 452.919921875 242.950195312 452.919921875 172.381835938 c 128,-1,6
 452.919921875 101.813476562 452.919921875 101.813476562 403.204101562 52.09765625 c 0,7,8
 352.9140625 2.951171875 352.9140625 2.951171875 282.422851562 1.8798828125 c 0,9,10
 210.202148438 2.53125 210.202148438 2.53125 160.635742188 52.09765625 c 128,-1,0
 110.919921875 101.813476562 110.919921875 101.813476562 110.919921875 172.381835938 c 128,-1,1
135.518554688 1365.35449219 m 5,11,-1
 420.235351562 1365.35449219 l 5,12,-1
 396.702148438 442.609375 l 1,13,-1
 160.227539062 442.609375 l 1,14,-1
 135.518554688 1365.35449219 l 5,11,-1
EndSplineSet
EndChar

StartChar: period
Encoding: 46 46 2
Width: 572
VWidth: 2431
GlyphClass: 2
Flags: W
LayerCount: 2
Fore
SplineSet
116.255859375 169.43359375 m 128,-1,1
 116.255859375 240.001953125 116.255859375 240.001953125 165.971679688 289.717773438 c 128,-1,2
 215.53515625 339.282226562 215.53515625 339.282226562 286.752929688 339.935546875 c 0,3,4
 358.973632812 339.284179688 358.973632812 339.284179688 408.540039062 289.717773438 c 128,-1,5
 458.255859375 240.001953125 458.255859375 240.001953125 458.255859375 169.43359375 c 128,-1,6
 458.255859375 98.865234375 458.255859375 98.865234375 408.540039062 49.1494140625 c 0,7,8
 358.25 0.0029296875 358.25 0.0029296875 287.758789062 -1.068359375 c 0,9,10
 215.538085938 -0.4169921875 215.538085938 -0.4169921875 165.971679688 49.1494140625 c 128,-1,0
 116.255859375 98.865234375 116.255859375 98.865234375 116.255859375 169.43359375 c 128,-1,1
EndSplineSet
EndChar

StartChar: colon
Encoding: 58 58 3
Width: 579
VWidth: 2431
GlyphClass: 2
Flags: W
LayerCount: 2
Fore
SplineSet
118.203125 874.43359375 m 128,-1,1
 118.203125 945.001953125 118.203125 945.001953125 167.918945312 994.717773438 c 128,-1,2
 217.482421875 1044.28222656 217.482421875 1044.28222656 288.700195312 1044.93554688 c 0,3,4
 324.140625 1044.61621094 324.140625 1044.61621094 355.107421875 1031.87304688 c 128,-1,5
 386.07421875 1019.13085938 386.07421875 1019.13085938 410.487304688 994.717773438 c 0,6,7
 460.203125 945.001953125 460.203125 945.001953125 460.203125 874.43359375 c 128,-1,8
 460.203125 803.865234375 460.203125 803.865234375 410.487304688 754.149414062 c 128,-1,9
 360.923828125 704.584960938 360.923828125 704.584960938 289.706054688 703.931640625 c 0,10,11
 254.265625 704.250976562 254.265625 704.250976562 223.298828125 716.994140625 c 128,-1,12
 192.33203125 729.736328125 192.33203125 729.736328125 167.918945312 754.149414062 c 0,13,0
 118.203125 803.865234375 118.203125 803.865234375 118.203125 874.43359375 c 128,-1,1
118.203125 169.43359375 m 128,-1,15
 118.203125 240.001953125 118.203125 240.001953125 167.918945312 289.717773438 c 128,-1,16
 217.482421875 339.282226562 217.482421875 339.282226562 288.700195312 339.935546875 c 0,17,18
 360.920898438 339.284179688 360.920898438 339.284179688 410.487304688 289.717773438 c 128,-1,19
 460.203125 240.001953125 460.203125 240.001953125 460.203125 169.43359375 c 128,-1,20
 460.203125 98.865234375 460.203125 98.865234375 410.487304688 49.1494140625 c 0,21,22
 360.197265625 0.0029296875 360.197265625 0.0029296875 289.706054688 -1.068359375 c 0,23,24
 217.485351562 -0.4169921875 217.485351562 -0.4169921875 167.918945312 49.1494140625 c 128,-1,14
 118.203125 98.865234375 118.203125 98.865234375 118.203125 169.43359375 c 128,-1,15
EndSplineSet
EndChar

StartChar: afii57388
Encoding: 1548 1548 5
Width: 627
VWidth: 2438
GlyphClass: 2
Flags: W
LayerCount: 2
Fore
SplineSet
322.661132812 -1.06640625 m 0,0,1
 245.924804688 -1.02734375 245.924804688 -1.02734375 194.697265625 38.6552734375 c 128,-1,2
 143.46875 78.337890625 143.46875 78.337890625 127.55078125 151.249023438 c 0,3,4
 112.989257812 217.216796875 112.989257812 217.216796875 138.001953125 325.08984375 c 0,5,6
 181.653320312 516.524414062 181.653320312 516.524414062 382.944335938 710.49609375 c 2,7,-1
 407.16796875 733.838867188 l 1,8,-1
 535.8984375 639.663085938 l 1,9,-1
 504.4375 606.682617188 l 2,10,11
 439.220703125 538.31640625 439.220703125 538.31640625 400.3125 473.939453125 c 128,-1,12
 361.403320312 409.5625 361.403320312 409.5625 348.349609375 351.215820312 c 1,13,14
 421.220703125 341.390625 421.220703125 341.390625 461.375976562 293.36328125 c 128,-1,15
 501.530273438 245.3359375 501.530273438 245.3359375 502.096679688 169.8203125 c 0,16,17
 502.236328125 149.689453125 502.236328125 149.689453125 499.115234375 131.431640625 c 128,-1,18
 495.994140625 113.173828125 495.994140625 113.173828125 489.875976562 97.4775390625 c 128,-1,19
 483.758789062 81.7822265625 483.758789062 81.7822265625 474.69921875 68.236328125 c 128,-1,20
 465.639648438 54.689453125 465.639648438 54.689453125 453.985351562 43.818359375 c 128,-1,21
 442.33203125 32.947265625 442.33203125 32.947265625 428.049804688 24.513671875 c 128,-1,22
 413.767578125 16.0791015625 413.767578125 16.0791015625 397.294921875 10.43359375 c 128,-1,23
 380.821289062 4.787109375 380.821289062 4.787109375 362.032226562 1.865234375 c 128,-1,24
 343.243164062 -1.056640625 343.243164062 -1.056640625 322.661132812 -1.06640625 c 0,0,1
EndSplineSet
EndChar

StartChar: uni0615
Encoding: 1557 1557 6
Width: 11
VWidth: 2553
GlyphClass: 4
Flags: W
AnchorPoint: "Anchor-10" 648 1490.29 mark 0
AnchorPoint: "Anchor-9" 648 1490.29 mark 0
AnchorPoint: "Anchor-1" 648 2306.6 basemark 0
AnchorPoint: "Anchor-1" 648 1490.29 mark 0
LayerCount: 2
Fore
SplineSet
789.803811959 1854.42487825 m 0,0,1
 722.21888052 1859.5602128 722.21888052 1859.5602128 580.627309411 1717.41414648 c 2,2,-1
 566.463941439 1703.1953125 l 1,3,-1
 653.038858802 1703.19530457 l 2,4,5
 828.967665914 1703.01443439 828.967665914 1703.01443439 834.03476242 1779.02088198 c 0,6,7
 836.757290319 1818.04378187 836.757290319 1818.04378187 825.888398441 1835.17502925 c 128,-1,8
 815.019506562 1852.30627664 815.019506562 1852.30627664 789.803811959 1854.42487825 c 0,0,1
945.069866843 1838.21316302 m 0,9,10
 945.739156518 1831.03375789 945.739156518 1831.03375789 946.077019324 1824.05182575 c 128,-1,11
 946.414882129 1817.06989361 946.414882129 1817.06989361 946.419199021 1810.28432186 c 0,12,13
 946.486882552 1703.89495285 946.486882552 1703.89495285 865.940719932 1650.76778892 c 128,-1,14
 785.394557312 1597.640625 785.394557312 1597.640625 631.908203125 1597.640625 c 2,15,-1
 332.12109375 1597.640625 l 1,16,-1
 332.12109375 1703.1953125 l 1,17,-1
 433.844726562 1703.1953125 l 1,18,-1
 433.844726562 2204.28320312 l 1,19,-1
 540.642520135 2204.28320312 l 1,20,-1
 540.968494669 1821.04611665 l 1,21,-1
 549.498603854 1829.86351639 l 2,22,23
 616.083627839 1898.93567138 616.083627839 1898.93567138 674.252942294 1934.12560116 c 128,-1,24
 732.42225675 1969.31553094 732.42225675 1969.31553094 783.871974051 1969.69770502 c 0,25,26
 855.888423263 1970.39213447 855.888423263 1970.39213447 897.435174467 1936.88370594 c 128,-1,27
 938.981925671 1903.37527742 938.981925671 1903.37527742 945.069866843 1838.21316302 c 0,9,10
EndSplineSet
EndChar

StartChar: uni061B
Encoding: 1563 1563 7
Width: 627
VWidth: 2438
GlyphClass: 2
Flags: W
LayerCount: 2
Fore
SplineSet
322.743164062 442.862304688 m 0,0,1
 246.006835938 442.901367188 246.006835938 442.901367188 194.779296875 482.583984375 c 128,-1,2
 143.55078125 522.266601562 143.55078125 522.266601562 127.6328125 595.177734375 c 0,3,4
 113.071289062 661.145507812 113.071289062 661.145507812 138.083984375 769.018554688 c 0,5,6
 181.735351562 960.453125 181.735351562 960.453125 383.026367188 1154.42480469 c 2,7,-1
 407.25 1177.76757812 l 1,8,-1
 535.98046875 1083.59179688 l 1,9,-1
 504.51953125 1050.61132812 l 2,10,11
 375.276367188 915.126953125 375.276367188 915.126953125 348.431640625 795.14453125 c 1,12,13
 384.80078125 790.241210938 384.80078125 790.241210938 413.610351562 775.264648438 c 128,-1,14
 442.419921875 760.2890625 442.419921875 760.2890625 461.814453125 736.944335938 c 128,-1,15
 481.208984375 713.599609375 481.208984375 713.599609375 491.553710938 682.3515625 c 128,-1,16
 501.8984375 651.103515625 501.8984375 651.103515625 502.178710938 613.749023438 c 0,17,18
 502.547851562 560.333984375 502.547851562 560.333984375 480.634765625 521.625 c 128,-1,19
 458.721679688 482.916015625 458.721679688 482.916015625 418.245117188 462.90234375 c 128,-1,20
 377.768554688 442.888671875 377.768554688 442.888671875 322.743164062 442.862304688 c 0,0,1
148.907226562 169.43359375 m 132,-1,22
 149 240 149 240 198.623046875 289.717773438 c 4,23,24
 250 341 250 341 319.404296875 339.935546875 c 4,25,26
 392 339 392 339 441.19140625 289.717773438 c 4,27,28
 491 240 491 240 490.907226562 169.43359375 c 132,-1,29
 491 99 491 99 441.19140625 49.1494140625 c 4,30,31
 389 -2 389 -2 320.41015625 -1.068359375 c 4,32,33
 248 0 248 0 198.623046875 49.1494140625 c 4,34,21
 149 99 149 99 148.907226562 169.43359375 c 132,-1,22
EndSplineSet
EndChar

StartChar: uni061F
Encoding: 1567 1567 8
Width: 1041
VWidth: 2438
GlyphClass: 2
Flags: W
LayerCount: 2
Fore
SplineSet
405.284179688 169.43359375 m 128,-1,1
 405.284179688 240.001953125 405.284179688 240.001953125 455 289.717773438 c 128,-1,2
 504.563476562 339.282226562 504.563476562 339.282226562 575.78125 339.935546875 c 0,3,4
 648.001953125 339.284179688 648.001953125 339.284179688 697.568359375 289.717773438 c 128,-1,5
 747.284179688 240.001953125 747.284179688 240.001953125 747.284179688 169.43359375 c 128,-1,6
 747.284179688 98.865234375 747.284179688 98.865234375 697.568359375 49.1494140625 c 0,7,8
 681.373046875 32.9541015625 681.373046875 32.9541015625 662.24609375 21.8203125 c 128,-1,9
 643.118164062 10.6865234375 643.118164062 10.6865234375 621.59765625 4.916015625 c 128,-1,10
 600.077148438 -0.8544921875 600.077148438 -0.8544921875 576.787109375 -1.068359375 c 0,11,12
 504.56640625 -0.4169921875 504.56640625 -0.4169921875 455 49.1494140625 c 128,-1,0
 405.284179688 98.865234375 405.284179688 98.865234375 405.284179688 169.43359375 c 128,-1,1
438.52734375 471.243164062 m 2,13,14
 438.046241772 513.971561017 438.046241772 513.971561017 321.03125 585.936523438 c 0,15,16
 70 741 70 741 74.0068359375 980.745117188 c 0,17,18
 77 1178 77 1178 207.452148438 1292.29980469 c 0,19,20
 319 1390 319 1390 498.915039062 1390.4453125 c 0,21,22
 606 1391 606 1391 698.174804688 1354.3125 c 0,23,24
 791 1318 791 1318 856.938476562 1245.75683594 c 0,25,26
 922.979214699 1174.02257725 922.979214699 1174.02257725 960.712890625 1067.2734375 c 2,27,-1
 972.661132812 1033.47167969 l 1,28,-1
 764.659179688 933.2421875 l 1,29,-1
 746.643554688 967.293945312 l 2,30,31
 706 1044 706 1044 644.328125 1080.78710938 c 0,32,33
 583 1117 583 1117 524.227539062 1116.69921875 c 0,34,35
 410 1116 410 1116 367.684570312 1042.07519531 c 0,36,37
 347 1005 347 1005 348.928710938 964.397460938 c 0,38,39
 356 858 356 858 460.091796875 789.345703125 c 0,40,41
 714.66645919 620.221584485 714.66645919 620.221584485 719.5234375 473.012695312 c 2,42,-1
 720.88671875 431.693359375 l 1,43,-1
 438.97265625 431.693359375 l 1,44,-1
 438.52734375 471.243164062 l 2,13,14
EndSplineSet
EndChar

StartChar: uni0621
Encoding: 1569 1569 9
Width: 807
VWidth: 2593
GlyphClass: 2
Flags: W
AnchorPoint: "Anchor-7" 470.143 -26.166 basechar 0
AnchorPoint: "Anchor-10" 322.188 1131.55 basechar 0
LayerCount: 2
Fore
SplineSet
444.806640625 670.45703125 m 0,0,1
 406.693359375 670.262695312 406.693359375 670.262695312 378.037109375 660.173828125 c 128,-1,2
 349.379882812 650.084960938 349.379882812 650.084960938 328.401367188 630.858398438 c 0,3,4
 312.487304688 615.466796875 312.487304688 615.466796875 304.833984375 595.3125 c 128,-1,5
 297.1796875 575.157226562 297.1796875 575.157226562 297.30078125 546.038085938 c 0,6,7
 297.243164062 520.442382812 297.243164062 520.442382812 304.42578125 500.15234375 c 128,-1,8
 311.607421875 479.861328125 311.607421875 479.861328125 327.69921875 462.592773438 c 128,-1,9
 343.790039062 445.32421875 343.790039062 445.32421875 370.572265625 432.1171875 c 128,-1,10
 397.353515625 418.909179688 397.353515625 418.909179688 435.588867188 409.282226562 c 0,11,12
 463.98828125 402.012695312 463.98828125 402.012695312 497.697265625 402.09765625 c 0,13,14
 562.192382812 402.012695312 562.192382812 402.012695312 649.756835938 447.828125 c 2,15,-1
 692.821289062 470.359375 l 1,16,-1
 764.1796875 229.887695312 l 1,17,-1
 145.283203125 -7.1513671875 l 1,18,-1
 52.4921875 211.08203125 l 1,19,-1
 205.474609375 265.021484375 l 1,20,21
 51.0947265625 353.728515625 51.0947265625 353.728515625 51.69921875 555.795898438 c 0,22,23
 52.0380859375 752.337890625 52.0380859375 752.337890625 210.185546875 849.97265625 c 0,24,25
 257.4921875 879.57421875 257.4921875 879.57421875 314.295898438 894.426757812 c 128,-1,26
 371.100585938 909.278320312 371.100585938 909.278320312 436.12890625 909.607421875 c 0,27,28
 446.962890625 909.654296875 446.962890625 909.654296875 457.588867188 909.232421875 c 128,-1,29
 468.213867188 908.809570312 468.213867188 908.809570312 478.671875 907.911132812 c 128,-1,30
 489.130859375 907.013671875 489.130859375 907.013671875 499.366210938 905.641601562 c 128,-1,31
 509.6015625 904.270507812 509.6015625 904.270507812 519.659179688 902.415039062 c 128,-1,32
 529.715820312 900.55859375 529.715820312 900.55859375 539.536132812 898.2265625 c 128,-1,33
 549.356445312 895.89453125 549.356445312 895.89453125 558.987304688 893.068359375 c 128,-1,34
 568.6171875 890.2421875 568.6171875 890.2421875 577.997070312 886.936523438 c 128,-1,35
 587.376953125 883.631835938 587.376953125 883.631835938 596.555664062 879.823242188 c 128,-1,36
 605.734375 876.015625 605.734375 876.015625 614.6484375 871.725585938 c 2,37,-1
 637.30078125 860.822265625 l 1,38,-1
 637.30078125 627.87109375 l 1,39,-1
 584.24609375 646.190429688 l 2,40,41
 549.559570312 658.166992188 549.559570312 658.166992188 514.828125 664.20703125 c 128,-1,42
 480.095703125 670.248046875 480.095703125 670.248046875 444.806640625 670.45703125 c 0,0,1
EndSplineSet
EndChar

StartChar: uni0627
Encoding: 1575 1575 15
Width: 531
VWidth: 2553
GlyphClass: 2
Flags: W
AnchorPoint: "Anchor-10" 259.338 1445.41 basechar 0
AnchorPoint: "Anchor-7" 263.805 -254.859 basechar 0
LayerCount: 2
Fore
SplineSet
142.299804688 0.6943359375 m 5,0,-1
 142.299804688 1357.72460938 l 5,1,-1
 392.393554688 1357.72753906 l 1,2,-1
 392.393554688 0.736328125 l 1,3,-1
 142.299804688 0.6943359375 l 5,0,-1
EndSplineSet
Substitution2: "'fina' Terminal Forms in Arabic lookup 9 subtable" uniFE8E
EndChar

StartChar: uni062D
Encoding: 1581 1581 21
Width: 1369
VWidth: 2593
GlyphClass: 2
Flags: W
AnchorPoint: "Anchor-10" 558.649 1205.29 basechar 0
AnchorPoint: "Anchor-7" 332.854 -853.488 basechar 0
LayerCount: 2
Fore
SplineSet
1113.94824219 305.901367188 m 2,0,1
 712.151367188 245.482421875 712.151367188 245.482421875 519.208007812 127.30859375 c 128,-1,2
 326.264648438 9.134765625 326.264648438 9.134765625 325.6875 -157.934570312 c 0,3,4
 324.932617188 -325.814453125 324.932617188 -325.814453125 447.067382812 -409.193359375 c 128,-1,5
 569.202148438 -492.571289062 569.202148438 -492.571289062 834.43359375 -492.172851562 c 2,6,-1
 1288.33007812 -491.89453125 l 1,7,-1
 1288.33007812 -755.55859375 l 1,8,-1
 822.388671875 -754.58203125 l 2,9,10
 418.592773438 -753.9765625 418.592773438 -753.9765625 244.374023438 -587.7109375 c 0,11,12
 66.7705078125 -417.326171875 66.7705078125 -417.326171875 70.1123046875 -175.166015625 c 0,13,14
 73.0771484375 105.540039062 73.0771484375 105.540039062 284.814453125 279.286132812 c 128,-1,15
 496.55078125 453.033203125 496.55078125 453.033203125 902.203125 519.7265625 c 1,16,-1
 737.169921875 596.186523438 l 2,17,18
 711.783203125 607.970703125 711.783203125 607.970703125 687.502929688 615.821289062 c 128,-1,19
 663.221679688 623.670898438 663.221679688 623.670898438 641.349609375 627.452148438 c 128,-1,20
 619.478515625 631.232421875 619.478515625 631.232421875 598.961914062 631.418945312 c 0,21,22
 576.3828125 631.2109375 576.3828125 631.2109375 556.423828125 626.899414062 c 128,-1,23
 536.463867188 622.587890625 536.463867188 622.587890625 518.4375 614.109375 c 128,-1,24
 500.411132812 605.629882812 500.411132812 605.629882812 483.141601562 592.567382812 c 2,25,-1
 297.6875 452.288085938 l 1,26,-1
 128.193359375 642.698242188 l 1,27,-1
 305.234375 792.055664062 l 2,28,29
 439.375976562 904.974609375 439.375976562 904.974609375 590.848632812 905.236328125 c 0,30,31
 626.602539062 905.149414062 626.602539062 905.149414062 663.005859375 898.758789062 c 128,-1,32
 699.409179688 892.368164062 699.409179688 892.368164062 735.698242188 880.005859375 c 128,-1,33
 771.987304688 867.64453125 771.987304688 867.64453125 808.854492188 849.268554688 c 2,34,-1
 1129.87402344 689.258789062 l 2,35,36
 1284.91894531 611.765625 1284.91894531 611.765625 1285.26367188 506.504882812 c 2,37,-1
 1285.16992188 327.66015625 l 1,38,-1
 1248.80761719 324.357421875 l 2,39,40
 1171.72949219 317.35546875 1171.72949219 317.35546875 1115.80761719 306.2265625 c 2,41,-1
 1114.88183594 306.041992188 l 1,42,-1
 1113.94824219 305.901367188 l 2,0,1
EndSplineSet
Substitution2: "'fina' Terminal Forms in Arabic lookup 9 subtable" uniFEA2
Substitution2: "'medi' Medial Forms in Arabic lookup 11 subtable" uniFEA4
Substitution2: "'init' Initial Forms in Arabic lookup 13 subtable" uniFEA3
EndChar

StartChar: uni062F
Encoding: 1583 1583 23
Width: 1040
VWidth: 2593
GlyphClass: 2
Flags: W
AnchorPoint: "Anchor-10" 353.659 1340.16 basechar 0
AnchorPoint: "Anchor-7" 406.382 -262.53 basechar 0
LayerCount: 2
Fore
SplineSet
477.982421875 0 m 2,0,-1
 71.8994140625 0 l 1,1,-1
 71.8994140625 268 l 1,2,-1
 478.934570312 268 l 2,3,4
 503.329101562 267.985351562 503.329101562 267.985351562 525.26171875 269.022460938 c 0,5,6
 577.921875 271.512695312 577.921875 271.512695312 614.353515625 279.142578125 c 128,-1,7
 650.786132812 286.772460938 650.786132812 286.772460938 668.624023438 298.192382812 c 128,-1,8
 686.461914062 309.611328125 686.461914062 309.611328125 693.448242188 321.331054688 c 128,-1,9
 700.434570312 333.049804688 700.434570312 333.049804688 699.768554688 347.106445312 c 0,10,11
 699.392578125 355.026367188 699.392578125 355.026367188 696.833007812 364.748046875 c 128,-1,12
 694.272460938 374.469726562 694.272460938 374.469726562 689.459960938 386.172851562 c 128,-1,13
 684.646484375 397.875 684.646484375 397.875 677.079101562 411.561523438 c 128,-1,14
 669.51171875 425.247070312 669.51171875 425.247070312 659.650390625 440.278320312 c 128,-1,15
 649.7890625 455.30859375 649.7890625 455.30859375 636.568359375 472.55859375 c 128,-1,16
 623.34765625 489.80859375 623.34765625 489.80859375 607.755859375 507.822265625 c 2,17,-1
 309.907226562 851.931640625 l 1,18,-1
 487.30078125 1050.34863281 l 1,19,-1
 817.330078125 666.078125 l 2,20,21
 960.966796875 499.022460938 960.966796875 499.022460938 960.288085938 336.833007812 c 0,22,23
 959.81640625 224.14453125 959.81640625 224.14453125 901.474609375 148.208984375 c 128,-1,24
 843.133789062 72.2734375 843.133789062 72.2734375 736.633789062 36.150390625 c 128,-1,25
 630.134765625 0.02734375 630.134765625 0.02734375 477.982421875 0 c 2,0,-1
EndSplineSet
Substitution2: "'fina' Terminal Forms in Arabic lookup 9 subtable" uniFEAA
EndChar

StartChar: uni0631
Encoding: 1585 1585 25
Width: 797
VWidth: 2593
GlyphClass: 2
Flags: W
AnchorPoint: "Anchor-10" 470.527 995.269 basechar 0
AnchorPoint: "Anchor-7" 353.998 -826.627 basechar 0
LayerCount: 2
Fore
SplineSet
144.227539062 -224.440429688 m 2,0,1
 310.021484375 -224.5546875 310.021484375 -224.5546875 385.202148438 -159.736328125 c 128,-1,2
 460.3828125 -94.91796875 460.3828125 -94.91796875 460.3828125 42.53125 c 2,3,-1
 460.383789062 688.400390625 l 1,4,-1
 726.180664062 689.913085938 l 1,5,-1
 726.180664062 45.01171875 l 2,6,7
 726.084960938 -216.959960938 726.084960938 -216.959960938 577.736328125 -353.390625 c 128,-1,8
 429.387695312 -489.8203125 429.387695312 -489.8203125 146.66015625 -491.411132812 c 2,9,-1
 1.9482421875 -492.225585938 l 1,10,-1
 1.953125 -224.342773438 l 1,11,-1
 144.227539062 -224.440429688 l 2,0,1
EndSplineSet
PairPos2: "'kern' Horizontal Kerning lookup 15-1" uniFEFB dx=-100 dy=0 dh=-100 dv=0 dx=0 dy=0 dh=0 dv=0
PairPos2: "'kern' Horizontal Kerning lookup 15-1" uniFEDF dx=-100 dy=0 dh=-100 dv=0 dx=0 dy=0 dh=0 dv=0
PairPos2: "'kern' Horizontal Kerning lookup 15-1" uni062F dx=-100 dy=0 dh=-100 dv=0 dx=0 dy=0 dh=0 dv=0
PairPos2: "'kern' Horizontal Kerning lookup 15-2" uniFB90 dx=-142 dy=0 dh=-142 dv=0 dx=0 dy=0 dh=0 dv=0
PairPos2: "'kern' Horizontal Kerning lookup 15-2" uniFB8E dx=-142 dy=0 dh=-142 dv=0 dx=0 dy=0 dh=0 dv=0
PairPos2: "'kern' Horizontal Kerning lookup 15-2" uni06A9 dx=-142 dy=0 dh=-142 dv=0 dx=0 dy=0 dh=0 dv=0
PairPos2: "'kern' Horizontal Kerning lookup 15-2" uniFEEB dx=-100 dy=0 dh=-100 dv=0 dx=0 dy=0 dh=0 dv=0
PairPos2: "'kern' Horizontal Kerning lookup 15-2" uni0647 dx=-100 dy=0 dh=-100 dv=0 dx=0 dy=0 dh=0 dv=0
PairPos2: "'kern' Horizontal Kerning lookup 15-2" uniFEE7 dx=-100 dy=0 dh=-100 dv=0 dx=0 dy=0 dh=0 dv=0
PairPos2: "'kern' Horizontal Kerning lookup 15-2" uniFEE3 dx=-100 dy=0 dh=-100 dv=0 dx=0 dy=0 dh=0 dv=0
PairPos2: "'kern' Horizontal Kerning lookup 15-2" uni0645 dx=-100 dy=0 dh=-100 dv=0 dx=0 dy=0 dh=0 dv=0
PairPos2: "'kern' Horizontal Kerning lookup 15-2" uniFEDB dx=-100 dy=0 dh=-100 dv=0 dx=0 dy=0 dh=0 dv=0
PairPos2: "'kern' Horizontal Kerning lookup 15-2" uni0643 dx=-100 dy=0 dh=-100 dv=0 dx=0 dy=0 dh=0 dv=0
PairPos2: "'kern' Horizontal Kerning lookup 15-2" uniFED7 dx=-100 dy=0 dh=-100 dv=0 dx=0 dy=0 dh=0 dv=0
PairPos2: "'kern' Horizontal Kerning lookup 15-2" uniFED3 dx=-100 dy=0 dh=-100 dv=0 dx=0 dy=0 dh=0 dv=0
PairPos2: "'kern' Horizontal Kerning lookup 15-2" uni0641 dx=-100 dy=0 dh=-100 dv=0 dx=0 dy=0 dh=0 dv=0
PairPos2: "'kern' Horizontal Kerning lookup 15-2" uniFECF dx=-100 dy=0 dh=-100 dv=0 dx=0 dy=0 dh=0 dv=0
PairPos2: "'kern' Horizontal Kerning lookup 15-2" uniFECB dx=-100 dy=0 dh=-100 dv=0 dx=0 dy=0 dh=0 dv=0
PairPos2: "'kern' Horizontal Kerning lookup 15-2" uniFEC7 dx=-100 dy=0 dh=-100 dv=0 dx=0 dy=0 dh=0 dv=0
PairPos2: "'kern' Horizontal Kerning lookup 15-2" uni0638 dx=-100 dy=0 dh=-100 dv=0 dx=0 dy=0 dh=0 dv=0
PairPos2: "'kern' Horizontal Kerning lookup 15-2" uniFEC3 dx=-100 dy=0 dh=-100 dv=0 dx=0 dy=0 dh=0 dv=0
PairPos2: "'kern' Horizontal Kerning lookup 15-2" uni0637 dx=-100 dy=0 dh=-100 dv=0 dx=0 dy=0 dh=0 dv=0
PairPos2: "'kern' Horizontal Kerning lookup 15-2" uniFEBF dx=-100 dy=0 dh=-100 dv=0 dx=0 dy=0 dh=0 dv=0
PairPos2: "'kern' Horizontal Kerning lookup 15-2" uni0636 dx=-100 dy=0 dh=-100 dv=0 dx=0 dy=0 dh=0 dv=0
PairPos2: "'kern' Horizontal Kerning lookup 15-2" uniFEBB dx=-100 dy=0 dh=-100 dv=0 dx=0 dy=0 dh=0 dv=0
PairPos2: "'kern' Horizontal Kerning lookup 15-2" uni0635 dx=-100 dy=0 dh=-100 dv=0 dx=0 dy=0 dh=0 dv=0
PairPos2: "'kern' Horizontal Kerning lookup 15-2" uniFEB7 dx=-100 dy=0 dh=-100 dv=0 dx=0 dy=0 dh=0 dv=0
PairPos2: "'kern' Horizontal Kerning lookup 15-2" uni0634 dx=-100 dy=0 dh=-100 dv=0 dx=0 dy=0 dh=0 dv=0
PairPos2: "'kern' Horizontal Kerning lookup 15-2" uniFEB3 dx=-100 dy=0 dh=-100 dv=0 dx=0 dy=0 dh=0 dv=0
PairPos2: "'kern' Horizontal Kerning lookup 15-2" uni0633 dx=-100 dy=0 dh=-100 dv=0 dx=0 dy=0 dh=0 dv=0
PairPos2: "'kern' Horizontal Kerning lookup 15-2" uniFEA7 dx=-100 dy=0 dh=-100 dv=0 dx=0 dy=0 dh=0 dv=0
PairPos2: "'kern' Horizontal Kerning lookup 15-2" uniFEA3 dx=-100 dy=0 dh=-100 dv=0 dx=0 dy=0 dh=0 dv=0
PairPos2: "'kern' Horizontal Kerning lookup 15-2" uniFE9F dx=-100 dy=0 dh=-100 dv=0 dx=0 dy=0 dh=0 dv=0
PairPos2: "'kern' Horizontal Kerning lookup 15-2" uniFE9B dx=-100 dy=0 dh=-100 dv=0 dx=0 dy=0 dh=0 dv=0
PairPos2: "'kern' Horizontal Kerning lookup 15-2" uni062B dx=-100 dy=0 dh=-100 dv=0 dx=0 dy=0 dh=0 dv=0
PairPos2: "'kern' Horizontal Kerning lookup 15-2" uniFE97 dx=-100 dy=0 dh=-100 dv=0 dx=0 dy=0 dh=0 dv=0
PairPos2: "'kern' Horizontal Kerning lookup 15-2" uni062A dx=-100 dy=0 dh=-100 dv=0 dx=0 dy=0 dh=0 dv=0
PairPos2: "'kern' Horizontal Kerning lookup 15-2" uni0629 dx=-100 dy=0 dh=-100 dv=0 dx=0 dy=0 dh=0 dv=0
PairPos2: "'kern' Horizontal Kerning lookup 15-2" uniFE91 dx=-47 dy=0 dh=-47 dv=0 dx=0 dy=0 dh=0 dv=0
PairPos2: "'kern' Horizontal Kerning lookup 15-2" uni0628 dx=-100 dy=0 dh=-100 dv=0 dx=0 dy=0 dh=0 dv=0
PairPos2: "'kern' Horizontal Kerning lookup 15-2" uni0627 dx=-100 dy=0 dh=-100 dv=0 dx=0 dy=0 dh=0 dv=0
PairPos2: "'kern' Horizontal Kerning lookup 15-2" uni0622 dx=-100 dy=0 dh=-100 dv=0 dx=0 dy=0 dh=0 dv=0
PairPos2: "'kern' Horizontal Kerning lookup 15-2" uni0621 dx=-100 dy=0 dh=-100 dv=0 dx=0 dy=0 dh=0 dv=0
PairPos2: "'kern' Horizontal Kerning lookup 15-2" uniFB94 dx=-142 dy=0 dh=-142 dv=0 dx=0 dy=0 dh=0 dv=0
PairPos2: "'kern' Horizontal Kerning lookup 15-2" uniFB92 dx=-142 dy=0 dh=-142 dv=0 dx=0 dy=0 dh=0 dv=0
PairPos2: "'kern' Horizontal Kerning lookup 15-2" afii57509 dx=-142 dy=0 dh=-142 dv=0 dx=0 dy=0 dh=0 dv=0
PairPos2: "'kern' Horizontal Kerning lookup 15-2" uniFB7C dx=-100 dy=0 dh=-100 dv=0 dx=0 dy=0 dh=0 dv=0
PairPos2: "'kern' Horizontal Kerning lookup 15-2" afii57506 dx=-100 dy=0 dh=-100 dv=0 dx=0 dy=0 dh=0 dv=0
PairPos2: "'kern' Horizontal Kerning lookup 15-2" afii57440 dx=-94 dy=0 dh=-94 dv=0 dx=0 dy=0 dh=0 dv=0
Substitution2: "'fina' Terminal Forms in Arabic lookup 9 subtable" uniFEAE
EndChar

StartChar: uni0633
Encoding: 1587 1587 27
Width: 2503
VWidth: 2553
GlyphClass: 2
Flags: W
AnchorPoint: "Anchor-10" 572.364 1027.96 basechar 0
AnchorPoint: "Anchor-7" 334.092 -601.765 basechar 0
LayerCount: 2
Fore
SplineSet
1805.57128906 114.959960938 m 1,0,1
 1776.88085938 75.8642578125 1776.88085938 75.8642578125 1736.60449219 49.9462890625 c 128,-1,2
 1696.328125 24.02734375 1696.328125 24.02734375 1647.640625 11.8466796875 c 128,-1,3
 1598.95410156 -0.3330078125 1598.95410156 -0.3330078125 1541.16503906 -0.0654296875 c 0,4,5
 1447.09765625 0.654296875 1447.09765625 0.654296875 1383.90234375 41.365234375 c 1,6,7
 1379.10351562 -37.634765625 1379.10351562 -37.634765625 1358.06640625 -104.557617188 c 128,-1,8
 1337.02929688 -171.48046875 1337.02929688 -171.48046875 1300.47070312 -225.127929688 c 128,-1,9
 1263.91210938 -278.776367188 1263.91210938 -278.776367188 1212.23242188 -320.088867188 c 128,-1,10
 1160.55371094 -361.40234375 1160.55371094 -361.40234375 1094.29980469 -389.6953125 c 128,-1,11
 1028.04589844 -417.98828125 1028.04589844 -417.98828125 947.80078125 -433.654296875 c 128,-1,12
 867.5546875 -449.319335938 867.5546875 -449.319335938 773.692382812 -452.186523438 c 2,13,-1
 754.025390625 -452.787109375 l 1,14,-1
 726.23828125 -452.787109375 l 2,15,16
 409.555664062 -452.897460938 409.555664062 -452.897460938 242.858398438 -317.383789062 c 128,-1,17
 76.16015625 -181.870117188 76.16015625 -181.870117188 76.16015625 83.2763671875 c 2,18,-1
 76.16015625 356.138671875 l 1,19,-1
 75.9501953125 525.9921875 l 1,20,-1
 334.91796875 526.041015625 l 1,21,-1
 334.91796875 84.4580078125 l 2,22,23
 334.954101562 -50.4794921875 334.954101562 -50.4794921875 428.502929688 -116.984375 c 128,-1,24
 522.051757812 -183.490234375 522.051757812 -183.490234375 728.396484375 -183.490234375 c 2,25,-1
 753.2578125 -183.490234375 l 1,26,-1
 780.552734375 -182.91015625 l 2,27,28
 963.233398438 -179.186523438 963.233398438 -179.186523438 1046.09472656 -112.548828125 c 128,-1,29
 1128.95507812 -45.912109375 1128.95507812 -45.912109375 1128.88574219 88.537109375 c 2,30,-1
 1128.55859375 724.787109375 l 1,31,-1
 1398.79199219 725.025390625 l 1,32,-1
 1399.48339844 435.233398438 l 2,33,34
 1399.70996094 344.684570312 1399.70996094 344.684570312 1433.34570312 306.529296875 c 128,-1,35
 1466.98144531 268.374023438 1466.98144531 268.374023438 1542.25976562 267.932617188 c 0,36,37
 1585.36621094 267.685546875 1585.36621094 267.685546875 1611.63964844 282.102539062 c 128,-1,38
 1637.91308594 296.51953125 1637.91308594 296.51953125 1651.59570312 331.532226562 c 128,-1,39
 1665.27832031 366.544921875 1665.27832031 366.544921875 1665.39160156 425.989257812 c 2,40,-1
 1665.96875 727.62109375 l 1,41,-1
 1933.90625 727.62109375 l 1,42,-1
 1934.62109375 424.192382812 l 2,43,44
 1934.78515625 338.994140625 1934.78515625 338.994140625 1967.27929688 303.184570312 c 128,-1,45
 1999.77246094 267.375 1999.77246094 267.375 2073.71386719 266.932617188 c 0,46,47
 2127.85742188 266.587890625 2127.85742188 266.587890625 2153.90332031 302.966796875 c 128,-1,48
 2179.94824219 339.344726562 2179.94824219 339.344726562 2179.94824219 431.92578125 c 2,49,-1
 2179.94824219 769.295898438 l 1,50,-1
 2438.70605469 769.295898438 l 1,51,-1
 2438.70605469 423.993164062 l 2,52,53
 2438.86230469 219.702148438 2438.86230469 219.702148438 2347.94824219 109.3359375 c 128,-1,54
 2257.03515625 -1.029296875 2257.03515625 -1.029296875 2081.41015625 -1.06640625 c 0,55,56
 1890.65722656 -1.0078125 1890.65722656 -1.0078125 1805.57128906 114.959960938 c 1,0,1
EndSplineSet
Substitution2: "'fina' Terminal Forms in Arabic lookup 9 subtable" uniFEB2
Substitution2: "'medi' Medial Forms in Arabic lookup 11 subtable" uniFEB4
Substitution2: "'init' Initial Forms in Arabic lookup 13 subtable" uniFEB3
EndChar

StartChar: uni0635
Encoding: 1589 1589 29
Width: 2528
VWidth: 2593
GlyphClass: 2
Flags: W
AnchorPoint: "Anchor-10" 559.495 1027.96 basechar 0
AnchorPoint: "Anchor-7" 266.07 -590.58 basechar 0
LayerCount: 2
Fore
SplineSet
2195.55078125 454.962890625 m 0,0,1
 2184.03808594 503.26953125 2184.03808594 503.26953125 2161.78515625 533.262695312 c 128,-1,2
 2139.53222656 563.256835938 2139.53222656 563.256835938 2104.13671875 577.6328125 c 128,-1,3
 2068.74023438 592.009765625 2068.74023438 592.009765625 2017.12402344 592.013671875 c 0,4,5
 1941.52246094 592.008789062 1941.52246094 592.008789062 1859.8984375 513.499023438 c 128,-1,6
 1778.2734375 434.990234375 1778.2734375 434.990234375 1696.50585938 271.52734375 c 1,7,-1
 1991.19921875 271.52734375 l 2,8,9
 2061.12988281 271.7421875 2061.12988281 271.7421875 2107.25488281 282.045898438 c 128,-1,10
 2153.37988281 292.349609375 2153.37988281 292.349609375 2170.671875 307.114257812 c 0,11,12
 2201 334.38671875 2201 334.38671875 2201 389 c 0,13,14
 2201 409.26171875 2201 409.26171875 2199.5390625 426.142578125 c 128,-1,15
 2198.078125 443.0234375 2198.078125 443.0234375 2195.55078125 454.962890625 c 0,0,1
1437.27441406 308.534179688 m 1,16,17
 1674.61328125 853 1674.61328125 853 2027.5 853 c 0,18,19
 2096.34082031 853 2096.34082031 853 2156.40722656 835.506835938 c 128,-1,20
 2216.47460938 818.014648438 2216.47460938 818.014648438 2267.01757812 782.963867188 c 128,-1,21
 2317.56054688 747.9140625 2317.56054688 747.9140625 2356.9140625 696.021484375 c 0,22,23
 2449.953125 572.436523438 2449.953125 572.436523438 2450.5625 399.588867188 c 0,24,25
 2451.04785156 204.943359375 2451.04785156 204.943359375 2321.18847656 99.9267578125 c 0,26,27
 2279.42578125 65.9951171875 2279.42578125 65.9951171875 2225.64941406 43.689453125 c 128,-1,28
 2171.87304688 21.384765625 2171.87304688 21.384765625 2108.78027344 10.802734375 c 128,-1,29
 2045.6875 0.220703125 2045.6875 0.220703125 1971.28417969 0.1845703125 c 2,30,-1
 1590.32421875 0 l 2,31,32
 1461.09375 0 1461.09375 0 1379.73046875 55.2470703125 c 1,33,34
 1375.20996094 -66.3349609375 1375.20996094 -66.3349609375 1332.28613281 -159.848632812 c 128,-1,35
 1289.36132812 -253.361328125 1289.36132812 -253.361328125 1210.3359375 -316.454101562 c 128,-1,36
 1131.30957031 -379.546875 1131.30957031 -379.546875 1018.01855469 -413.635742188 c 128,-1,37
 904.7265625 -447.724609375 904.7265625 -447.724609375 758.65234375 -452.186523438 c 2,38,-1
 738.985351562 -452.787109375 l 1,39,-1
 711.202148438 -452.787109375 l 2,40,41
 398.112304688 -452.8984375 398.112304688 -452.8984375 234.66796875 -301.454101562 c 128,-1,42
 71.224609375 -150.009765625 71.224609375 -150.009765625 71.12109375 143.262695312 c 2,43,-1
 70.986328125 525.9921875 l 1,44,-1
 329.877929688 526.041015625 l 1,45,-1
 329.877929688 144.462890625 l 2,46,47
 329.93359375 -23.4677734375 329.93359375 -23.4677734375 421.995117188 -103.478515625 c 128,-1,48
 514.057617188 -183.490234375 514.057617188 -183.490234375 713.356445312 -183.490234375 c 2,49,-1
 738.217773438 -183.490234375 l 1,50,-1
 765.4921875 -182.911132812 l 2,51,52
 953.407226562 -178.704101562 953.407226562 -178.704101562 1038.66601562 -111.854492188 c 128,-1,53
 1123.92382812 -45.005859375 1123.92382812 -45.005859375 1123.84570312 88.5341796875 c 2,54,-1
 1123.47363281 724.797851562 l 1,55,-1
 1384.9296875 724.931640625 l 1,56,-1
 1385.0390625 486.595703125 l 2,57,58
 1385.01269531 349.39453125 1385.01269531 349.39453125 1437.27441406 308.534179688 c 1,16,17
EndSplineSet
Substitution2: "'fina' Terminal Forms in Arabic lookup 9 subtable" uniFEBA
Substitution2: "'medi' Medial Forms in Arabic lookup 11 subtable" uniFEBC
Substitution2: "'init' Initial Forms in Arabic lookup 13 subtable" uniFEBB
EndChar

StartChar: uni0637
Encoding: 1591 1591 31
Width: 1351
VWidth: 2593
GlyphClass: 2
Flags: W
AnchorPoint: "Anchor-10" 435.723 1450.59 basechar 0
AnchorPoint: "Anchor-7" 704.688 -237.098 basechar 0
LayerCount: 2
Fore
SplineSet
1019.27050781 454.779296875 m 0,0,1
 1002.52832031 526.541015625 1002.52832031 526.541015625 960.224609375 559.274414062 c 128,-1,2
 917.919921875 592.0078125 917.919921875 592.0078125 840.799804688 592.013671875 c 0,3,4
 764.85546875 592.008789062 764.85546875 592.008789062 683.243164062 513.528320312 c 128,-1,5
 601.630859375 435.046875 601.630859375 435.046875 520.087890625 271.52734375 c 1,6,-1
 814.875 271.52734375 l 2,7,8
 885.026367188 271.7421875 885.026367188 271.7421875 931.1875 282.026367188 c 128,-1,9
 977.348632812 292.310546875 977.348632812 292.310546875 994.330078125 307.09765625 c 0,10,11
 1009.49804688 320.4453125 1009.49804688 320.4453125 1017.15234375 339.950195312 c 128,-1,12
 1024.80664062 359.456054688 1024.80664062 359.456054688 1024.67480469 389.055664062 c 0,13,14
 1024.96777344 429.662109375 1024.96777344 429.662109375 1019.27050781 454.779296875 c 0,0,1
330.905273438 452 m 5,15,-1
 330.905273438 1368.640625 l 5,16,-1
 581 1368.64355469 l 1,17,-1
 581 751.286132812 l 1,18,19
 614 777 614 777 646.5078125 795.452148438 c 128,-1,20
 679 814 679 814 712.823242188 827.240234375 c 0,21,22
 746 840 746 840 780.422851562 846.543945312 c 128,-1,23
 815 853 815 853 849.17578125 853 c 0,24,25
 1065 853 1065 853 1181.62207031 697.979492188 c 0,26,27
 1228 637 1228 637 1250.9765625 561.56640625 c 128,-1,28
 1274 486 1274 486 1274.23828125 399.584960938 c 0,29,30
 1275 207 1275 207 1144.86425781 99.9267578125 c 0,31,32
 1085 51 1085 51 994.961914062 24.7470703125 c 0,33,34
 911.736431168 0.21705691311 911.736431168 0.21705691311 794.952148438 0.1845703125 c 2,35,-1
 71.7705078125 -0.0166015625 l 1,36,-1
 71.7705078125 269.266601562 l 1,37,-1
 235.73828125 269.044921875 l 1,38,39
 238 275 238 275 330.905273438 452 c 5,15,-1
EndSplineSet
Substitution2: "'fina' Terminal Forms in Arabic lookup 9 subtable" uniFEC2
Substitution2: "'medi' Medial Forms in Arabic lookup 11 subtable" uniFEC4
Substitution2: "'init' Initial Forms in Arabic lookup 13 subtable" uniFEC3
EndChar

StartChar: uni0639
Encoding: 1593 1593 33
Width: 1300
VWidth: 2593
GlyphClass: 2
Flags: W
AnchorPoint: "Anchor-10" 685.349 1495.99 basechar 0
AnchorPoint: "Anchor-7" 310.438 -831.494 basechar 0
LayerCount: 2
Fore
SplineSet
1227.28515625 -754.077148438 m 1,0,-1
 820.399414062 -753.098632812 l 2,1,2
 461.627929688 -751.958007812 461.627929688 -751.958007812 277.000976562 -613.719726562 c 0,3,4
 70.939453125 -458.935546875 70.939453125 -458.935546875 71.8046875 -174.63671875 c 0,5,6
 72.3798828125 4.7939453125 72.3798828125 4.7939453125 165.545898438 141.622070312 c 128,-1,7
 258.711914062 278.450195312 258.711914062 278.450195312 438.991210938 368.283203125 c 1,8,9
 410.408203125 386.141601562 410.408203125 386.141601562 386.661132812 408.158203125 c 128,-1,10
 362.9140625 430.174804688 362.9140625 430.174804688 343.010742188 457.07421875 c 0,11,12
 266.887695312 557.725585938 266.887695312 557.725585938 267.924804688 682.30859375 c 0,13,14
 269.108398438 848.404296875 269.108398438 848.404296875 364.211914062 954.6953125 c 0,15,16
 427.618164062 1025.33300781 427.618164062 1025.33300781 520.666015625 1060.01855469 c 128,-1,17
 613.712890625 1094.70507812 613.712890625 1094.70507812 733.09765625 1094.37109375 c 0,18,19
 894.780273438 1093.9765625 894.780273438 1093.9765625 1055.33105469 1010.91308594 c 2,20,-1
 1084.06640625 996.045898438 l 1,21,-1
 1021.46582031 767.056640625 l 1,22,-1
 979.981445312 783.39453125 l 2,23,24
 846.411132812 835.998046875 846.411132812 835.998046875 742.923828125 835.978515625 c 0,25,26
 703.201171875 836.13671875 703.201171875 836.13671875 671.547851562 831.806640625 c 128,-1,27
 639.89453125 827.475585938 639.89453125 827.475585938 615.756835938 818.400390625 c 128,-1,28
 591.620117188 809.325195312 591.620117188 809.325195312 574.372070312 796.044921875 c 128,-1,29
 557.125 782.764648438 557.125 782.764648438 546.0859375 764.336914062 c 128,-1,30
 535.046875 745.91015625 535.046875 745.91015625 529.727539062 723.606445312 c 128,-1,31
 524.408203125 701.302734375 524.408203125 701.302734375 523.997070312 673.495117188 c 0,32,33
 523.671875 642.470703125 523.671875 642.470703125 530.881835938 616.825195312 c 128,-1,34
 538.090820312 591.180664062 538.090820312 591.180664062 554.052734375 569.173828125 c 128,-1,35
 570.014648438 547.166992188 570.014648438 547.166992188 595.159179688 530.057617188 c 128,-1,36
 620.302734375 512.948242188 620.302734375 512.948242188 656.065429688 499.838867188 c 128,-1,37
 691.828125 486.728515625 691.828125 486.728515625 738.420898438 478.033203125 c 1,38,-1
 1150.87597656 507.22265625 l 1,39,-1
 1150.64355469 247.525390625 l 1,40,-1
 1111.51171875 246.709960938 l 2,41,42
 704.462890625 238.23046875 704.462890625 238.23046875 503.618164062 117.72265625 c 0,43,44
 324.20703125 9.53515625 324.20703125 9.53515625 325.930664062 -179.397460938 c 0,45,46
 327.291992188 -335.26171875 327.291992188 -335.26171875 445 -413.56640625 c 128,-1,47
 562.70703125 -491.872070312 562.70703125 -491.872070312 816.659179688 -492.5 c 2,48,-1
 1228.80664062 -493.51953125 l 1,49,-1
 1227.28515625 -754.077148438 l 1,0,-1
EndSplineSet
Substitution2: "'fina' Terminal Forms in Arabic lookup 9 subtable" uniFECA
Substitution2: "'medi' Medial Forms in Arabic lookup 11 subtable" uniFECC
Substitution2: "'init' Initial Forms in Arabic lookup 13 subtable" uniFECB
EndChar

StartChar: afii57440
Encoding: 1600 1600 35
Width: 250
VWidth: 2593
GlyphClass: 2
Flags: W
AnchorPoint: "Anchor-10" 141.758 1527.26 basechar 0
AnchorPoint: "Anchor-7" 133.758 -197.351 basechar 0
LayerCount: 2
Fore
SplineSet
254.9765625 268 m 6,0,1
 319.9765625 268 319.9765625 268 319.9765625 139 c 6,2,-1
 319.9765625 128 l 6,3,4
 320.030133929 -3.88098442272e-11 320.030133929 -3.88098442272e-11 254.9765625 0 c 6,5,-1
 -5.0234375 0 l 2,6,7
 -59 0 -59 0 -89.51171875 36.0138440884 c 128,-1,8
 -120.0234375 72.0276639251 -120.0234375 72.0276639251 -120.0234375 128 c 2,9,-1
 -120.0234375 139 l 2,10,11
 -120 196 -120 196 -89.5 232 c 128,-1,12
 -59 268 -59 268 -5.0234375 268 c 2,13,-1
 254.9765625 268 l 6,0,1
EndSplineSet
EndChar

StartChar: uni0643
Encoding: 1603 1603 38
Width: 1877
VWidth: 2593
GlyphClass: 2
Flags: W
AnchorPoint: "Anchor-10" 597.194 1671.14 basechar 0
AnchorPoint: "Anchor-7" 427.008 -249.033 basechar 0
LayerCount: 2
Fore
SplineSet
708.515625 823.330078125 m 2,0,1
 770.712890625 815.491210938 770.712890625 815.491210938 832.82421875 815.491210938 c 0,2,3
 889.9453125 815.491210938 889.9453125 815.491210938 938.538085938 834.377929688 c 0,4,5
 997.059570312 857.123046875 997.059570312 857.123046875 997.059570312 881.939453125 c 0,6,7
 997.059570312 883.768554688 997.059570312 883.768554688 996.76171875 885.190429688 c 128,-1,8
 996.462890625 886.611328125 996.462890625 886.611328125 993.48046875 890.141601562 c 128,-1,9
 990.499023438 893.671875 990.499023438 893.671875 985.084960938 896.528320312 c 128,-1,10
 979.670898438 899.385742188 979.670898438 899.385742188 967.943359375 902.901367188 c 128,-1,11
 956.216796875 906.416015625 956.216796875 906.416015625 939.924804688 908.993164062 c 0,12,13
 833.236328125 925.873046875 833.236328125 925.873046875 787.447265625 985.76171875 c 0,14,15
 720.083984375 1073.86523438 720.083984375 1073.86523438 750.875 1170.64257812 c 0,16,17
 806.237304688 1344.65527344 806.237304688 1344.65527344 1097.48144531 1366.29980469 c 2,18,-1
 1169.71484375 1371.66699219 l 1,19,-1
 1169.71484375 1191.28027344 l 1,20,-1
 1107.91796875 1186.25292969 l 2,21,22
 1055.40527344 1181.98144531 1055.40527344 1181.98144531 1017.90917969 1173.31054688 c 128,-1,23
 980.412109375 1164.640625 980.412109375 1164.640625 962.197265625 1153.81933594 c 128,-1,24
 943.981445312 1142.99902344 943.981445312 1142.99902344 936.287109375 1133.17089844 c 128,-1,25
 928.592773438 1123.34375 928.592773438 1123.34375 928.592773438 1113.37695312 c 0,26,27
 928.592773438 1105.625 928.592773438 1105.625 929.982421875 1101.57226562 c 128,-1,28
 931.372070312 1097.52050781 931.372070312 1097.52050781 937.109375 1093.4296875 c 128,-1,29
 942.845703125 1089.33984375 942.845703125 1089.33984375 954.782226562 1085.49902344 c 0,30,31
 979.47265625 1077.55566406 979.47265625 1077.55566406 1027.60058594 1070.4765625 c 0,32,33
 1091.75683594 1061.04003906 1091.75683594 1061.04003906 1134.72851562 1019.41601562 c 0,34,35
 1180.609375 974.971679688 1180.609375 974.971679688 1180.609375 900.932617188 c 0,36,37
 1180.609375 832.294921875 1180.609375 832.294921875 1151.16210938 785.510742188 c 0,38,39
 1024.44335938 584.1875 1024.44335938 584.1875 689.719726562 636.505859375 c 2,40,-1
 632.857421875 645.396484375 l 1,41,-1
 632.857421875 832.864257812 l 1,42,-1
 708.515625 823.330078125 l 2,0,1
1371.84667969 268.23046875 m 2,43,44
 1457.17530163 268.23046875 1457.17530163 268.23046875 1495.95410156 319.212890625 c 4,45,46
 1534.41601562 371.566269889 1534.41601562 371.566269889 1534.41601562 490.396484375 c 6,47,-1
 1534.41601562 1367.17089844 l 5,48,-1
 1788.17382812 1367.18847656 l 1,49,-1
 1788.17382812 517.376953125 l 2,50,51
 1788 156 1788 156 1573.74902344 44.95703125 c 0,52,53
 1484.87176087 -1.06640625 1484.87176087 -1.06640625 1364.62988281 -1.06640625 c 2,54,-1
 472.948242188 -1.06640625 l 2,55,56
 266 -1 266 -1 158.533203125 123.331054688 c 128,-1,57
 51.1503150401 247.825731801 51.1503150401 247.825731801 51.1494140625 481.006835938 c 2,58,-1
 51.1484375 733.75 l 1,59,-1
 309.904296875 733.75 l 1,60,-1
 309.904296875 491.5859375 l 2,61,62
 310 371 310 371 348.447265625 319.490234375 c 0,63,64
 386.827439113 268.23046875 386.827439113 268.23046875 467.470703125 268.23046875 c 2,65,-1
 1371.84667969 268.23046875 l 2,43,44
EndSplineSet
Substitution2: "'fina' Terminal Forms in Arabic lookup 9 subtable" uniFEDA
Substitution2: "'medi' Medial Forms in Arabic lookup 11 subtable" uniFEDC
Substitution2: "'init' Initial Forms in Arabic lookup 13 subtable" uniFEDB
EndChar

StartChar: uni0644
Encoding: 1604 1604 39
Width: 1417
VWidth: 2593
GlyphClass: 2
Flags: W
AnchorPoint: "Anchor-10" 417.625 1189.69 basechar 0
AnchorPoint: "Anchor-7" 380.231 -571.937 basechar 0
LayerCount: 2
Fore
SplineSet
329.877929688 144.44921875 m 2,0,1
 329.877929688 -20.8913341044 329.877929688 -20.8913341044 417.830078125 -99.185546875 c 0,2,3
 504.478315462 -177.528320312 504.478315462 -177.528320312 696.356445312 -177.528320312 c 2,4,-1
 721.217773438 -177.528320312 l 1,5,-1
 748.532226562 -176.947265625 l 2,6,7
 988.655706357 -171.965650624 988.655706357 -171.965650624 1039.55273438 -5.9189453125 c 4,8,9
 1057.36452261 53.210090203 1057.36452261 53.210090203 1057.36523438 128.416015625 c 6,10,-1
 1057.37695312 1366.63671875 l 5,11,-1
 1306.33105469 1366.63671875 l 1,12,-1
 1305.25488281 123.965820312 l 2,13,14
 1305 -147 1305 -147 1161.33203125 -292.516601562 c 0,15,16
 1018 -438 1018 -438 721.986328125 -446.825195312 c 1,17,-1
 694.198242188 -446.825195312 l 2,18,19
 272 -447 272 -447 134.182617188 -165.686523438 c 0,20,21
 71.1846998011 -37.3761853552 71.1846998011 -37.3761853552 71.12109375 143.262695312 c 2,22,-1
 70.986328125 525.9921875 l 1,23,-1
 329.877929688 526.041015625 l 1,24,-1
 329.877929688 144.44921875 l 2,0,1
EndSplineSet
Substitution2: "'fina' Terminal Forms in Arabic lookup 9 subtable" uniFEDE
Substitution2: "'medi' Medial Forms in Arabic lookup 11 subtable" uniFEE0
Substitution2: "'init' Initial Forms in Arabic lookup 13 subtable" uniFEDF
EndChar

StartChar: uni0645
Encoding: 1605 1605 40
Width: 1324
VWidth: 2593
GlyphClass: 2
Flags: W
AnchorPoint: "Anchor-10" 655.137 1292.98 basechar 0
AnchorPoint: "Anchor-7" 154.119 -697.918 basechar 0
LayerCount: 2
Fore
SplineSet
852.844726562 574.115234375 m 0,0,1
 777.768554688 574.043945312 777.768554688 574.043945312 736.734375 572.2734375 c 1,2,3
 736.366210938 560.329101562 736.366210938 560.329101562 736.125976562 546.196289062 c 128,-1,4
 735.885742188 532.0625 735.885742188 532.0625 735.772460938 515.61328125 c 128,-1,5
 735.659179688 499.165039062 735.659179688 499.165039062 735.673828125 480.38671875 c 128,-1,6
 735.688476562 461.609375 735.688476562 461.609375 735.831054688 440.404296875 c 0,7,8
 736.875 304.438476562 736.875 304.438476562 778.83984375 261.5390625 c 0,9,10
 816.779296875 222.979492188 816.779296875 222.979492188 888.750976562 222.890625 c 0,11,12
 947.794921875 222.930664062 947.794921875 222.930664062 977.26171875 274.202148438 c 128,-1,13
 1006.72753906 325.474609375 1006.72753906 325.474609375 1002.99121094 450.612304688 c 0,14,15
 1000.98339844 516.0859375 1000.98339844 516.0859375 967.053710938 545.075195312 c 128,-1,16
 933.125 574.065429688 933.125 574.065429688 852.844726562 574.115234375 c 0,0,1
898.188476562 824.5390625 m 2,17,18
 1072.2109375 824.546875 1072.2109375 824.546875 1163.15136719 722.704101562 c 128,-1,19
 1254.09277344 620.860351562 1254.09277344 620.860351562 1253.04785156 431.815429688 c 0,20,21
 1251.91503906 146.60546875 1251.91503906 146.60546875 1082.72949219 33.154296875 c 0,22,23
 1044.95996094 7.9296875 1044.95996094 7.9296875 995.532226562 -4.1435546875 c 128,-1,24
 946.104492188 -16.216796875 946.104492188 -16.216796875 885.279296875 -16.4755859375 c 0,25,26
 712.498046875 -18.15234375 712.498046875 -18.15234375 604.036132812 82.2021484375 c 0,27,28
 472.575195312 202.802734375 472.575195312 202.802734375 478.90234375 466.270507812 c 0,29,30
 479.985351562 511.315429688 479.985351562 511.315429688 481.65625 544.856445312 c 1,31,32
 325.010742188 495.831054688 325.010742188 495.831054688 325.010742188 201.032226562 c 2,33,-1
 325.010742188 -496.416992188 l 1,34,-1
 70.94921875 -496.416992188 l 1,35,-1
 70.9541015625 199.573242188 l 2,36,37
 70.4580078125 503.796875 70.4580078125 503.796875 202.649414062 664.155273438 c 128,-1,38
 334.83984375 824.513671875 334.83984375 824.513671875 593.25390625 824.525390625 c 2,39,-1
 898.188476562 824.5390625 l 2,17,18
EndSplineSet
Substitution2: "'init' Initial Forms in Arabic lookup 13 subtable" uniFEE3
Substitution2: "'medi' Medial Forms in Arabic lookup 11 subtable" uniFEE4
Substitution2: "'fina' Terminal Forms in Arabic lookup 9 subtable" uniFEE2
EndChar

StartChar: uni0647
Encoding: 1607 1607 42
Width: 939
VWidth: 2370
GlyphClass: 2
Flags: W
AnchorPoint: "Anchor-10" 427.833 1157.93 basechar 0
AnchorPoint: "Anchor-7" 329.418 -160.202 basechar 0
LayerCount: 2
Fore
SplineSet
468.419921875 607.82421875 m 1,0,1
 418.41015625 554.828125 418.41015625 554.828125 384.8984375 507.087890625 c 128,-1,2
 351.385742188 459.346679688 351.385742188 459.346679688 336.58984375 423.297851562 c 128,-1,3
 321.794921875 387.248046875 321.794921875 387.248046875 321.731445312 359.33203125 c 0,4,5
 321.827148438 310.264648438 321.827148438 310.264648438 356.905273438 286.114257812 c 128,-1,6
 391.983398438 261.96484375 391.983398438 261.96484375 481.702148438 261.935546875 c 0,7,8
 563.919921875 261.963867188 563.919921875 261.963867188 595.509765625 284.602539062 c 128,-1,9
 627.100585938 307.240234375 627.100585938 307.240234375 627.15625 354.545898438 c 0,10,11
 627.100585938 397.181640625 627.100585938 397.181640625 587.690429688 462.334960938 c 128,-1,12
 548.280273438 527.489257812 548.280273438 527.489257812 468.419921875 607.82421875 c 1,0,1
70.951171875 342.151367188 m 0,13,14
 71.0009765625 541.764648438 71.0009765625 541.764648438 291.35546875 781.60546875 c 1,15,-1
 253.463867188 816.638671875 l 1,16,-1
 408.830078125 991.799804688 l 1,17,-1
 438.346679688 969.405273438 l 2,18,19
 874.036132812 638.833984375 874.036132812 638.833984375 873.499023438 345.002929688 c 0,20,21
 873.315429688 232.9140625 873.315429688 232.9140625 826.891601562 155.60546875 c 128,-1,22
 780.46875 78.296875 780.46875 78.296875 692.803710938 39.640625 c 128,-1,23
 605.137695312 0.9853515625 605.137695312 0.9853515625 480.0859375 0.9775390625 c 0,24,25
 198.885742188 1.7568359375 198.885742188 1.7568359375 108.747070312 172.45703125 c 0,26,27
 71.1923828125 244.739257812 71.1923828125 244.739257812 70.951171875 342.151367188 c 0,13,14
EndSplineSet
Substitution2: "'fina' Terminal Forms in Arabic lookup 9 subtable" uniFEEA
Substitution2: "'medi' Medial Forms in Arabic lookup 11 subtable" uniFEEC
Substitution2: "'init' Initial Forms in Arabic lookup 13 subtable" uniFEEB
EndChar

StartChar: uni0648
Encoding: 1608 1608 43
Width: 897
VWidth: 2593
GlyphClass: 2
Flags: W
AnchorPoint: "Anchor-10" 372.019 1245.88 basechar 0
AnchorPoint: "Anchor-7" 375.433 -677.366 basechar 0
LayerCount: 2
Fore
SplineSet
822.920898438 49.5498046875 m 2,0,1
 823.12109375 -215.772460938 823.12109375 -215.772460938 674.108398438 -353.162109375 c 128,-1,2
 525.096679688 -490.551757812 525.096679688 -490.551757812 240.734375 -490.412109375 c 2,3,-1
 97.044921875 -490.341796875 l 1,4,-1
 96.8994140625 -222.166992188 l 1,5,-1
 236.938476562 -222.265625 l 2,6,7
 401.356445312 -222.59765625 401.356445312 -222.59765625 477.624023438 -167.639648438 c 128,-1,8
 553.891601562 -112.682617188 553.891601562 -112.682617188 559.5390625 0.1064453125 c 1,9,-1
 419.052734375 0.1064453125 l 2,10,11
 248.120117188 0.0478515625 248.120117188 0.0478515625 159.310546875 104.94140625 c 128,-1,12
 70.501953125 209.834960938 70.501953125 209.834960938 71.076171875 403.893554688 c 0,13,14
 72.107421875 599.079101562 72.107421875 599.079101562 168.552734375 703.673828125 c 128,-1,15
 264.999023438 808.267578125 264.999023438 808.267578125 447.521484375 808.58984375 c 0,16,17
 538.943359375 808.702148438 538.943359375 808.702148438 609.501953125 781.455078125 c 128,-1,18
 680.060546875 754.208007812 680.060546875 754.208007812 727.099609375 701.754882812 c 128,-1,19
 774.137695312 649.301757812 774.137695312 649.301757812 798.361328125 572.522460938 c 128,-1,20
 822.584960938 495.743164062 822.584960938 495.743164062 822.659179688 396.983398438 c 2,21,-1
 822.920898438 49.5498046875 l 2,0,1
443.610351562 553.374023438 m 0,22,23
 372.05859375 553.219726562 372.05859375 553.219726562 340.989257812 519.587890625 c 128,-1,24
 309.919921875 485.956054688 309.919921875 485.956054688 309.859375 405.2265625 c 0,25,26
 309.900390625 353.618164062 309.900390625 353.618164062 321.734375 323.612304688 c 128,-1,27
 333.567382812 293.60546875 333.567382812 293.60546875 356.567382812 281.309570312 c 128,-1,28
 379.567382812 269.013671875 379.567382812 269.013671875 418.014648438 269 c 2,29,-1
 569.598632812 268.9453125 l 1,30,-1
 569.258789062 390.918945312 l 2,31,32
 569.14453125 480.258789062 569.14453125 480.258789062 539.278320312 516.7421875 c 128,-1,33
 509.412109375 553.225585938 509.412109375 553.225585938 443.610351562 553.374023438 c 0,22,23
EndSplineSet
Substitution2: "'fina' Terminal Forms in Arabic lookup 9 subtable" uniFEEE
EndChar

StartChar: uni0649
Encoding: 1609 1609 44
Width: 1506
VWidth: 2593
GlyphClass: 2
Flags: W
AnchorPoint: "Anchor-10" 464.637 1268.75 basechar 0
AnchorPoint: "Anchor-7" 305.837 -646.501 basechar 0
LayerCount: 2
Fore
SplineSet
1160.77441406 353.370117188 m 2,0,1
 1286.9296875 353.370117188 1286.9296875 353.370117188 1356.02929688 284.997070312 c 128,-1,2
 1425.12792969 216.625 1425.12792969 216.625 1425.12792969 91.36328125 c 2,3,-1
 1425.12792969 62.0126953125 l 2,4,5
 1425.05957031 -205.4921875 1425.05957031 -205.4921875 1258.51660156 -342.392578125 c 128,-1,6
 1091.97363281 -479.291992188 1091.97363281 -479.291992188 775.419921875 -479.280273438 c 2,7,-1
 720.922851562 -479.280273438 l 2,8,9
 402.856445312 -479.133789062 402.856445312 -479.133789062 236.657226562 -328.017578125 c 128,-1,10
 70.45703125 -176.901367188 70.45703125 -176.901367188 70.267578125 116.006835938 c 2,11,-1
 69.9736328125 569 l 1,12,-1
 329.022460938 569 l 1,13,-1
 329.022460938 117.203125 l 2,14,15
 329.012695312 -49.943359375 329.012695312 -49.943359375 423.572265625 -129.956054688 c 128,-1,16
 518.131835938 -209.969726562 518.131835938 -209.969726562 723.114257812 -209.98046875 c 2,17,-1
 784.022460938 -209.98046875 l 2,18,19
 986.21875 -209.990234375 986.21875 -209.990234375 1077.46875 -146.684570312 c 128,-1,20
 1168.71875 -83.37890625 1168.71875 -83.37890625 1168.71875 44.416015625 c 2,21,-1
 1168.71875 56.22265625 l 2,22,23
 1168.80859375 81.41796875 1168.80859375 81.41796875 1162.1484375 88.0791015625 c 128,-1,24
 1155.48925781 94.740234375 1155.48925781 94.740234375 1130.29003906 94.740234375 c 2,25,-1
 938.946289062 94.7412109375 l 2,26,27
 838.70703125 94.890625 838.70703125 94.890625 782.236328125 149.27734375 c 128,-1,28
 725.765625 203.6640625 725.765625 203.6640625 725.765625 301.583007812 c 2,29,-1
 725.765625 367.397460938 l 2,30,31
 725.888671875 616.266601562 725.888671875 616.266601562 843.755859375 748.02734375 c 128,-1,32
 961.623046875 879.787109375 961.623046875 879.787109375 1188.51269531 879.901367188 c 2,33,-1
 1424.8125 880.01953125 l 1,34,-1
 1426.08007812 610.604492188 l 1,35,-1
 1147.2421875 610.604492188 l 2,36,37
 1067.27734375 610.764648438 1067.27734375 610.764648438 1027.14746094 556.086914062 c 128,-1,38
 987.017578125 501.409179688 987.017578125 501.409179688 984.514648438 373.22265625 c 2,39,-1
 984.126953125 353.370117188 l 1,40,-1
 1160.77441406 353.370117188 l 2,0,1
EndSplineSet
Substitution2: "'fina' Terminal Forms in Arabic lookup 9 subtable" uniFEF0
Substitution2: "'medi' Medial Forms in Arabic lookup 11 subtable" uniFBE9
Substitution2: "'init' Initial Forms in Arabic lookup 13 subtable" uniFBE8
EndChar

StartChar: uni064B
Encoding: 1611 1611 46
Width: 0
VWidth: 2186
GlyphClass: 4
Flags: W
AnchorPoint: "Anchor-10" 547.84 1041.5 mark 0
AnchorPoint: "Anchor-9" 547.84 1041.5 mark 0
AnchorPoint: "Anchor-1" 547.84 1576.5 basemark 0
AnchorPoint: "Anchor-1" 547.84 1041.5 mark 0
LayerCount: 2
Fore
SplineSet
271 970.660808568 m 1,0,-1
 271 1130.14229745 l 1,1,-1
 795 1344.40950393 l 1,2,-1
 795 1184.92801505 l 1,3,-1
 271 970.660808568 l 1,0,-1
271 1229.66080857 m 1,4,-1
 271 1389.14229745 l 1,5,-1
 795 1603.40950393 l 1,6,-1
 795 1443.92801505 l 1,7,-1
 271 1229.66080857 l 1,4,-1
EndSplineSet
EndChar

StartChar: uni064C
Encoding: 1612 1612 47
Width: 0
VWidth: 2186
GlyphClass: 4
Flags: W
AnchorPoint: "Anchor-10" 554.386 1155.44 mark 0
AnchorPoint: "Anchor-9" 554.386 1155.44 mark 0
AnchorPoint: "Anchor-1" 546.386 1810.94 basemark 0
AnchorPoint: "Anchor-1" 554.386 1155.44 mark 0
LayerCount: 2
Fore
SplineSet
556.773120018 1309.48494326 m 0,0,1
 595.031865613 1346.71037191 595.031865613 1346.71037191 617.263112758 1390.09403343 c 1,2,3
 599.372864237 1394.10780402 599.372864237 1394.10780402 585.478494622 1399.16457918 c 128,-1,4
 571.584125008 1404.22135435 571.584125008 1404.22135435 559.338233611 1411.14576614 c 0,5,6
 502.373845412 1441.21024618 502.373845412 1441.21024618 472.554922706 1482.3728837 c 128,-1,7
 442.736 1523.53552122 442.736 1523.53552122 442.736 1574.47 c 0,8,9
 442.736 1621.01504542 442.736 1621.01504542 461.5732648 1658.98278414 c 128,-1,10
 480.4105296 1696.95052286 480.4105296 1696.95052286 517.351314613 1724.78973661 c 0,11,12
 547.860251624 1747.67 547.860251624 1747.67 615.937 1747.67 c 0,13,14
 694.861902825 1747.67 694.861902825 1747.67 738.228157773 1705.38181019 c 0,15,16
 797.696 1647.00468424 797.696 1647.00468424 797.696 1561.63 c 0,17,18
 797.696 1521.16278712 797.696 1521.16278712 785.533386118 1481.10655416 c 1,19,20
 795.623260817 1480.60849016 795.623260817 1480.60849016 803.033899461 1480.396356 c 128,-1,21
 810.444538106 1480.18422185 810.444538106 1480.18422185 817.834922113 1480.16997212 c 0,22,-1
 818.610869113 1480.14839062 l 2,23,24
 831.735833639 1479.44311602 831.735833639 1479.44311602 846.08244292 1479.19780774 c 2,25,-1
 860.826 1478.94571217 l 1,26,-1
 860.826 1357.34498968 l 1,27,-1
 845.731290568 1357.440299 l 2,28,29
 805.434593043 1357.69473589 805.434593043 1357.69473589 786.914921263 1359.55178662 c 2,30,-1
 732.755953201 1364.75881984 l 1,31,32
 718.347745847 1331.54787027 718.347745847 1331.54787027 691.540073552 1294.89073936 c 128,-1,33
 664.732401257 1258.23360845 664.732401257 1258.23360845 624.860831176 1216.76884086 c 0,34,35
 533.30758644 1124.1400082 533.30758644 1124.1400082 431.911683806 1124.1400082 c 0,36,37
 359.663561363 1124.06446646 359.663561363 1124.06446646 313.015572016 1167.01877614 c 128,-1,38
 266.367582669 1209.97308582 266.367582669 1209.97308582 247.610773327 1291.92244782 c 0,39,40
 232.742333709 1352.27826323 232.742333709 1352.27826323 231.994514376 1442.57577836 c 2,41,-1
 231.869259707 1457.7 l 1,42,-1
 332.167144041 1457.7 l 1,43,-1
 332.29841535 1442.83243547 l 2,44,45
 332.999301948 1363.45121531 332.999301948 1363.45121531 345.623802785 1323.06539473 c 0,46,47
 369.986951111 1245.12760142 369.986951111 1245.12760142 431.809578374 1245.84 c 0,48,49
 491.006366117 1245.84 491.006366117 1245.84 556.773120018 1309.48494326 c 0,0,1
660.818541472 1500.94617695 m 1,50,-1
 666.52882455 1514.26878948 l 2,51,52
 675.996 1536.35886553 675.996 1536.35886553 675.996 1561.63 c 0,53,54
 675.996 1574.23142689 675.996 1574.23142689 673.795558522 1584.07604309 c 128,-1,55
 671.595117045 1593.92065928 671.595117045 1593.92065928 667.816447751 1600.41598121 c 128,-1,56
 664.037778458 1606.91130313 664.037778458 1606.91130313 658.532715168 1611.44242694 c 0,57,58
 656.243894727 1613.32789398 656.243894727 1613.32789398 653.945894008 1614.95540593 c 128,-1,59
 651.647893289 1616.58291789 651.647893289 1616.58291789 649.330742327 1617.95724666 c 128,-1,60
 647.013591365 1619.33157543 647.013591365 1619.33157543 644.677753752 1620.46063612 c 128,-1,61
 642.341916139 1621.58969682 642.341916139 1621.58969682 639.963393378 1622.47945469 c 128,-1,62
 637.584870616 1623.36921256 637.584870616 1623.36921256 635.179090067 1624.02630982 c 128,-1,63
 632.773309517 1624.68340709 632.773309517 1624.68340709 630.301308914 1625.11508189 c 128,-1,64
 627.829308311 1625.54675669 627.829308311 1625.54675669 625.321478781 1625.75837835 c 128,-1,65
 622.813649252 1625.97 622.813649252 1625.97 620.217 1625.97 c 0,66,67
 596.921788944 1625.97 596.921788944 1625.97 584.982037896 1616.71053997 c 0,68,69
 566.576 1602.85620716 566.576 1602.85620716 566.576 1574.47 c 0,70,71
 566.576 1555.14289835 566.576 1555.14289835 577.575303245 1541.28914025 c 128,-1,72
 588.57460649 1527.43538215 588.57460649 1527.43538215 613.46776389 1517.47758882 c 0,73,74
 623.424599818 1513.49576354 623.424599818 1513.49576354 635.80146612 1509.18194265 c 128,-1,75
 648.178332421 1504.86812176 648.178332421 1504.86812176 660.818541472 1500.94617695 c 1,50,-1
EndSplineSet
EndChar

StartChar: uni064D
Encoding: 1613 1613 48
Width: 0
VWidth: 2186
GlyphClass: 4
Flags: W
AnchorPoint: "Anchor-7" 531.84 75.5 mark 0
AnchorPoint: "Anchor-6" 531.84 75.5 mark 0
AnchorPoint: "Anchor-0" 547.84 -439.5 basemark 0
AnchorPoint: "Anchor-0" 531.84 75.5 mark 0
LayerCount: 2
Fore
SplineSet
276 -519.339191432 m 1,0,-1
 276 -359.857702546 l 1,1,-1
 800 -145.590496068 l 1,2,-1
 800 -305.071984954 l 1,3,-1
 276 -519.339191432 l 1,0,-1
276 -260.339191432 m 1,4,-1
 276 -100.857702546 l 1,5,-1
 800 113.409503932 l 1,6,-1
 800 -46.0719849545 l 1,7,-1
 276 -260.339191432 l 1,4,-1
EndSplineSet
EndChar

StartChar: uni064E
Encoding: 1614 1614 49
Width: 0
VWidth: 2186
GlyphClass: 4
Flags: W
AnchorPoint: "Anchor-10" 517.84 1279.5 mark 0
AnchorPoint: "Anchor-9" 517.84 1279.5 mark 0
AnchorPoint: "Anchor-1" 517.84 1600.5 basemark 0
AnchorPoint: "Anchor-1" 517.84 1279.5 mark 0
LayerCount: 2
Fore
SplineSet
242 1228.66080857 m 1,0,-1
 242 1388.14229745 l 1,1,-1
 766 1602.40950393 l 1,2,-1
 766 1442.92801505 l 1,3,-1
 242 1228.66080857 l 1,0,-1
EndSplineSet
EndChar

StartChar: uni064F
Encoding: 1615 1615 50
Width: 0
VWidth: 2186
GlyphClass: 4
Flags: W
AnchorPoint: "Anchor-10" 531.84 1205.5 mark 0
AnchorPoint: "Anchor-9" 531.84 1205.5 mark 0
AnchorPoint: "Anchor-1" 547.84 1825 basemark 0
AnchorPoint: "Anchor-1" 531.84 1205.5 mark 0
LayerCount: 2
Fore
SplineSet
561.843413998 1424.70503489 m 0,0,1
 443.981846826 1475.10843101 443.981846826 1475.10843101 444.19 1588.53 c 0,2,3
 444.19 1619.52104692 444.19 1619.52104692 452.570023096 1646.79383115 c 128,-1,4
 460.950046192 1674.06661539 460.950046192 1674.06661539 477.576305112 1697.18764707 c 128,-1,5
 494.202564032 1720.30867875 494.202564032 1720.30867875 518.805314613 1738.84973661 c 0,6,7
 534.917130208 1750.93283818 534.917130208 1750.93283818 559.312611734 1756.33141909 c 128,-1,8
 583.70809326 1761.73 583.70809326 1761.73 617.39 1761.73 c 0,9,10
 643.140122588 1761.73 643.140122588 1761.73 665.225932061 1757.19655646 c 128,-1,11
 687.311741535 1752.66311291 687.311741535 1752.66311291 706.169054082 1743.19800592 c 128,-1,12
 725.02636663 1733.73289892 725.02636663 1733.73289892 739.682089141 1719.44187756 c 0,13,14
 799.15 1661.06468424 799.15 1661.06468424 799.15 1575.69 c 0,15,16
 799.15 1542.41827314 799.15 1542.41827314 784.834559205 1495.14749697 c 1,17,18
 802.014933701 1494.18456075 802.014933701 1494.18456075 819.675185126 1493.69422522 c 0,19,20
 826.082106793 1493.51639239 826.082106793 1493.51639239 833.016877359 1493.39512454 c 128,-1,21
 839.951647925 1493.27385669 839.951647925 1493.27385669 847.409554665 1493.20944051 c 2,22,-1
 862.28 1493.08100001 l 1,23,-1
 862.28 1371.37048835 l 1,24,-1
 847.121336436 1371.53083916 l 2,25,26
 816.48237826 1371.85494305 816.48237826 1371.85494305 788.48769687 1373.60118414 c 0,27,28
 757.3551286 1375.68287839 757.3551286 1375.68287839 727.489030539 1378.84007522 c 1,29,30
 680.982535195 1313.61198739 680.982535195 1313.61198739 607.707953526 1269.01451949 c 0,31,32
 403.327017015 1143.33584691 403.327017015 1143.33584691 249.354513818 1137.38490237 c 2,33,-1
 233.4 1136.80055422 l 1,34,-1
 233.4 1258.58202041 l 1,35,-1
 247.965917412 1259.00371776 l 2,36,37
 403.301017276 1263.50081869 403.301017276 1263.50081869 545.535723047 1375.03206392 c 0,38,39
 553.24447874 1381.06569037 553.24447874 1381.06569037 561.080317768 1387.83625251 c 128,-1,40
 568.916156796 1394.60681464 568.916156796 1394.60681464 575.945929467 1401.25116785 c 128,-1,41
 582.975702139 1407.89552105 582.975702139 1407.89552105 589.041131908 1414.21461251 c 1,42,43
 581.639381476 1416.74941128 581.639381476 1416.74941128 575.506264313 1419.12199364 c 128,-1,44
 569.373147149 1421.494576 569.373147149 1421.494576 561.843413998 1424.70503489 c 0,0,1
662.272534412 1515.00616048 m 1,45,-1
 667.98282455 1528.32878948 l 2,46,47
 677.45 1550.41886553 677.45 1550.41886553 677.45 1575.69 c 0,48,49
 677.45 1611.12869472 677.45 1611.12869472 659.986715168 1625.50242694 c 128,-1,50
 642.351293606 1640.03 642.351293606 1640.03 621.67 1640.03 c 0,51,52
 598.375788944 1640.03 598.375788944 1640.03 586.436037896 1630.77053997 c 0,53,54
 568.03 1616.91620716 568.03 1616.91620716 568.03 1588.53 c 0,55,56
 568.03 1550.29529347 568.03 1550.29529347 614.92198311 1531.53750115 c 0,57,58
 635.444838257 1523.3298582 635.444838257 1523.3298582 662.272534412 1515.00616048 c 1,45,-1
EndSplineSet
EndChar

StartChar: uni0650
Encoding: 1616 1616 51
Width: 0
VWidth: 2186
GlyphClass: 4
Flags: W
AnchorPoint: "Anchor-7" 509.84 -12.5 mark 0
AnchorPoint: "Anchor-6" 509.84 -12.5 mark 0
AnchorPoint: "Anchor-0" 556.84 -311.5 basemark 0
AnchorPoint: "Anchor-0" 509.84 -12.5 mark 0
LayerCount: 2
Fore
SplineSet
286 -365.339191432 m 1,0,-1
 286 -205.857702546 l 1,1,-1
 810 8.4095039322 l 1,2,-1
 810 -151.071984954 l 1,3,-1
 286 -365.339191432 l 1,0,-1
EndSplineSet
EndChar

StartChar: uni0651
Encoding: 1617 1617 52
Width: 0
VWidth: 2186
GlyphClass: 4
Flags: W
AnchorPoint: "Anchor-10" 547.84 1316.5 mark 0
AnchorPoint: "Anchor-9" 547.84 1316.5 mark 0
AnchorPoint: "Anchor-1" 535.84 1818.5 basemark 0
AnchorPoint: "Anchor-1" 547.84 1316.5 mark 0
LayerCount: 2
Fore
SplineSet
408.853054278 1274.38976463 m 0,0,1
 318.030214121 1274.17499998 318.030214121 1274.17499998 270.784610733 1327.19745503 c 128,-1,2
 223.539007345 1380.21991009 223.539007345 1380.21991009 223.000285947 1480.96336487 c 2,3,-1
 222.114764888 1646.56 l 1,4,-1
 340.538703774 1646.56 l 1,5,-1
 342.138645122 1480.08997721 l 2,6,7
 342.491669503 1444.84724472 342.491669503 1444.84724472 358.168851762 1429.15462528 c 128,-1,8
 373.846034022 1413.46200583 373.846034022 1413.46200583 408.955213198 1413.08974468 c 0,9,10
 428.123274873 1413.0718357 428.123274873 1413.0718357 442.117214539 1418.84203972 c 128,-1,11
 456.111154204 1424.61224373 456.111154204 1424.61224373 465.986283785 1437.15933886 c 128,-1,12
 475.861413366 1449.706434 475.861413366 1449.706434 480.876860778 1469.97939088 c 128,-1,13
 485.89230819 1490.25234777 485.89230819 1490.25234777 486.267728817 1518.80296328 c 2,14,-1
 488.661257047 1700.83 l 1,15,-1
 605.764780276 1700.83 l 1,16,-1
 608.336737676 1527.88437984 l 2,17,18
 608.999732181 1493.72729295 608.999732181 1493.72729295 628.165013019 1477.88916956 c 128,-1,19
 647.330293858 1462.05104617 647.330293858 1462.05104617 690.862259799 1462.08983119 c 0,20,21
 720.558894257 1462.05654711 720.558894257 1462.05654711 736.196089642 1486.89920349 c 128,-1,22
 751.833285026 1511.74185988 751.833285026 1511.74185988 752.541552787 1569.30563276 c 2,23,-1
 754.766051612 1750.09960938 l 1,24,-1
 877.96109511 1750.09960938 l 1,25,-1
 875.678267597 1570.63180208 l 2,26,27
 874.262285474 1451.80747426 874.262285474 1451.80747426 828.106633156 1388.93304448 c 128,-1,28
 781.950980839 1326.05861471 781.950980839 1326.05861471 692.010414636 1326.13280869 c 0,29,30
 651.074298497 1326.07844042 651.074298497 1326.07844042 618.790403996 1336.559603 c 128,-1,31
 586.506509495 1347.04076558 586.506509495 1347.04076558 563.304518715 1368.38635843 c 1,32,33
 544.614224043 1321.95040582 544.614224043 1321.95040582 505.274943486 1298.31032245 c 128,-1,34
 465.935662929 1274.67023908 465.935662929 1274.67023908 408.853054278 1274.38976463 c 0,0,1
EndSplineSet
EndChar

StartChar: uni0652
Encoding: 1618 1618 53
Width: 0
VWidth: 2186
GlyphClass: 4
Flags: W
AnchorPoint: "Anchor-10" 565.84 1128.5 mark 0
AnchorPoint: "Anchor-9" 565.84 1128.5 mark 0
AnchorPoint: "Anchor-1" 551.84 1702 basemark 0
AnchorPoint: "Anchor-1" 565.84 1128.5 mark 0
LayerCount: 2
Fore
SplineSet
659.569 1383.62 m 0,0,1
 659.569 1421.93679659 659.569 1421.93679659 632.83188719 1448.6739094 c 128,-1,2
 606.098373148 1475.41 606.098373148 1475.41 567.126 1475.41 c 0,3,4
 556.977484735 1475.41 556.977484735 1475.41 547.891557416 1473.78427943 c 128,-1,5
 538.805630098 1472.15855886 538.805630098 1472.15855886 530.611022653 1468.85719166 c 128,-1,6
 522.416415208 1465.55582446 522.416415208 1465.55582446 515.095485186 1460.62108809 c 128,-1,7
 507.774555165 1455.68635173 507.774555165 1455.68635173 501.091601718 1449.00339828 c 0,8,9
 492.161352306 1440.07314887 492.161352306 1440.07314887 486.32687578 1430.02966768 c 128,-1,10
 480.492399255 1419.98618649 480.492399255 1419.98618649 477.588699628 1408.44424224 c 128,-1,11
 474.685 1396.90229798 474.685 1396.90229798 474.685 1383.62 c 0,12,13
 474.685 1375.49880899 474.685 1375.49880899 475.730239316 1368.06068833 c 128,-1,14
 476.775478632 1360.62256766 476.775478632 1360.62256766 478.866292082 1353.80086747 c 128,-1,15
 480.957105532 1346.97916728 480.957105532 1346.97916728 484.132411538 1340.69943213 c 128,-1,16
 487.307717544 1334.41969699 487.307717544 1334.41969699 491.52776367 1328.67504532 c 128,-1,17
 495.747809796 1322.93039364 495.747809796 1322.93039364 501.091601718 1317.58660172 c 0,18,19
 514.456253909 1304.22194953 514.456253909 1304.22194953 530.68325127 1297.70097476 c 128,-1,20
 546.910248631 1291.18 546.910248631 1291.18 567.126 1291.18 c 0,21,22
 580.392652403 1291.18 580.392652403 1291.18 591.957967711 1294.1120701 c 128,-1,23
 603.523283019 1297.04414021 603.523283019 1297.04414021 613.652408198 1302.95421153 c 128,-1,24
 623.781533376 1308.86428286 623.781533376 1308.86428286 632.832398282 1317.91660172 c 0,25,26
 659.569 1344.65320344 659.569 1344.65320344 659.569 1383.62 c 0,0,1
765.396 1383.73 m 0,27,28
 765.396 1356.31337281 765.396 1356.31337281 758.971867048 1331.36807504 c 128,-1,29
 752.547734096 1306.42277727 752.547734096 1306.42277727 739.7543418 1284.21818183 c 128,-1,30
 726.960949503 1262.01358639 726.960949503 1262.01358639 707.955730472 1242.88663084 c 0,31,32
 650.499709077 1185.07 650.499709077 1185.07 567.436 1185.07 c 128,-1,33
 484.372208032 1185.07 484.372208032 1185.07 426.916690644 1242.88721339 c 0,34,35
 398.393228402 1271.59283975 398.393228402 1271.59283975 383.934614201 1307.07635105 c 128,-1,36
 369.476 1342.55986236 369.476 1342.55986236 369.476 1383.73 c 0,37,38
 369.476 1411.14187582 369.476 1411.14187582 375.89987994 1436.04769365 c 128,-1,39
 382.32375988 1460.95351149 382.32375988 1460.95351149 395.121322245 1483.08768744 c 128,-1,40
 407.918884611 1505.2218634 407.918884611 1505.2218634 426.930298333 1524.23650177 c 0,41,42
 484.382713763 1581.69 484.382713763 1581.69 567.436 1581.69 c 128,-1,43
 650.489286177 1581.69 650.489286177 1581.69 707.942501129 1524.23570223 c 0,44,45
 736.473572359 1495.69979167 736.473572359 1495.69979167 750.934786179 1460.29739856 c 128,-1,46
 765.396 1424.89500546 765.396 1424.89500546 765.396 1383.73 c 0,27,28
EndSplineSet
EndChar

StartChar: uni0653
Encoding: 1619 1619 54
Width: 11
VWidth: 2553
GlyphClass: 4
Flags: W
AnchorPoint: "Anchor-10" 404.334 1442.64 mark 0
AnchorPoint: "Anchor-9" 404.334 1442.64 mark 0
AnchorPoint: "Anchor-1" 397.691 1800.13 basemark 0
AnchorPoint: "Anchor-1" 404.334 1442.64 mark 0
LayerCount: 2
Fore
SplineSet
305.551907958 1701.04003906 m 2,0,-1
 724.852641844 1701.04003906 l 1,1,-1
 726.668390606 1519.54003906 l 1,2,-1
 318.125373324 1519.54003906 l 2,3,4
 277.162569213 1519.75134942 277.162569213 1519.75134942 242.352007848 1500.98599426 c 128,-1,5
 207.541446483 1482.2206391 207.541446483 1482.2206391 177.61882797 1443.22668752 c 2,6,-1
 146.423245411 1402.57386046 l 1,7,-1
 24.7560898501 1540.04663454 l 1,8,-1
 42.5039276555 1567.07884218 l 2,9,10
 71.850423083 1611.52436429 71.850423083 1611.52436429 111.23264149 1641.36958107 c 128,-1,11
 150.614859898 1671.21479784 150.614859898 1671.21479784 199.277060376 1686.12049349 c 128,-1,12
 247.939260854 1701.02618914 247.939260854 1701.02618914 305.551907958 1701.04003906 c 2,0,-1
EndSplineSet
EndChar

StartChar: uni0657
Encoding: 1623 1623 57
Width: 11
VWidth: 2553
GlyphClass: 4
Flags: W
AnchorPoint: "Anchor-10" 648 1490.29 mark 0
AnchorPoint: "Anchor-9" 648 1490.29 mark 0
AnchorPoint: "Anchor-1" 648 2306.6 basemark 0
AnchorPoint: "Anchor-1" 648 1490.29 mark 0
LayerCount: 2
Fore
SplineSet
291.93359375 2007.97115093 m 1,0,-1
 443.225964296 1997.41132331 l 1,1,2
 503.121761897 2079.72521763 503.121761897 2079.72521763 584.53337713 2129.27595052 c 0,3,4
 698.165036541 2199.14958899 698.165036541 2199.14958899 798.938001501 2237.22756857 c 128,-1,5
 899.710966461 2275.30554815 899.710966461 2275.30554815 988.044706553 2281.33625762 c 2,6,-1
 1004.06640625 2282.43008899 l 1,7,-1
 1004.06640625 2165.50416075 l 1,8,-1
 989.891884388 2164.72292634 l 2,9,10
 806.541000201 2154.61746941 806.541000201 2154.61746941 642.696263449 2026.14265694 c 0,11,12
 613.200516378 2003.0532131 613.200516378 2003.0532131 588.792726095 1977.3726646 c 2,13,-1
 575.834319682 1963.7302736 l 1,14,-1
 594.193942143 1959.64594183 l 2,15,16
 600.95922918 1958.14512724 600.95922918 1958.14512724 611.594695956 1953.07509079 c 128,-1,17
 622.230162731 1948.00505434 622.230162731 1948.00505434 646.865251953 1935.18185137 c 0,18,19
 691.02394478 1912.19610627 691.02394478 1912.19610627 723.441429368 1867.70657245 c 0,20,21
 756.662109375 1822.11473872 756.662109375 1822.11473872 756.662109375 1767.10302734 c 0,22,23
 756.662109375 1713.46116945 756.662109375 1713.46116945 740.806221057 1681.49103185 c 0,24,25
 688.008919668 1575.03613281 688.008919668 1575.03613281 560.003986708 1575.03613281 c 0,26,27
 496.598915266 1575.03613281 496.598915266 1575.03613281 451.555652566 1605.00046806 c 128,-1,28
 406.512389866 1634.96480331 406.512389866 1634.96480331 382.453702642 1693.20074807 c 0,29,30
 366.028320312 1732.96271625 366.028320312 1732.96271625 366.028320312 1776.31761495 c 0,31,32
 366.028320312 1783.53961396 366.028320312 1783.53961396 366.511804305 1791.08122284 c 128,-1,33
 366.995288299 1798.62283173 366.995288299 1798.62283173 367.958940523 1806.44927786 c 128,-1,34
 368.922592747 1814.27572398 368.922592747 1814.27572398 370.352919802 1822.3996916 c 128,-1,35
 371.783246858 1830.52365923 371.783246858 1830.52365923 373.689176622 1838.97217937 c 128,-1,36
 375.595106385 1847.42069952 375.595106385 1847.42069952 377.950085576 1856.14053253 c 128,-1,37
 380.305064767 1864.86036554 380.305064767 1864.86036554 383.130264901 1873.94034612 c 2,38,-1
 387.170426152 1886.92666557 l 1,39,-1
 373.587337094 1887.72898623 l 2,40,41
 343.415188082 1889.50302192 343.415188082 1889.50302192 306.695528497 1890.08587367 c 2,42,-1
 291.93359375 1890.3201901 l 1,43,-1
 291.93359375 2007.97115093 l 1,0,-1
506.352997261 1867.47919396 m 1,44,-1
 495.046578455 1841.10175862 l 2,45,46
 482.884765625 1812.74194463 482.884765625 1812.74194463 482.884765625 1770.71402496 c 0,47,48
 482.884765625 1732.68359241 482.884765625 1732.68359241 506.992113341 1712.82720432 c 0,49,50
 519.923260849 1702.1762656 519.923260849 1702.1762656 533.394633374 1697.03442186 c 128,-1,51
 546.8660059 1691.89257812 546.8660059 1691.89257812 561.129440024 1691.89257812 c 0,52,53
 592.86649204 1692.80377383 592.86649204 1692.80377383 610.292027343 1704.76700544 c 128,-1,54
 627.717562645 1716.73023705 627.717562645 1716.73023705 634.239039163 1740.75598169 c 0,55,56
 635.018550756 1743.62666872 635.018550756 1743.62666872 635.598833834 1746.39306993 c 128,-1,57
 636.179116912 1749.15947114 636.179116912 1749.15947114 636.552717796 1751.77070292 c 128,-1,58
 636.92631868 1754.3819347 636.92631868 1754.3819347 637.110131996 1756.84517591 c 128,-1,59
 637.293945312 1759.30841713 637.293945312 1759.30841713 637.293945312 1761.6640625 c 0,60,61
 637.293945312 1827.21284431 637.293945312 1827.21284431 515.499164071 1864.66314908 c 2,62,-1
 506.352997261 1867.47919396 l 1,44,-1
EndSplineSet
EndChar

StartChar: uni065A
Encoding: 1626 1626 58
Width: 1295
VWidth: 2553
GlyphClass: 4
Flags: W
AnchorPoint: "Anchor-10" 648 1490.29 mark 0
AnchorPoint: "Anchor-9" 648 1490.29 mark 0
AnchorPoint: "Anchor-1" 645.488 2055.43 basemark 0
AnchorPoint: "Anchor-1" 648 1490.29 mark 0
LayerCount: 2
Fore
SplineSet
561.101121571 1578.80273438 m 1,0,-1
 328.943548807 1966.92480469 l 1,1,-1
 479.041493773 1966.92480469 l 1,2,-1
 647.9998967 1713.48347123 l 1,3,-1
 816.955502828 1966.92480469 l 1,4,-1
 967.055660333 1966.92480469 l 1,5,-1
 734.89491246 1578.80273438 l 1,6,-1
 561.101121571 1578.80273438 l 1,0,-1
EndSplineSet
EndChar

StartChar: afii57392
Encoding: 1632 1632 59
Width: 1076
VWidth: 2593
GlyphClass: 2
Flags: W
LayerCount: 2
Fore
SplineSet
456.86328125 496.818359375 m 0,0,1
 471.16015625 468.974609375 471.16015625 468.974609375 490.360351562 457.157226562 c 128,-1,2
 509.559570312 445.33984375 509.559570312 445.33984375 540.181640625 445.33984375 c 0,3,4
 578.423828125 445.33984375 578.423828125 445.33984375 605.688476562 472.76171875 c 128,-1,5
 633.083007812 500.313476562 633.083007812 500.313476562 633.083007812 539.098632812 c 0,6,7
 633.083007812 545.908203125 633.083007812 545.908203125 632.385742188 552.078125 c 128,-1,8
 631.690429688 558.249023438 631.690429688 558.249023438 630.233398438 564.05078125 c 128,-1,9
 628.77734375 569.852539062 628.77734375 569.852539062 626.5703125 575.19921875 c 128,-1,10
 624.362304688 580.546875 624.362304688 580.546875 621.299804688 585.692382812 c 128,-1,11
 618.237304688 590.836914062 618.237304688 590.836914062 614.370117188 595.71484375 c 128,-1,12
 610.50390625 600.592773438 610.50390625 600.592773438 605.689453125 605.436523438 c 0,13,14
 591.360351562 619.850585938 591.360351562 619.850585938 575.7890625 626.354492188 c 128,-1,15
 560.21875 632.859375 560.21875 632.859375 540.181640625 632.859375 c 0,16,17
 501.939453125 632.859375 501.939453125 632.859375 474.67578125 605.4375 c 128,-1,18
 447.279296875 577.87890625 447.279296875 577.87890625 447.279296875 536.223632812 c 0,19,20
 447.279296875 515.479492188 447.279296875 515.479492188 456.86328125 496.818359375 c 0,0,1
245.1015625 390.94921875 m 0,21,22
 210.337890625 458.654296875 210.337890625 458.654296875 210.337890625 534.272460938 c 0,23,24
 210.337890625 562.193359375 210.337890625 562.193359375 214.212890625 588.69921875 c 128,-1,25
 218.088867188 615.205078125 218.088867188 615.205078125 225.833984375 640.115234375 c 128,-1,26
 233.579101562 665.026367188 233.579101562 665.026367188 245.095703125 688.153320312 c 128,-1,27
 256.612304688 711.279296875 256.612304688 711.279296875 271.993164062 732.59375 c 128,-1,28
 287.374023438 753.908203125 287.374023438 753.908203125 306.422851562 773.069335938 c 0,29,30
 353.861328125 820.783203125 353.861328125 820.783203125 412.478515625 845.26953125 c 128,-1,31
 471.095703125 869.756835938 471.095703125 869.756835938 538 869.756835938 c 0,32,33
 560.278320312 869.756835938 560.278320312 869.756835938 581.750976562 867.008789062 c 128,-1,34
 603.223632812 864.260742188 603.223632812 864.260742188 623.657226562 858.823242188 c 128,-1,35
 644.08984375 853.384765625 644.08984375 853.384765625 663.547851562 845.2578125 c 128,-1,36
 683.005859375 837.130859375 683.005859375 837.130859375 701.276367188 826.401367188 c 128,-1,37
 719.545898438 815.670898438 719.545898438 815.670898438 736.669921875 802.30859375 c 128,-1,38
 753.793945312 788.946289062 753.793945312 788.946289062 769.581054688 773.067382812 c 0,39,40
 817.026367188 725.338867188 817.026367188 725.338867188 841.344726562 666.431640625 c 128,-1,41
 865.662109375 607.5234375 865.662109375 607.5234375 865.662109375 540.294921875 c 0,42,43
 865.662109375 513.438476562 865.662109375 513.438476562 861.747070312 487.778320312 c 128,-1,44
 857.83203125 462.119140625 857.83203125 462.119140625 850.0546875 437.940429688 c 128,-1,45
 842.27734375 413.762695312 842.27734375 413.762695312 830.732421875 391.133789062 c 128,-1,46
 819.186523438 368.504882812 819.186523438 368.504882812 803.857421875 347.54296875 c 128,-1,47
 788.52734375 326.581054688 788.52734375 326.581054688 769.577148438 307.521484375 c 0,48,49
 722.138671875 259.80859375 722.138671875 259.80859375 663.521484375 235.321289062 c 128,-1,50
 604.904296875 210.834960938 604.904296875 210.834960938 538 210.834960938 c 0,51,52
 472.637695312 210.834960938 472.637695312 210.834960938 417.319335938 231.3671875 c 128,-1,53
 362.001953125 251.900390625 362.001953125 251.900390625 318.602539062 292.111328125 c 128,-1,54
 275.203125 332.323242188 275.203125 332.323242188 245.1015625 390.94921875 c 0,21,22
EndSplineSet
EndChar

StartChar: afii57393
Encoding: 1633 1633 60
Width: 792
VWidth: 2553
GlyphClass: 2
Flags: W
LayerCount: 2
Fore
SplineSet
551.890625 3.9091796875 m 1,0,-1
 297.008789062 3.9091796875 l 1,1,-1
 296.869140625 43.7685546875 l 2,2,3
 293.997070312 765.80078125 293.997070312 765.80078125 148.8984375 1219.82421875 c 6,4,-1
 136.407226562 1258.91015625 l 5,5,-1
 381.361328125 1330.35546875 l 5,6,-1
 393.143554688 1293.04492188 l 6,7,8
 472 1042 472 1042 511.905273438 752.708984375 c 0,9,10
 551.423828125 459.861328125 551.423828125 459.861328125 551.849609375 43.9501953125 c 2,11,-1
 551.890625 3.9091796875 l 1,0,-1
EndSplineSet
EndChar

StartChar: afii57394
Encoding: 1634 1634 61
Width: 1178
VWidth: 2553
GlyphClass: 2
Flags: W
LayerCount: 2
Fore
SplineSet
538.8515625 51.9873046875 m 2,0,-1
 538.927734375 3.9091796875 l 1,1,-1
 284.1875 3.9091796875 l 1,2,-1
 284.076171875 51.7705078125 l 2,3,4
 283.001953125 636.169921875 283.001953125 636.169921875 144.981445312 1220.26757812 c 6,5,-1
 136.380859375 1256.66503906 l 5,6,-1
 380.52734375 1331.96679688 l 5,7,-1
 434.072265625 1094.11425781 l 6,8,9
 449 1026 449 1026 478.048828125 984.017578125 c 4,10,11
 507 941 507 941 550.50390625 921.1171875 c 4,12,13
 594 901 594 901 655.52734375 900.381835938 c 4,14,15
 741 900 741 900 780.497070312 941.745117188 c 4,16,17
 820 984 820 984 823.649414062 1081.64746094 c 4,18,19
 826.9921875 1173.79199219 826.9921875 1173.79199219 824.236328125 1290.74511719 c 6,20,-1
 823.271484375 1331.6875 l 5,21,-1
 1066.86230469 1331.6875 l 5,22,-1
 1067.56640625 1292.40527344 l 6,23,24
 1068 1242 1068 1242 1068.61132812 1199.44238281 c 4,25,26
 1069 1157 1069 1157 1068.1015625 1119.48828125 c 4,27,28
 1067 1082 1067 1082 1065.94921875 1051.71582031 c 4,29,30
 1064 1021 1064 1021 1062.04003906 996.3046875 c 4,31,32
 1060 971 1060 971 1056.28613281 952.430664062 c 4,33,34
 1038 850 1038 850 985.333984375 779.3203125 c 4,35,36
 933 709 933 709 850.028320312 673.228515625 c 4,37,38
 767 638 767 638 656.465820312 637.407226562 c 4,39,40
 630 637 630 637 604.315429688 640.462890625 c 4,41,42
 579 644 579 644 554.848632812 649.846679688 c 4,43,44
 531 656 531 656 509.846679688 665.1953125 c 5,45,46
 538 395 538 395 538.8515625 51.9873046875 c 2,0,-1
EndSplineSet
EndChar

StartChar: afii57395
Encoding: 1635 1635 62
Width: 1455
VWidth: 2553
GlyphClass: 2
Flags: W
LayerCount: 2
Fore
SplineSet
434.06640625 1094.14160156 m 2,0,1
 477.833007812 899.728515625 477.833007812 899.728515625 597.890625 903.143554688 c 0,2,3
 618 904 618 904 636.5 915.5 c 4,4,5
 676.236328125 940.146484375 676.236328125 940.146484375 676.405273438 1044.49414062 c 6,6,-1
 676.870117188 1331 l 5,7,-1
 914.186523438 1331 l 5,8,-1
 913.4140625 1034.36035156 l 6,9,10
 913 961 913 961 937.5 931.920898438 c 132,-1,11
 962 903 962 903 1009.5 903 c 132,-1,12
 1057 903 1057 903 1080.30273438 929.22265625 c 0,13,14
 1103.60742188 954.573242188 1103.60742188 954.573242188 1103.40429688 1028.63867188 c 2,15,-1
 1102.57519531 1330.45996094 l 1,16,-1
 1353.88085938 1330.45996094 l 1,17,-1
 1355.00683594 1105.27246094 l 2,18,19
 1356 886 1356 886 1275.97070312 766.575195312 c 128,-1,20
 1196 647 1196 647 1036.5 647 c 128,-1,21
 877 647 877 647 798.768554688 736.706054688 c 5,22,23
 704 625 704 625 546.483398438 656.94140625 c 0,24,25
 527 661 527 661 509.612304688 667.409179688 c 1,26,27
 538.314453125 390.971679688 538.314453125 390.971679688 538.8515625 51.9853515625 c 2,28,-1
 538.927734375 3.9091796875 l 1,29,-1
 284.1875 3.9091796875 l 1,30,-1
 284.076171875 51.798828125 l 2,31,32
 283.002929688 634.3125 283.002929688 634.3125 144.974609375 1220.29296875 c 2,33,-1
 136.405273438 1256.67285156 l 1,34,-1
 380.52734375 1331.96679688 l 1,35,-1
 434.06640625 1094.14160156 l 2,0,1
EndSplineSet
EndChar

StartChar: afii57396
Encoding: 1636 1636 63
Width: 1027
VWidth: 2593
GlyphClass: 2
Flags: W
LayerCount: 2
Fore
SplineSet
131.399414062 345.736328125 m 0,0,1
 166 503 166 503 350.204101562 675.54296875 c 1,2,3
 246.6015625 736.868164062 246.6015625 736.868164062 168.438476562 827.482421875 c 0,4,5
 126 876 126 876 141.323242188 928.37890625 c 4,6,7
 221.854492188 1199.51074219 221.854492188 1199.51074219 626.611328125 1346.82714844 c 6,8,-1
 666.072265625 1361.18945312 l 5,9,-1
 678.500976562 1321.07714844 l 6,10,11
 693.490234375 1273.61523438 693.490234375 1273.61523438 704.741210938 1113.63671875 c 6,12,-1
 706.841796875 1083.76953125 l 5,13,-1
 678.776367188 1073.33789062 l 6,14,15
 520 1014 520 1014 455.7578125 962.838867188 c 4,16,17
 446 955 446 955 432.788085938 944.723632812 c 4,18,19
 420 934 420 934 409.061523438 920.403320312 c 5,20,21
 413 917 413 917 418.758789062 913.01953125 c 4,22,23
 482.114257812 871.579101562 482.114257812 871.579101562 738.920898438 820.802734375 c 2,24,-1
 773.918945312 813.8828125 l 1,25,-1
 771.03125 778.32421875 l 2,26,27
 770.982421875 777.677734375 770.982421875 777.677734375 761.365234375 659.39453125 c 2,28,-1
 759.666015625 638.49609375 l 1,29,-1
 741.512695312 628.004882812 l 2,30,31
 494 485 494 485 408.305664062 387.783203125 c 0,32,33
 405 384 405 384 403 380 c 128,-1,34
 401 376 401 376 399 373.5 c 128,-1,35
 397 371 397 371 399 368.5 c 128,-1,36
 401 366 401 366 415.009765625 362.020507812 c 0,37,38
 580.485351562 310.849609375 580.485351562 310.849609375 834.48046875 333.98828125 c 2,39,-1
 872.67578125 337.467773438 l 1,40,-1
 911.754882812 45.103515625 l 1,41,-1
 869.130859375 42.2373046875 l 2,42,43
 426.326171875 12.158203125 426.326171875 12.158203125 177.346679688 170.66796875 c 0,44,45
 103 218 103 218 131.399414062 345.736328125 c 0,0,1
EndSplineSet
EndChar

StartChar: afii57397
Encoding: 1637 1637 64
Width: 1338
VWidth: 2593
GlyphClass: 2
Flags: W
LayerCount: 2
Fore
SplineSet
656.90234375 920.498046875 m 5,0,1
 479 764 479 764 414.9296875 574.555664062 c 4,2,3
 394 513 394 513 393.795898438 472.78515625 c 4,4,5
 393 269 393 269 645.521484375 268.46875 c 0,6,7
 768 268 768 268 827.559570312 293.712890625 c 0,8,9
 978 359 978 359 906.751953125 572.551757812 c 4,10,11
 851 739 851 739 656.90234375 920.498046875 c 5,0,1
390.169921875 1105.07128906 m 5,12,-1
 544.373046875 1327.69140625 l 5,13,-1
 576.87109375 1306.83789062 l 6,14,15
 1222 893 1222 893 1224.625 412.1953125 c 4,16,17
 1226 222 1226 222 1031.58789062 92.1220703125 c 0,18,19
 892 -2 892 -2 685.022460938 -1.3291015625 c 0,20,21
 385 -1 385 -1 241.37109375 150.69140625 c 0,22,23
 101 299 101 299 128.893554688 513.275390625 c 4,24,25
 149 671 149 671 248.520507812 826.798828125 c 4,26,27
 345 977 345 977 445.443359375 1074.36425781 c 5,28,-1
 390.169921875 1105.07128906 l 5,12,-1
EndSplineSet
EndChar

StartChar: afii57398
Encoding: 1638 1638 65
Width: 1360
VWidth: 2553
GlyphClass: 2
Flags: W
LayerCount: 2
Fore
SplineSet
161.435546875 1318.875 m 6,0,1
 376.02734375 1264 376.02734375 1264 591.359375 1263.6796875 c 4,2,3
 660 1264 660 1264 733.182617188 1270.046875 c 4,4,5
 807 1276 807 1276 885.211914062 1288.81445312 c 4,6,7
 958.984375 1300.22460938 958.984375 1300.22460938 1047.24121094 1320.02929688 c 6,8,-1
 1095.72070312 1330.90820312 l 5,9,-1
 1095.99902344 1281.22460938 l 6,10,11
 1098.99023438 666.958984375 1098.99023438 666.958984375 1249.91894531 53.46484375 c 2,12,-1
 1262.11035156 3.9091796875 l 1,13,-1
 985.4453125 3.9091796875 l 1,14,-1
 978.583984375 35.390625 l 2,15,16
 890 443 890 443 847.149414062 1016.4921875 c 5,17,18
 777 1001 777 1001 701.794921875 992.744140625 c 4,19,20
 626 985 626 985 543.75 984.829101562 c 4,21,22
 446 985 446 985 345.666015625 999.711914062 c 4,23,24
 241.028320312 1015.60351562 241.028320312 1015.60351562 140.663085938 1043.92382812 c 6,25,-1
 111.526367188 1052.14550781 l 5,26,-1
 111.526367188 1331.63769531 l 5,27,-1
 161.435546875 1318.875 l 6,0,1
EndSplineSet
EndChar

StartChar: afii57399
Encoding: 1639 1639 66
Width: 1332
VWidth: 2553
GlyphClass: 2
Flags: W
LayerCount: 2
Fore
SplineSet
670.130859375 513.635742188 m 5,0,1
 696 606 696 606 728.364257812 701.8359375 c 4,2,3
 760 798 760 798 798.213867188 896.759765625 c 4,4,5
 836 996 836 996 879.6484375 1098.38867188 c 4,6,7
 919.982421875 1193.85742188 919.982421875 1193.85742188 972.71484375 1306.90917969 c 6,8,-1
 988.353515625 1340.43652344 l 5,9,-1
 1236.87304688 1247.3359375 l 5,10,-1
 1215.58203125 1207.12304688 l 6,11,12
 875.35546875 564.671875 875.35546875 564.671875 784.379882812 37.111328125 c 2,13,-1
 778.654296875 3.9091796875 l 1,14,-1
 562.30859375 3.9091796875 l 1,15,-1
 556.583984375 37.11328125 l 2,16,17
 466.038085938 563.775390625 466.038085938 563.775390625 125.3828125 1207.12207031 c 6,18,-1
 104.08984375 1247.33496094 l 5,19,-1
 352.609375 1340.43554688 l 5,20,-1
 368.249023438 1306.91113281 l 6,21,22
 566 882 566 882 670.130859375 513.635742188 c 5,0,1
EndSplineSet
EndChar

StartChar: afii57400
Encoding: 1640 1640 67
Width: 1332
VWidth: 2553
GlyphClass: 2
Flags: W
LayerCount: 2
Fore
SplineSet
670.833984375 820.2734375 m 1,0,1
 565.96484375 450.875 565.96484375 450.875 368.25 27 c 2,2,-1
 352.611328125 -6.52734375 l 1,3,-1
 104.091796875 86.5732421875 l 1,4,-1
 125.3828125 126.786132812 l 2,5,6
 465.360351562 767.793945312 465.360351562 767.793945312 556.584960938 1296.79785156 c 6,7,-1
 562.310546875 1330 l 5,8,-1
 778.65625 1330 l 5,9,-1
 784.380859375 1296.79589844 l 6,10,11
 874.747070312 770.471679688 874.747070312 770.471679688 1215.58203125 126.787109375 c 2,12,-1
 1236.875 86.57421875 l 1,13,-1
 988.35546875 -6.5263671875 l 1,14,-1
 972.715820312 26.998046875 l 2,15,16
 775 451 775 451 670.833984375 820.2734375 c 1,0,1
EndSplineSet
EndChar

StartChar: afii57401
Encoding: 1641 1641 68
Width: 1277
VWidth: 2553
GlyphClass: 2
Flags: W
LayerCount: 2
Fore
SplineSet
541.427734375 497.34375 m 0,0,1
 329 497 329 497 224.7109375 618.720703125 c 0,2,3
 130 730 130 730 130.05859375 889.54296875 c 0,4,5
 130 982 130 982 155.510742188 1057.55566406 c 128,-1,6
 181 1133 181 1133 232.547851562 1189.20800781 c 0,7,8
 275 1236 275 1236 328.13671875 1266.93261719 c 0,9,10
 381 1298 381 1298 442.96875 1313.57714844 c 128,-1,11
 505 1329 505 1329 575 1329 c 0,12,13
 692 1329 692 1329 776.2578125 1282.64648438 c 0,14,15
 861 1236 861 1236 908.89453125 1147.53027344 c 0,16,17
 957 1059 957 1059 968.801757812 930.81640625 c 0,18,19
 973 887 973 887 976.401367188 844.400390625 c 128,-1,20
 980 802 980 802 983.104492188 761.935546875 c 0,21,22
 986 722 986 722 988.923828125 683.258789062 c 0,23,24
 1002 486 1002 486 1013.73339844 304.708984375 c 0,25,26
 1035.72460938 53.4873046875 1035.72460938 53.4873046875 1036.17285156 46.4560546875 c 2,27,-1
 1038.88769531 3.9091796875 l 1,28,-1
 784.443359375 3.9091796875 l 1,29,-1
 782.624023438 42 l 2,30,31
 768 288 768 288 753.631835938 534.994140625 c 1,32,33
 738 528 738 528 721.071289062 523.10546875 c 0,34,35
 705 518 705 518 687.532226562 513.557617188 c 0,36,37
 671 509 671 509 652.977539062 506.286132812 c 0,38,39
 635 503 635 503 617.16015625 501.206054688 c 0,40,41
 599 499 599 499 580.053710938 498.251953125 c 0,42,43
 561 497 561 497 541.427734375 497.34375 c 0,0,1
533.1953125 736.596679688 m 0,44,45
 574 734 574 734 609.444335938 740.875976562 c 0,46,47
 645 748 645 748 673.719726562 762.859375 c 0,48,49
 703 778 703 778 727.88671875 802.401367188 c 1,50,51
 726 873 726 873 713.55859375 961.447265625 c 0,52,53
 704 1028 704 1028 673.576171875 1055.87988281 c 0,54,55
 643 1084 643 1084 584.451171875 1083.76757812 c 0,56,57
 461 1084 461 1084 412.009765625 1013.41601562 c 0,58,59
 366 947 366 947 377.73828125 867.080078125 c 4,60,61
 386 809 386 809 424.43359375 774.180664062 c 0,62,63
 461 741 461 741 533.1953125 736.596679688 c 0,44,45
EndSplineSet
EndChar

StartChar: afii57381
Encoding: 1642 1642 69
Width: 1291
VWidth: 2593
GlyphClass: 2
Flags: W
LayerCount: 2
Fore
SplineSet
755.737304688 218.348632812 m 0,0,1
 755.219726562 297.611328125 755.219726562 297.611328125 813.62109375 353.755859375 c 0,2,3
 871.114257812 409.72265625 871.114257812 409.72265625 950.860351562 409.545898438 c 0,4,5
 989.8125 409.631835938 989.8125 409.631835938 1024.9140625 395.345703125 c 128,-1,6
 1060.01660156 381.05859375 1060.01660156 381.05859375 1088.09960938 353.755859375 c 0,7,8
 1146.42578125 297.612304688 1146.42578125 297.612304688 1145.984375 218.348632812 c 0,9,10
 1146.20019531 180.021484375 1146.20019531 180.021484375 1131.34179688 145.349609375 c 128,-1,11
 1116.48339844 110.677734375 1116.48339844 110.677734375 1088.25976562 83.0947265625 c 0,12,13
 1030.53222656 26.5673828125 1030.53222656 26.5673828125 950.860351562 27.1484375 c 0,14,15
 871.114257812 26.5673828125 871.114257812 26.5673828125 813.4609375 83.0947265625 c 0,16,17
 755.219726562 139.942382812 755.219726562 139.942382812 755.737304688 218.348632812 c 0,0,1
145.40625 1244.66210938 m 0,18,19
 144.888671875 1323.92480469 144.888671875 1323.92480469 203.290039062 1380.06933594 c 0,20,21
 260.783203125 1436.03613281 260.783203125 1436.03613281 340.529296875 1435.859375 c 0,22,23
 420.202148438 1436.03613281 420.202148438 1436.03613281 477.768554688 1380.06933594 c 0,24,25
 536.094726562 1323.92578125 536.094726562 1323.92578125 535.653320312 1244.66210938 c 0,26,27
 535.869140625 1206.33496094 535.869140625 1206.33496094 521.010742188 1171.66308594 c 128,-1,28
 506.15234375 1136.99121094 506.15234375 1136.99121094 477.928710938 1109.40820312 c 0,29,30
 420.201171875 1052.88085938 420.201171875 1052.88085938 340.529296875 1053.46191406 c 0,31,32
 260.783203125 1052.88085938 260.783203125 1052.88085938 203.129882812 1109.40820312 c 0,33,34
 193.745117188 1118.56835938 193.745117188 1118.56835938 185.791015625 1128.56542969 c 128,-1,35
 177.836914062 1138.56347656 177.836914062 1138.56347656 171.397460938 1149.25976562 c 128,-1,36
 164.958007812 1159.95703125 164.958007812 1159.95703125 160.057617188 1171.37890625 c 128,-1,37
 155.157226562 1182.80078125 155.157226562 1182.80078125 151.874023438 1194.73632812 c 128,-1,38
 148.590820312 1206.671875 148.590820312 1206.671875 146.956054688 1219.22460938 c 128,-1,39
 145.321289062 1231.77734375 145.321289062 1231.77734375 145.40625 1244.66210938 c 0,18,19
873.991210938 1453.59667969 m 1,40,-1
 1100.76464844 1339.16992188 l 1,41,-1
 373.6953125 -4.97265625 l 1,42,-1
 149.616210938 113.5078125 l 1,43,-1
 873.991210938 1453.59667969 l 1,40,-1
EndSplineSet
EndChar

StartChar: uni066B
Encoding: 1643 1643 70
Width: 667
VWidth: 2593
GlyphClass: 2
Flags: W
LayerCount: 2
Fore
SplineSet
0.7509765625 -189.515625 m 1,0,-1
 436.03125 668.345703125 l 1,1,-1
 631.059570312 575.581054688 l 1,2,-1
 200.056640625 -284.180664062 l 1,3,-1
 0.7509765625 -189.515625 l 1,0,-1
EndSplineSet
EndChar

StartChar: uni066C
Encoding: 1644 1644 71
Width: 592
VWidth: 2304
GlyphClass: 2
Flags: W
LayerCount: 2
Fore
SplineSet
299 262 m 0,0,1
 431 259 431 259 441.162109375 146.842773438 c 0,2,3
 450 48 450 48 420 -53 c 0,4,5
 364 -243 364 -243 170 -331 c 1,6,-1
 120 -285 l 1,7,8
 310 -179 310 -179 328.817382812 -0.3359375 c 1,9,10
 298 -1 298 -1 287.9140625 -0.0322265625 c 0,11,12
 153 7 153 7 155.07421875 124 c 4,13,14
 157 265 157 265 299 262 c 0,0,1
EndSplineSet
EndChar

StartChar: afii63167
Encoding: 1645 1645 72
Width: 1411
VWidth: 2553
GlyphClass: 2
Flags: W
LayerCount: 2
Fore
SplineSet
192.791992188 910.817382812 m 1,0,-1
 583.680664062 910.817382812 l 1,1,-1
 705.771484375 1282.53027344 l 1,2,-1
 827.856445312 910.817382812 l 1,3,-1
 1218.74707031 910.817382812 l 1,4,-1
 902.943359375 679.956054688 l 1,5,-1
 1023.75 308.823242188 l 1,6,-1
 705.771484375 538.59765625 l 1,7,-1
 387.788085938 308.823242188 l 1,8,-1
 508.595703125 679.956054688 l 1,9,-1
 192.791992188 910.817382812 l 1,0,-1
EndSplineSet
EndChar

StartChar: uni066E
Encoding: 1646 1646 73
Width: 1971
VWidth: 2593
GlyphClass: 2
Flags: W
AnchorPoint: "Anchor-10" 889.751 1269.53 basechar 0
AnchorPoint: "Anchor-7" 889.751 -174.707 basechar 0
LayerCount: 2
Fore
SplineSet
1483.10742188 268 m 2,0,1
 1563.68652344 268 1563.68652344 268 1602.18457031 319.260742188 c 128,-1,2
 1640.68261719 370.521484375 1640.68261719 370.521484375 1640.68261719 491.366210938 c 2,3,-1
 1640.68261719 733.75 l 1,4,-1
 1899.44042969 733.75 l 1,5,-1
 1899.44042969 487.823242188 l 2,6,7
 1899.32519531 370.564453125 1899.32519531 370.564453125 1872.30273438 279.74609375 c 128,-1,8
 1845.28125 188.926757812 1845.28125 188.926757812 1792.46386719 126.7265625 c 128,-1,9
 1739.64648438 64.52734375 1739.64648438 64.52734375 1659.97949219 32.263671875 c 128,-1,10
 1580.3125 0 1580.3125 0 1476.4609375 0 c 2,11,-1
 492.935546875 0 l 2,12,13
 285.912109375 0 285.912109375 0 178.53125 124.337890625 c 128,-1,14
 71.150390625 248.676757812 71.150390625 248.676757812 71.1494140625 481.977539062 c 2,15,-1
 71.1484375 733.75 l 1,16,-1
 329.904296875 733.75 l 1,17,-1
 329.904296875 492.555664062 l 2,18,19
 329.948242188 371.076171875 329.948242188 371.076171875 368.481445312 319.538085938 c 128,-1,20
 407.015625 268 407.015625 268 487.470703125 268 c 2,21,-1
 1483.10742188 268 l 2,0,1
EndSplineSet
Substitution2: "'init' Initial Forms in Arabic lookup 13 subtable" uni066E.init
Substitution2: "'medi' Medial Forms in Arabic lookup 11 subtable" uni066E.medi
Substitution2: "'fina' Terminal Forms in Arabic lookup 9 subtable" uni066E.fina
EndChar

StartChar: uni066F
Encoding: 1647 1647 74
Width: 1443
VWidth: 2593
GlyphClass: 2
Flags: W
AnchorPoint: "Anchor-10" 343.676 1201.52 basechar 0
AnchorPoint: "Anchor-7" 415.271 -673.467 basechar 0
LayerCount: 2
Fore
SplineSet
1383.15039062 25.5546875 m 2,0,1
 1383.26074219 -226.86328125 1383.26074219 -226.86328125 1223.09082031 -355.931640625 c 128,-1,2
 1062.92089844 -485 1062.92089844 -485 759.385742188 -485 c 2,3,-1
 701.184570312 -485 l 2,4,5
 383.236328125 -485 383.236328125 -485 217.2265625 -332.922851562 c 128,-1,6
 51.216796875 -180.845703125 51.216796875 -180.845703125 51.12109375 113.90625 c 2,7,-1
 50.9873046875 525.849609375 l 1,8,-1
 309.877929688 526.826171875 l 1,9,-1
 309.877929688 115.10546875 l 2,10,11
 309.93359375 -54.033203125 309.93359375 -54.033203125 404.40625 -134.872070312 c 128,-1,12
 498.879882812 -215.711914062 498.879882812 -215.711914062 703.356445312 -215.711914062 c 2,13,-1
 730.428710938 -215.711914062 l 1,14,-1
 756.885742188 -215.134765625 l 2,15,16
 953.23046875 -210.7890625 953.23046875 -210.7890625 1041.22558594 -149.885742188 c 128,-1,17
 1129.22070312 -88.982421875 1129.22070312 -88.982421875 1128.56445312 28.7119140625 c 2,18,-1
 1128.42871094 52.98046875 l 1,19,-1
 987.34375 52.98046875 l 2,20,21
 816.395507812 52.9912109375 816.395507812 52.9912109375 727.520507812 157.094726562 c 128,-1,22
 638.645507812 261.198242188 638.645507812 261.198242188 639.383789062 453.780273438 c 0,23,24
 640.25 648.51171875 640.25 648.51171875 736.682617188 753.088867188 c 128,-1,25
 833.115234375 857.665039062 833.115234375 857.665039062 1015.7578125 858.463867188 c 0,26,27
 1195.18847656 858.7578125 1195.18847656 858.7578125 1289.03417969 752.108398438 c 128,-1,28
 1382.87988281 645.458007812 1382.87988281 645.458007812 1382.96679688 446.844726562 c 2,29,-1
 1383.15039062 25.5546875 l 2,0,1
1012.0390625 603.248046875 m 0,30,31
 940.153320312 603.145507812 940.153320312 603.145507812 909.124023438 569.559570312 c 128,-1,32
 878.094726562 535.973632812 878.094726562 535.973632812 878.166992188 455.098632812 c 0,33,34
 878.094726562 379.000976562 878.094726562 379.000976562 903.389648438 348.948242188 c 128,-1,35
 928.684570312 318.89453125 928.684570312 318.89453125 986.322265625 318.874023438 c 2,36,-1
 1137.90625 318.819335938 l 1,37,-1
 1137.56640625 440.762695312 l 2,38,39
 1137.39648438 501.682617188 1137.39648438 501.682617188 1123.35546875 537.700195312 c 128,-1,40
 1109.31445312 573.717773438 1109.31445312 573.717773438 1082.53320312 588.583007812 c 128,-1,41
 1055.75195312 603.447265625 1055.75195312 603.447265625 1012.0390625 603.248046875 c 0,30,31
EndSplineSet
Substitution2: "'init' Initial Forms in Arabic lookup 13 subtable" uni066F.init
Substitution2: "'medi' Medial Forms in Arabic lookup 11 subtable" uni066F.medi
Substitution2: "'fina' Terminal Forms in Arabic lookup 9 subtable" uni066F.fina
EndChar

StartChar: uni0670
Encoding: 1648 1648 75
Width: 11
VWidth: 2553
GlyphClass: 4
Flags: W
AnchorPoint: "Anchor-10" 648 1490.29 mark 0
AnchorPoint: "Anchor-9" 648 1490.29 mark 0
AnchorPoint: "Anchor-1" 648 2086.6 basemark 0
AnchorPoint: "Anchor-1" 648 1490.29 mark 0
LayerCount: 2
Fore
SplineSet
589.571289062 1542.38378906 m 1,0,-1
 589.571289062 2034.51757812 l 1,1,-1
 706.427734375 2034.51757812 l 1,2,-1
 706.427734375 1542.38378906 l 1,3,-1
 589.571289062 1542.38378906 l 1,0,-1
EndSplineSet
EndChar

StartChar: uni0674
Encoding: 1652 1652 76
Width: 759
VWidth: 2553
GlyphClass: 2
Flags: W
LayerCount: 2
Fore
SplineSet
146.505859375 1788.46233987 m 1,0,-1
 233.480294663 1808.5323103 l 1,1,2
 174.283558377 1853.50546087 174.283558377 1853.50546087 157.894126208 1915.22012901 c 0,3,4
 153.436184912 1931.65077893 153.436184912 1931.65077893 151.22251545 1949.82706106 c 128,-1,5
 149.008845988 1968.00334318 149.008845988 1968.00334318 149.018554893 1987.76607481 c 0,6,7
 148.998554093 2108.74459728 148.998554093 2108.74459728 257.366647787 2170.08922836 c 0,8,9
 287.936044562 2187.44478812 287.936044562 2187.44478812 323.013475378 2195.94685674 c 128,-1,10
 358.090906195 2204.44892535 358.090906195 2204.44892535 396.96610473 2204.17070567 c 128,-1,11
 435.841303265 2203.892486 435.841303265 2203.892486 478.928446196 2195.0454093 c 0,12,13
 519.162372335 2186.22446411 519.162372335 2186.22446411 566.242288882 2161.68701465 c 2,14,-1
 574.309570312 2157.4824509 l 1,15,-1
 574.309570312 2007.54864781 l 1,16,-1
 551.853188259 2020.41360082 l 2,17,18
 516.54404798 2040.64172257 516.54404798 2040.64172257 479.35167263 2049.48760805 c 128,-1,19
 442.159297279 2058.33349352 442.159297279 2058.33349352 402.858329082 2055.91337386 c 0,20,21
 364.946462566 2052.98594764 364.946462566 2052.98594764 340.266527626 2043.35508019 c 128,-1,22
 315.586592685 2033.72421274 315.586592685 2033.72421274 303.911493799 2018.82425646 c 128,-1,23
 292.236394912 2003.92430018 292.236394912 2003.92430018 290.382888611 1982.74944426 c 0,24,25
 282.891221656 1899.2603626 282.891221656 1899.2603626 399.931139313 1865.79048136 c 0,26,27
 433.466810949 1856.44180219 433.466810949 1856.44180219 582.534833688 1888.43648158 c 2,28,-1
 600.682617188 1892.33156588 l 1,29,-1
 600.682617188 1740.89163815 l 1,30,-1
 146.505859375 1638.92840073 l 1,31,-1
 146.505859375 1788.46233987 l 1,0,-1
EndSplineSet
EndChar

StartChar: uni06A1
Encoding: 1697 1697 80
Width: 1971
VWidth: 2593
GlyphClass: 2
Flags: W
AnchorPoint: "Anchor-10" 514.245 1247.49 basechar 0
AnchorPoint: "Anchor-7" 531.19 -145.02 basechar 0
LayerCount: 2
Fore
SplineSet
1896.39257812 403.8828125 m 2,0,1
 1896.47753906 345.88671875 1896.47753906 345.88671875 1884.15722656 295.810546875 c 128,-1,2
 1871.83691406 245.735351562 1871.83691406 245.735351562 1847.8125 204.719726562 c 128,-1,3
 1823.78808594 163.704101562 1823.78808594 163.704101562 1788.28222656 130.64453125 c 128,-1,4
 1752.77636719 97.5859375 1752.77636719 97.5859375 1706.62597656 73.2080078125 c 128,-1,5
 1660.47558594 48.8291015625 1660.47558594 48.8291015625 1603.7578125 32.4716796875 c 128,-1,6
 1547.04101562 16.1142578125 1547.04101562 16.1142578125 1480.73828125 8.056640625 c 128,-1,7
 1414.43554688 0 1414.43554688 0 1338.48925781 0 c 2,8,-1
 492.358398438 0 l 2,9,10
 285.330078125 0 285.330078125 0 177.943359375 124.313476562 c 128,-1,11
 70.556640625 248.627929688 70.556640625 248.627929688 70.5556640625 481.885742188 c 2,12,-1
 70.5546875 733.66015625 l 1,13,-1
 329.311523438 733.66015625 l 1,14,-1
 329.311523438 492.421875 l 2,15,16
 329.168945312 370.991210938 329.168945312 370.991210938 367.68359375 319.495117188 c 128,-1,17
 406.198242188 268 406.198242188 268 486.877929688 268 c 2,18,-1
 1335.04296875 268 l 2,19,20
 1481.53222656 268 1481.53222656 268 1551.0234375 296.18359375 c 128,-1,21
 1620.51464844 324.368164062 1620.51464844 324.368164062 1627.81054688 368.393554688 c 1,22,23
 1577.97851562 366.1015625 1577.97851562 366.1015625 1528.83789062 366.33984375 c 0,24,25
 1475.72558594 366.513671875 1475.72558594 366.513671875 1429.91601562 372.76171875 c 128,-1,26
 1384.10644531 379.009765625 1384.10644531 379.009765625 1344.11621094 391.783203125 c 128,-1,27
 1304.12597656 404.556640625 1304.12597656 404.556640625 1271.18457031 424.807617188 c 128,-1,28
 1238.24316406 445.059570312 1238.24316406 445.059570312 1213.23535156 472.522460938 c 0,29,30
 1139.00390625 554.588867188 1139.00390625 554.588867188 1138.96191406 728.30859375 c 0,31,32
 1138.98242188 914.838867188 1138.98242188 914.838867188 1235.27441406 1014.50878906 c 128,-1,33
 1331.56640625 1114.17773438 1331.56640625 1114.17773438 1513.3359375 1114.38964844 c 0,34,35
 1697.22070312 1114.1796875 1697.22070312 1114.1796875 1796.41796875 1024.79003906 c 128,-1,36
 1895.61523438 935.399414062 1895.61523438 935.399414062 1895.86328125 765.715820312 c 2,37,-1
 1896.39257812 403.8828125 l 2,0,1
1640 748.452148438 m 2,38,39
 1639.92773438 808.370117188 1639.92773438 808.370117188 1612.1328125 833.80078125 c 128,-1,40
 1584.33886719 859.232421875 1584.33886719 859.232421875 1514.95996094 859.401367188 c 0,41,42
 1440.5625 859.23046875 1440.5625 859.23046875 1410.23144531 831.432617188 c 128,-1,43
 1379.90039062 803.634765625 1379.90039062 803.634765625 1379.83300781 738.9921875 c 0,44,45
 1379.89648438 683.405273438 1379.89648438 683.405273438 1411.64941406 658.203125 c 128,-1,46
 1443.40234375 633 1443.40234375 633 1524 633 c 0,47,48
 1588.75878906 633 1588.75878906 633 1640.13378906 637.481445312 c 1,49,-1
 1640 748.452148438 l 2,38,39
EndSplineSet
Substitution2: "'init' Initial Forms in Arabic lookup 13 subtable" uni06A1.init
Substitution2: "'medi' Medial Forms in Arabic lookup 11 subtable" uni06A1.medi
Substitution2: "'fina' Terminal Forms in Arabic lookup 9 subtable" uni06A1.fina
EndChar

StartChar: uni06A9
Encoding: 1705 1705 81
Width: 1875
VWidth: 2593
GlyphClass: 2
Flags: W
AnchorPoint: "Anchor-10" 479.222 1445.6 basechar 0
AnchorPoint: "Anchor-7" 422.269 -275.044 basechar 0
LayerCount: 2
Fore
SplineSet
329.814453125 491.571289062 m 2,0,1
 329.814453125 370.6171875 329.814453125 370.6171875 368.31640625 319.30859375 c 128,-1,2
 406.819335938 268 406.819335938 268 487.379882812 268 c 2,3,-1
 1310.24316406 268 l 2,4,5
 1403.43066406 268 1403.43066406 268 1440.37695312 292.040039062 c 128,-1,6
 1477.32226562 316.080078125 1477.32226562 316.080078125 1478.03710938 363.537109375 c 0,7,8
 1478.18261719 371.782226562 1478.18261719 371.782226562 1469.44335938 390.557617188 c 128,-1,9
 1460.70410156 409.333007812 1460.70410156 409.333007812 1437.38769531 443.275390625 c 128,-1,10
 1414.07128906 477.21875 1414.07128906 477.21875 1380.89941406 515.038085938 c 2,11,-1
 1110.12207031 823.754882812 l 2,12,13
 1081.81835938 855.994140625 1081.81835938 855.994140625 1061.28515625 880.737304688 c 128,-1,14
 1040.75195312 905.479492188 1040.75195312 905.479492188 1026.82910156 924.21484375 c 0,15,16
 994.15625 969.157226562 994.15625 969.157226562 998.280273438 1033.33203125 c 0,17,18
 1003.92773438 1108.95214844 1003.92773438 1108.95214844 1040.90039062 1161.83984375 c 128,-1,19
 1077.87304688 1214.72753906 1077.87304688 1214.72753906 1143.38671875 1237.65722656 c 2,20,-1
 1843.82421875 1482.81542969 l 1,21,-1
 1843.82421875 1213.47851562 l 1,22,-1
 1284.71972656 1021.63378906 l 1,23,-1
 1577.68164062 691.026367188 l 2,24,25
 1739.70898438 508.249023438 1739.70898438 508.249023438 1719.14648438 322.352539062 c 0,26,27
 1698.64453125 152.983398438 1698.64453125 152.983398438 1561.07226562 60.564453125 c 0,28,29
 1514.66113281 29.6669921875 1514.66113281 29.6669921875 1454.02050781 14.837890625 c 128,-1,30
 1393.38085938 0.0087890625 1393.38085938 0.0087890625 1318.75488281 0 c 2,31,-1
 494.57421875 -0.0966796875 l 2,32,33
 286.748046875 -0.0439453125 286.748046875 -0.0439453125 178.903320312 124.291015625 c 128,-1,34
 71.05859375 248.625976562 71.05859375 248.625976562 71.0576171875 481.977539062 c 2,35,-1
 71.056640625 735.930664062 l 1,36,-1
 329.814453125 734.479492188 l 1,37,-1
 329.814453125 491.571289062 l 2,0,1
EndSplineSet
Substitution2: "'init' Initial Forms in Arabic lookup 13 subtable" uniFB90
Substitution2: "'medi' Medial Forms in Arabic lookup 11 subtable" uniFB91
Substitution2: "'fina' Terminal Forms in Arabic lookup 9 subtable" uniFB8F
EndChar

StartChar: afii57514
Encoding: 1722 1722 83
Width: 1462
VWidth: 2593
GlyphClass: 2
Flags: W
AnchorPoint: "Anchor-10" 607.158 965.159 basechar 0
AnchorPoint: "Anchor-7" 711.132 -666.307 basechar 0
LayerCount: 2
Fore
SplineSet
70.986328125 525.9921875 m 1,0,-1
 329.877929688 526.041015625 l 1,1,-1
 329.877929688 144.603515625 l 2,2,3
 329.93359375 -23.2099609375 329.93359375 -23.2099609375 422.107421875 -103.186523438 c 128,-1,4
 514.28125 -183.163085938 514.28125 -183.163085938 713.842773438 -183.163085938 c 2,5,-1
 734.98046875 -183.163085938 l 1,6,-1
 756.185546875 -182.587890625 l 2,7,8
 950.392578125 -177.12890625 950.392578125 -177.12890625 1039.66503906 -100.90234375 c 128,-1,9
 1128.93847656 -24.67578125 1128.93847656 -24.67578125 1128.84277344 128.671875 c 2,10,-1
 1128.46972656 724.797851562 l 1,11,-1
 1389.94726562 724.931640625 l 1,12,-1
 1389.94726562 129.314453125 l 2,13,14
 1389.96582031 -56.29296875 1389.96582031 -56.29296875 1317.61035156 -184.533203125 c 128,-1,15
 1245.25585938 -312.7734375 1245.25585938 -312.7734375 1104.80566406 -379.732421875 c 128,-1,16
 964.35546875 -446.69140625 964.35546875 -446.69140625 759.577148438 -451.861328125 c 2,17,-1
 735.864257812 -452.459960938 l 1,18,-1
 711.641601562 -452.459960938 l 2,19,20
 277.1484375 -452.126953125 277.1484375 -452.126953125 135.081054688 -166.7265625 c 0,21,22
 71.392578125 -37.607421875 71.392578125 -37.607421875 71.12109375 143.403320312 c 2,23,-1
 70.986328125 525.9921875 l 1,0,-1
EndSplineSet
Substitution2: "'init' Initial Forms in Arabic lookup 13 subtable" uni06BA.init
Substitution2: "'medi' Medial Forms in Arabic lookup 11 subtable" uni06BA.medi
Substitution2: "'fina' Terminal Forms in Arabic lookup 9 subtable" uniFB9F
EndChar

StartChar: uni06F4
Encoding: 1780 1780 90
Width: 1186
VWidth: 2553
GlyphClass: 2
Flags: W
LayerCount: 2
Fore
SplineSet
504.009765625 648.915039062 m 1,0,1
 538.396484375 339.400390625 538.396484375 339.400390625 538.8515625 51.9853515625 c 6,2,-1
 538.927734375 3.9091796875 l 1,3,-1
 284.1875 3.9091796875 l 1,4,-1
 284.076171875 51.76953125 l 2,5,6
 283.001953125 632.09765625 283.001953125 632.09765625 144.966796875 1220.32617188 c 2,7,-1
 136.435546875 1256.68164062 l 1,8,-1
 381.0078125 1332.11425781 l 1,9,-1
 390.122070312 1289.33496094 l 2,10,11
 393 1275 393 1275 425.239257812 1072.04785156 c 1,12,13
 498 1320 498 1320 787.776367188 1330.98144531 c 0,14,15
 893.37890625 1335.01464844 893.37890625 1335.01464844 1001.34960938 1286.14746094 c 2,16,-1
 1024.85546875 1275.50878906 l 1,17,-1
 1024.85546875 1050.17285156 l 1,18,19
 923 1091 923 1091 819.5 1091.5 c 128,-1,20
 716 1092 716 1092 651.5 1032 c 0,21,22
 597 981 597 981 595.673828125 898 c 0,23,24
 595 812 595 812 793.819335938 805.711914062 c 0,25,26
 888.549804688 803.012695312 888.549804688 803.012695312 1024.46484375 834.03125 c 2,27,-1
 1072.59570312 845.015625 l 1,28,-1
 1076.34472656 603 l 1,29,-1
 1045.33496094 595.435546875 l 2,30,31
 724 517 724 517 504.009765625 648.915039062 c 1,0,1
EndSplineSet
EndChar

StartChar: uni06F5
Encoding: 1781 1781 91
Width: 1325
VWidth: 2553
GlyphClass: 2
Flags: W
LayerCount: 2
Fore
SplineSet
454.8359375 271.653320312 m 0,0,1
 540.595703125 271.002929688 540.595703125 271.002929688 558.610351562 462.265625 c 2,2,-1
 562.024414062 498.513671875 l 1,3,-1
 769.655273438 498.513671875 l 1,4,-1
 771.278320312 460.208007812 l 2,5,6
 779.305664062 262.91796875 779.305664062 262.91796875 904 265.409179688 c 0,7,8
 982.494140625 266.9765625 982.494140625 266.9765625 981.325195312 385.24609375 c 0,9,10
 981 522 981 522 661.078125 892.336914062 c 1,11,12
 349.849609375 520.236328125 349.849609375 520.236328125 349.599609375 379 c 0,13,14
 349.41015625 271.881835938 349.41015625 271.881835938 454.8359375 271.653320312 c 0,0,1
659.896484375 116.004882812 m 1,15,16
 585 0 585 0 427.203125 -0.1083984375 c 0,17,18
 100 0 100 0 100.068359375 328.860351562 c 4,19,20
 100 605 100 605 494.86328125 1071.36328125 c 1,21,22
 481 1086 481 1086 468.7890625 1098.95117188 c 2,23,-1
 443.772460938 1125.24707031 l 1,24,-1
 621.094726562 1330.18554688 l 1,25,26
 683 1258 683 1258 741.796875 1191.16503906 c 0,27,28
 1224 639 1224 639 1224.93261719 355.727539062 c 4,29,30
 1227 0 1227 0 899.67578125 0.005859375 c 0,31,32
 737 0 737 0 659.896484375 116.004882812 c 1,15,16
EndSplineSet
EndChar

StartChar: uni06F6
Encoding: 1782 1782 92
Width: 1070
VWidth: 2553
GlyphClass: 2
Flags: W
LayerCount: 2
Fore
SplineSet
365.874023438 921.962890625 m 0,0,1
 366 856 366 856 403.413085938 819.555664062 c 0,2,3
 440 783 440 783 526.50390625 771.30078125 c 0,4,5
 565 766 565 766 594.125 771.73828125 c 0,6,7
 624 778 624 778 646.891601562 794.163085938 c 0,8,9
 660 804 660 804 673.573242188 813.009765625 c 128,-1,10
 687 822 687 822 700.240234375 831.857421875 c 0,11,12
 714 841 714 841 726.897460938 850.711914062 c 0,13,14
 740 860 740 860 753.55078125 869.576171875 c 128,-1,15
 767 879 767 879 780.205078125 888.453125 c 0,16,17
 780.51953125 888.669921875 780.51953125 888.669921875 806.865234375 907.34765625 c 2,18,-1
 842.896484375 932.892578125 l 1,19,-1
 974.537109375 701.7890625 l 1,20,21
 836 598 836 598 735 472 c 4,22,23
 573 267 573 267 406.758789062 -13.626953125 c 1,24,-1
 182.259765625 95.70703125 l 1,25,26
 322 334 322 334 474.063476562 539.66015625 c 1,27,28
 298 565 298 565 205.676757812 660.829101562 c 0,29,30
 113 757 113 757 112.846679688 916.3828125 c 0,31,32
 113 1090 113 1090 221.390625 1209.61035156 c 0,33,34
 249 1240 249 1240 282.637695312 1263.98730469 c 0,35,36
 316 1288 316 1288 354.131835938 1303.81835938 c 0,37,38
 392 1320 392 1320 434.84765625 1329.04589844 c 0,39,40
 477 1338 477 1338 524.375 1339.96679688 c 0,41,42
 660.2734375 1345.00976562 660.2734375 1345.00976562 757.448242188 1285.3828125 c 2,43,-1
 776.6640625 1273.59179688 l 1,44,-1
 775.129882812 1021.14355469 l 1,45,-1
 717.124023438 1051.20214844 l 2,46,47
 646 1088 646 1088 559.723632812 1090.30761719 c 0,48,49
 530 1091 530 1091 506.333984375 1086.1171875 c 0,50,51
 482 1082 482 1082 462.609375 1072.61132812 c 0,52,53
 412 1049 412 1049 388.594726562 1013.46777344 c 0,54,55
 366 977 366 977 365.874023438 921.962890625 c 0,0,1
EndSplineSet
EndChar

StartChar: uniFB8F
Encoding: 64399 64399 107
Width: 2038
VWidth: 2593
GlyphClass: 2
Flags: W
AnchorPoint: "Anchor-7" 463.692 -250.794 basechar 0
AnchorPoint: "Anchor-10" 495.382 1412.92 basechar 0
LayerCount: 2
Fore
SplineSet
2030.12792969 0 m 2,0,1
 1835.1207636 0 1835.1207636 0 1680.06933594 182.83203125 c 1,2,3
 1579.21191406 0.54296875 1579.21191406 0.54296875 1322.19140625 0 c 2,4,-1
 493.7578125 -0.0966796875 l 2,5,6
 209.838867188 -0.025390625 209.838867188 -0.025390625 114.16796875 228.653320312 c 0,7,8
 70.40234375 334.432617188 70.40234375 334.432617188 70.2275390625 481.977539062 c 2,9,-1
 70.2265625 736.66015625 l 1,10,-1
 328.984375 736.66015625 l 1,11,-1
 328.984375 492.54296875 l 2,12,13
 328.991210938 371.696289062 328.991210938 371.696289062 367.486328125 320.442382812 c 128,-1,14
 405.981445312 269.188476562 405.981445312 269.188476562 486.543945312 269.200195312 c 2,15,-1
 1313.70800781 269.32421875 l 2,16,17
 1437.1495603 269.131039481 1437.1495603 269.131039481 1467.65234375 312.861328125 c 0,18,19
 1492.82163995 348.947060291 1492.82163995 348.947060291 1467.52183096 399 c 4,20,21
 1452.40527745 428.906468531 1452.40527745 428.906468531 1425.35351562 464.87109375 c 0,22,23
 1407.3893185 488.751954554 1407.3893185 488.751954554 1384.33496094 515.038085938 c 2,24,-1
 1113.54394531 823.770507812 l 2,25,26
 1060.95755069 883.731966566 1060.95755069 883.731966566 1028.98463472 926.402116096 c 128,-1,27
 997.01171875 969.072265625 997.01171875 969.072265625 1002.36669922 1039.43115234 c 128,-1,28
 1007.72167969 1109.79003906 1007.72167969 1109.79003906 1044.65332031 1162.84179688 c 128,-1,29
 1081.5859375 1215.89355469 1081.5859375 1215.89355469 1146.87597656 1238.64746094 c 2,30,-1
 1847.26074219 1482.72851562 l 1,31,-1
 1847.26074219 1213.63671875 l 1,32,-1
 1289.36035156 1018.92871094 l 1,33,-1
 1838.77929688 396.513671875 l 2,34,35
 1952.05920988 268 1952.05920988 268 2023.13378906 268 c 2,36,-1
 2043.73828125 268 l 2,37,38
 2109 268 2109 268 2108.73828125 139 c 2,39,-1
 2108.73828125 128 l 2,40,41
 2109 0 2109 0 2043.73828125 0 c 2,42,-1
 2030.12792969 0 l 2,0,1
EndSplineSet
EndChar

StartChar: uniFB9F
Encoding: 64415 64415 115
Width: 1630
VWidth: 2593
GlyphClass: 2
Flags: W
AnchorPoint: "Anchor-10" 342.402 839.573 basechar 0
AnchorPoint: "Anchor-7" 302.474 -662.176 basechar 0
LayerCount: 2
Fore
SplineSet
1634.9765625 0 m 6,0,-1
 1557.31738281 0 l 2,1,2
 1450 0 1450 0 1378.5234375 42.1748046875 c 1,3,4
 1365.8828125 -195.506835938 1365.8828125 -195.506835938 1207.51757812 -319.495117188 c 128,-1,5
 1049.15332031 -443.483398438 1049.15332031 -443.483398438 759.766601562 -450.33984375 c 2,6,-1
 734.395507812 -450.940429688 l 1,7,-1
 703.10546875 -450.940429688 l 2,8,9
 275.036132812 -450.983398438 275.036132812 -450.983398438 134.600585938 -166.899414062 c 0,10,11
 71.390625 -37.861328125 71.390625 -37.861328125 71.12109375 143.262695312 c 2,12,-1
 70.986328125 525.9921875 l 1,13,-1
 329.877929688 526.041015625 l 1,14,-1
 329.877929688 144.462890625 l 2,15,16
 329.93359375 -22.75390625 329.93359375 -22.75390625 420.057617188 -102.202148438 c 128,-1,17
 510.181640625 -181.650390625 510.181640625 -181.650390625 705.271484375 -181.643554688 c 2,18,-1
 733.500976562 -181.642578125 l 1,19,-1
 756.40234375 -181.065429688 l 2,20,21
 950.341796875 -176.293945312 950.341796875 -176.293945312 1038.29003906 -109.635742188 c 128,-1,22
 1126.23925781 -42.9775390625 1126.23925781 -42.9775390625 1126.16210938 88.5341796875 c 2,23,-1
 1125.79101562 724.798828125 l 1,24,-1
 1392.26757812 724.930664062 l 1,25,-1
 1392.26757812 459.271484375 l 2,26,27
 1392.20800781 407.795898438 1392.20800781 407.795898438 1402.63183594 371.806640625 c 128,-1,28
 1413.0546875 335.81640625 1413.0546875 335.81640625 1435.67480469 312.563476562 c 128,-1,29
 1458.29492188 289.309570312 1458.29492188 289.309570312 1492.75683594 278.654296875 c 0,30,31
 1527 268 1527 268 1576.40722656 268 c 2,32,-1
 1634.9765625 268 l 6,33,34
 1700 268 1700 268 1699.9765625 139 c 6,35,-1
 1699.9765625 128 l 6,36,37
 1700 0 1700 0 1634.9765625 0 c 6,0,-1
EndSplineSet
EndChar

StartChar: uniFBE8
Encoding: 64488 64488 118
Width: 698
VWidth: 2593
GlyphClass: 2
Flags: W
AnchorPoint: "Anchor-10" 379.938 1260.35 basechar 0
AnchorPoint: "Anchor-7" 417.497 -102.32 basechar 0
LayerCount: 2
Fore
SplineSet
-5.0283203125 0 m 2,0,1
 -58.8603515625 0 -58.8603515625 0 -89.4345703125 35.88671875 c 128,-1,2
 -120.008789062 71.7744140625 -120.008789062 71.7744140625 -120.0234375 128 c 2,3,-1
 -120.0234375 139 l 2,4,5
 -120.0234375 175.876953125 -120.0234375 175.876953125 -107.030273438 204.748046875 c 128,-1,6
 -94.0380859375 233.619140625 -94.0380859375 233.619140625 -67.638671875 250.809570312 c 128,-1,7
 -41.240234375 268 -41.240234375 268 -5.04296875 268 c 2,8,-1
 227.557617188 268.23046875 l 2,9,10
 301.124023438 268.303710938 301.124023438 268.303710938 334.44140625 308.330078125 c 128,-1,11
 367.758789062 348.357421875 367.758789062 348.357421875 367.56640625 444.583007812 c 2,12,-1
 367.56640625 770.689453125 l 1,13,-1
 626.322265625 770.689453125 l 1,14,-1
 626.322265625 450.48828125 l 2,15,16
 626.322265625 233.282226562 626.322265625 233.282226562 528.709960938 116.625976562 c 128,-1,17
 431.098632812 -0.0302734375 431.098632812 -0.0302734375 242.677734375 -0.06640625 c 2,18,-1
 -5.0283203125 0 l 2,0,1
EndSplineSet
EndChar

StartChar: uniFBE9
Encoding: 64489 64489 119
Width: 877
VWidth: 2593
GlyphClass: 2
Flags: W
AnchorPoint: "Anchor-10" 369.939 1166.45 basechar 0
AnchorPoint: "Anchor-7" 348.812 -107.016 basechar 0
LayerCount: 2
Fore
SplineSet
882.2265625 0 m 6,0,-1
 861.33203125 0 l 2,1,2
 750 0 750 0 661.317382812 32.1923828125 c 0,3,4
 572.26171875 64.384765625 572.26171875 64.384765625 508.70703125 128.643554688 c 1,5,6
 383.026367188 0 383.026367188 0 156.1484375 0 c 2,7,-1
 -5.0234375 0 l 2,8,9
 -40.96484375 0 -40.96484375 0 -67.34765625 16.9580078125 c 128,-1,10
 -93.7314453125 33.916015625 -93.7314453125 33.916015625 -106.876953125 62.619140625 c 128,-1,11
 -120.0234375 91.3232421875 -120.0234375 91.3232421875 -120.0234375 128 c 2,12,-1
 -120.0234375 139.010742188 l 2,13,14
 -120.008789062 195.603515625 -120.008789062 195.603515625 -89.59765625 231.801757812 c 128,-1,15
 -59.1865234375 268 -59.1865234375 268 -5.0234375 268 c 2,16,-1
 161.162109375 268 l 2,17,18
 275.020507812 268 275.020507812 268 323.845703125 308.671875 c 128,-1,19
 372.671875 349.344726562 372.671875 349.344726562 372.671875 437.358398438 c 2,20,-1
 372.671875 731.372070312 l 1,21,-1
 637.15625 731.372070312 l 1,22,-1
 637.15625 437.350585938 l 2,23,24
 637.090820312 350.012695312 637.090820312 350.012695312 688.545410156 309.006347656 c 128,-1,25
 740 268 740 268 860.405273438 268 c 2,26,-1
 882.2265625 268 l 6,27,28
 947 268 947 268 947.2265625 139 c 6,29,-1
 947.2265625 128 l 6,30,31
 947 0 947 0 882.2265625 0 c 6,0,-1
EndSplineSet
EndChar

StartChar: uniFE73
Encoding: 65139 65139 127
Width: 683
VWidth: 2593
GlyphClass: 2
Flags: W
AnchorPoint: "Anchor-10" 252.404 1530.29 basechar 0
AnchorPoint: "Anchor-7" 252.404 -102.32 basechar 0
LayerCount: 2
Fore
SplineSet
382.298828125 440.2109375 m 2,0,1
 382.298828125 377.083984375 382.298828125 377.083984375 436.491210938 322.892578125 c 128,-1,2
 490.682617188 268.700195312 490.682617188 268.700195312 609.067382812 268.700195312 c 2,3,-1
 717.61328125 268.700195312 l 1,4,-1
 717.61328125 8.9091796875 l 1,5,-1
 539.997070312 8.9091796875 l 2,6,7
 355.719726562 8.9091796875 355.719726562 8.9091796875 239.114257812 125.513671875 c 128,-1,8
 122.509765625 242.119140625 122.509765625 242.119140625 122.509765625 425.141601562 c 2,9,-1
 122.509765625 493.498046875 l 1,10,-1
 382.298828125 493.498046875 l 1,11,-1
 382.298828125 440.2109375 l 2,0,1
EndSplineSet
EndChar

StartChar: uniFE8E
Encoding: 65166 65166 153
Width: 551
VWidth: 2593
GlyphClass: 2
Flags: W
AnchorPoint: "Anchor-10" 250.923 1503.04 basechar 0
AnchorPoint: "Anchor-7" 265.009 -252.554 basechar 0
LayerCount: 2
Fore
SplineSet
556.901367188 0 m 6,0,-1
 531.231445312 0 l 2,1,2
 329 0 329 0 223.264648438 117.94921875 c 0,3,4
 122.69140625 231.347946809 122.69140625 231.347946809 122.69140625 457.251953125 c 2,5,-1
 122.69140625 1367.18847656 l 1,6,-1
 376 1367.18847656 l 1,7,-1
 376 466.139648438 l 2,8,9
 376 359 376 359 413.84375 313.477539062 c 0,10,11
 452 268 452 268 534.014648438 268 c 2,12,-1
 556.901367188 268 l 6,13,14
 622 268 622 268 621.901367188 139 c 6,15,-1
 621.901367188 128 l 6,16,17
 622 0 622 0 556.901367188 0 c 6,0,-1
EndSplineSet
EndChar

StartChar: uniFEA2
Encoding: 65186 65186 173
Width: 1389
VWidth: 2593
GlyphClass: 2
Flags: W
AnchorPoint: "Anchor-10" 697.761 1501.94 basechar 0
AnchorPoint: "Anchor-7" 501.334 -853.653 basechar 0
LayerCount: 2
Fore
SplineSet
1393.9765625 0 m 6,0,-1
 1341.75683594 0 l 2,1,2
 1168 0 1168 0 1059.93945312 64.794921875 c 128,-1,3
 951.87890625 129.58984375 951.87890625 129.58984375 921.580078125 259.206054688 c 1,4,5
 615.96875 206.901367188 615.96875 206.901367188 471.109375 101.706054688 c 128,-1,6
 326.250976562 -3.4892578125 326.250976562 -3.4892578125 325.6875 -157.938476562 c 0,7,8
 324.93359375 -325.559570312 324.93359375 -325.559570312 447.08203125 -408.947265625 c 128,-1,9
 569.231445312 -492.3359375 569.231445312 -492.3359375 834.451171875 -492.172851562 c 2,10,-1
 1288.33007812 -491.89453125 l 1,11,-1
 1288.33007812 -755.55859375 l 1,12,-1
 822.388671875 -754.58203125 l 2,13,14
 418.592773438 -753.9765625 418.592773438 -753.9765625 244.374023438 -587.7109375 c 0,15,16
 66.7705078125 -417.326171875 66.7705078125 -417.326171875 70.1123046875 -175.166015625 c 0,17,18
 73.0771484375 105.540039062 73.0771484375 105.540039062 284.814453125 279.286132812 c 128,-1,19
 496.55078125 453.033203125 496.55078125 453.033203125 902.203125 519.7265625 c 1,20,-1
 737.169921875 596.186523438 l 2,21,22
 718.072265625 605.051757812 718.072265625 605.051757812 699.631835938 611.6953125 c 128,-1,23
 681.192382812 618.338867188 681.192382812 618.338867188 663.916015625 622.629882812 c 128,-1,24
 646.640625 626.921875 646.640625 626.921875 630.467773438 629.100585938 c 128,-1,25
 614.295898438 631.280273438 614.295898438 631.280273438 598.961914062 631.418945312 c 0,26,27
 533.333984375 630.154296875 533.333984375 630.154296875 483.141601562 592.567382812 c 2,28,-1
 297.6875 452.288085938 l 1,29,-1
 128.193359375 642.698242188 l 1,30,-1
 305.234375 792.055664062 l 2,31,32
 439.375976562 904.974609375 439.375976562 904.974609375 590.848632812 905.236328125 c 0,33,34
 626.602539062 905.149414062 626.602539062 905.149414062 663.005859375 898.758789062 c 128,-1,35
 699.409179688 892.368164062 699.409179688 892.368164062 735.698242188 880.005859375 c 128,-1,36
 771.987304688 867.64453125 771.987304688 867.64453125 808.854492188 849.268554688 c 2,37,-1
 1129.87402344 689.258789062 l 2,38,39
 1284.91894531 611.765625 1284.91894531 611.765625 1285.26367188 506.504882812 c 2,40,-1
 1285.16992188 327.66015625 l 1,41,-1
 1248.80761719 324.357421875 l 2,42,43
 1199.50585938 319.87890625 1199.50585938 319.87890625 1158.27734375 313.622070312 c 1,44,45
 1167.85449219 301.388671875 1167.85449219 301.388671875 1189.1328125 291.564453125 c 128,-1,46
 1210.41210938 281.740234375 1210.41210938 281.740234375 1250.6015625 274.870117188 c 0,47,48
 1291 268 1291 268 1343.16308594 268 c 2,49,-1
 1393.9765625 268 l 6,50,51
 1459 268 1459 268 1458.9765625 139 c 6,52,-1
 1458.9765625 128 l 6,53,54
 1459 0 1459 0 1393.9765625 0 c 6,0,-1
EndSplineSet
EndChar

StartChar: uniFEA3
Encoding: 65187 65187 174
Width: 1293
VWidth: 2593
GlyphClass: 2
Flags: W
AnchorPoint: "Anchor-10" 490.912 1279.39 basechar 0
AnchorPoint: "Anchor-7" 425.185 -253.728 basechar 0
LayerCount: 2
Fore
SplineSet
-5.0234375 0 m 2,0,1
 -58.85546875 0 -58.85546875 0 -89.431640625 35.8876953125 c 128,-1,2
 -120.008789062 71.775390625 -120.008789062 71.775390625 -120.0234375 128 c 2,3,-1
 -120.0234375 139.010742188 l 2,4,5
 -120.008789062 195.603515625 -120.008789062 195.603515625 -89.59765625 231.801757812 c 128,-1,6
 -59.1865234375 268 -59.1865234375 268 -5.0234375 268 c 2,7,-1
 320 268 l 2,8,9
 423.21875 268 423.21875 268 514.58984375 288.88671875 c 128,-1,10
 605.959960938 309.7734375 605.959960938 309.7734375 686.77734375 351.608398438 c 2,11,-1
 856.943359375 437.692382812 l 2,12,13
 880.860351562 449.791992188 880.860351562 449.791992188 900.114257812 459.764648438 c 1,14,-1
 885.40234375 467.5859375 l 1,15,-1
 644.5546875 592.506835938 l 2,16,17
 618.877929688 605.876953125 618.877929688 605.876953125 595.045898438 614.505859375 c 128,-1,18
 571.213867188 623.135742188 571.213867188 623.135742188 549.041992188 627.041992188 c 128,-1,19
 526.869140625 630.94921875 526.869140625 630.94921875 506.25 630.4375 c 128,-1,20
 485.629882812 629.926757812 485.629882812 629.926757812 466.06640625 624.880859375 c 128,-1,21
 446.502929688 619.833984375 446.502929688 619.833984375 428.221679688 610.702148438 c 128,-1,22
 409.939453125 601.569335938 409.939453125 601.569335938 392.130859375 588.098632812 c 2,23,-1
 206.676757812 447.819335938 l 1,24,-1
 37.1826171875 638.229492188 l 1,25,-1
 214.225585938 787.588867188 l 2,26,27
 330.657226562 885.693359375 330.657226562 885.693359375 458.797851562 900.1796875 c 128,-1,28
 586.9375 914.665039062 586.9375 914.665039062 718.866210938 844.271484375 c 2,29,-1
 1062.87207031 660.267578125 l 2,30,31
 1078.96289062 651.658203125 1078.96289062 651.658203125 1093.16210938 643.0234375 c 128,-1,32
 1107.36230469 634.388671875 1107.36230469 634.388671875 1120.45898438 625.200195312 c 128,-1,33
 1133.55664062 616.01171875 1133.55664062 616.01171875 1144.86328125 606.482421875 c 128,-1,34
 1156.17089844 596.954101562 1156.17089844 596.954101562 1166.0078125 586.908203125 c 128,-1,35
 1175.84570312 576.862304688 1175.84570312 576.862304688 1184.02539062 566.13671875 c 128,-1,36
 1192.20410156 555.41015625 1192.20410156 555.41015625 1198.578125 544.181640625 c 0,37,38
 1287.35742188 387.78125 1287.35742188 387.78125 996.604492188 224.133789062 c 2,39,-1
 834.581054688 133.12109375 l 2,40,41
 597.459960938 0 597.459960938 0 322 0 c 2,42,-1
 -5.0234375 0 l 2,0,1
EndSplineSet
EndChar

StartChar: uniFEA4
Encoding: 65188 65188 175
Width: 1319
VWidth: 2593
GlyphClass: 2
Flags: W
AnchorPoint: "Anchor-10" 454.527 1259.29 basechar 0
AnchorPoint: "Anchor-7" 494.433 -251.487 basechar 0
LayerCount: 2
Fore
SplineSet
1323.9765625 0 m 6,0,-1
 1236.07324219 0 l 2,1,2
 1028 0 1028 0 907.530273438 172.828125 c 1,3,-1
 833.270507812 131.948242188 l 2,4,5
 713.522460938 66.1123046875 713.522460938 66.1123046875 585.461914062 33.056640625 c 128,-1,6
 457.401367188 0 457.401367188 0 322 0 c 2,7,-1
 -5.0234375 0 l 2,8,9
 -40.96484375 0 -40.96484375 0 -67.34765625 16.9580078125 c 128,-1,10
 -93.7314453125 33.916015625 -93.7314453125 33.916015625 -106.876953125 62.619140625 c 128,-1,11
 -120.0234375 91.3232421875 -120.0234375 91.3232421875 -120.0234375 128 c 2,12,-1
 -120.0234375 139.010742188 l 2,13,14
 -120.008789062 195.603515625 -120.008789062 195.603515625 -89.59765625 231.801757812 c 128,-1,15
 -59.1865234375 268 -59.1865234375 268 -5.0234375 268 c 2,16,-1
 320 268 l 2,17,18
 524.359375 268 524.359375 268 685.77734375 350.608398438 c 2,19,-1
 855.625976562 437.530273438 l 1,20,-1
 898.749023438 460.063476562 l 1,21,-1
 644.37890625 593.598632812 l 2,22,23
 579.116210938 627.994140625 579.116210938 627.994140625 507.9765625 627.951171875 c 0,24,25
 497.041015625 627.958007812 497.041015625 627.958007812 486.654296875 626.9140625 c 128,-1,26
 476.266601562 625.869140625 476.266601562 625.869140625 466.279296875 623.744140625 c 128,-1,27
 456.291015625 621.619140625 456.291015625 621.619140625 446.743164062 618.416992188 c 128,-1,28
 437.1953125 615.21484375 437.1953125 615.21484375 427.944335938 610.88671875 c 128,-1,29
 418.693359375 606.55859375 418.693359375 606.55859375 409.774414062 601.127929688 c 128,-1,30
 400.85546875 595.698242188 400.85546875 595.698242188 392.130859375 589.098632812 c 2,31,-1
 206.676757812 448.819335938 l 1,32,-1
 37.1826171875 639.229492188 l 1,33,-1
 214.190429688 788.559570312 l 2,34,35
 348.385742188 902.024414062 348.385742188 902.024414062 499.813476562 901.767578125 c 0,36,37
 613.6484375 902.021484375 613.6484375 902.021484375 718.98828125 845.206054688 c 2,38,-1
 1062.015625 660.19140625 l 2,39,40
 1215.91992188 576.874023438 1215.91992188 576.874023438 1216.25292969 477.986328125 c 0,41,42
 1216.10839844 431.49609375 1216.10839844 431.49609375 1187.40625 387.6171875 c 128,-1,43
 1158.70507812 343.739257812 1158.70507812 343.739257812 1106.51171875 300.76953125 c 1,44,45
 1159 268 1159 268 1233.06835938 268 c 2,46,-1
 1323.9765625 268 l 6,47,48
 1389 268 1389 268 1388.9765625 139 c 6,49,-1
 1388.9765625 128 l 6,50,51
 1389 0 1389 0 1323.9765625 0 c 6,0,-1
EndSplineSet
EndChar

StartChar: uniFEAA
Encoding: 65194 65194 181
Width: 1214
VWidth: 2593
GlyphClass: 2
Flags: W
AnchorPoint: "Anchor-10" 423.389 1356.77 basechar 0
AnchorPoint: "Anchor-7" 354.739 -246.099 basechar 0
LayerCount: 2
Fore
SplineSet
1218.9765625 0 m 2,0,-1
 1203.35644531 0 l 2,1,2
 1024 0 1024 0 887.018554688 142.065429688 c 1,3,4
 835.060546875 68.28125 835.060546875 68.28125 736.024414062 34.140625 c 128,-1,5
 636.989257812 0 636.989257812 0 492.64453125 0 c 2,6,-1
 71.8994140625 0 l 1,7,-1
 71.8994140625 268 l 1,8,-1
 479.596679688 268 l 2,9,10
 699.462971164 268 699.462971164 268 696.537109375 345.548828125 c 4,11,12
 694.52734375 403.169921875 694.52734375 403.169921875 603.848632812 508.044921875 c 2,13,-1
 306.254882812 852.225585938 l 1,14,-1
 487.025390625 1050.15820312 l 1,15,-1
 1053.75195312 367.579101562 l 2,16,17
 1096.85546875 315.854492188 1096.85546875 315.854492188 1136.22558594 291.927734375 c 0,18,19
 1176 268 1176 268 1210.41015625 268 c 2,20,-1
 1218.9765625 268 l 2,21,22
 1284 268 1284 268 1283.9765625 139 c 2,23,-1
 1283.9765625 128 l 2,24,25
 1284 0 1284 0 1218.9765625 0 c 2,0,-1
EndSplineSet
EndChar

StartChar: uniFEAE
Encoding: 65198 65198 185
Width: 903
VWidth: 2593
GlyphClass: 2
Flags: W
AnchorPoint: "Anchor-10" 410.643 988.634 basechar 0
AnchorPoint: "Anchor-7" 294.358 -717.397 basechar 0
LayerCount: 2
Fore
SplineSet
908.022460938 0 m 6,0,-1
 891.923828125 0 l 2,1,2
 797 0 797 0 727.383789062 37.26953125 c 1,3,-1
 727.383789062 22.666015625 l 2,4,5
 727.178710938 -230.936523438 727.178710938 -230.936523438 577.916015625 -361.745117188 c 128,-1,6
 428.653320312 -492.553710938 428.653320312 -492.553710938 145.333984375 -492.412109375 c 2,7,-1
 1.896484375 -492.340820312 l 1,8,-1
 1.9013671875 -224.16796875 l 1,9,-1
 140.572265625 -224.265625 l 2,10,11
 309.692382812 -224.12890625 309.692382812 -224.12890625 385.638671875 -163.974609375 c 128,-1,12
 461.584960938 -103.8203125 461.584960938 -103.8203125 461.584960938 21.4990234375 c 2,13,-1
 461.584960938 688.3984375 l 1,14,-1
 726.209960938 689.913085938 l 1,15,-1
 726.209960938 385.928710938 l 2,16,17
 727.860351562 345.2109375 727.860351562 345.2109375 743.5703125 320.018554688 c 128,-1,18
 759.28125 294.827148438 759.28125 294.827148438 795.640625 281.413574219 c 128,-1,19
 832 268 832 268 891.923828125 268 c 2,20,-1
 908.022460938 268 l 6,21,22
 973 268 973 268 973.022460938 139 c 6,23,-1
 973.022460938 128 l 6,24,25
 973 0 973 0 908.022460938 0 c 6,0,-1
EndSplineSet
PairPos2: "'kern' Horizontal Kerning lookup 15-1" uniFEFB dx=-100 dy=0 dh=-100 dv=0 dx=0 dy=0 dh=0 dv=0
PairPos2: "'kern' Horizontal Kerning lookup 15-1" uniFEDF dx=-100 dy=0 dh=-100 dv=0 dx=0 dy=0 dh=0 dv=0
PairPos2: "'kern' Horizontal Kerning lookup 15-1" uni062F dx=-100 dy=0 dh=-100 dv=0 dx=0 dy=0 dh=0 dv=0
PairPos2: "'kern' Horizontal Kerning lookup 15-2" uniFB90 dx=-142 dy=0 dh=-142 dv=0 dx=0 dy=0 dh=0 dv=0
PairPos2: "'kern' Horizontal Kerning lookup 15-2" uniFB8E dx=-142 dy=0 dh=-142 dv=0 dx=0 dy=0 dh=0 dv=0
PairPos2: "'kern' Horizontal Kerning lookup 15-2" uni06A9 dx=-142 dy=0 dh=-142 dv=0 dx=0 dy=0 dh=0 dv=0
PairPos2: "'kern' Horizontal Kerning lookup 15-2" uniFEEB dx=-100 dy=0 dh=-100 dv=0 dx=0 dy=0 dh=0 dv=0
PairPos2: "'kern' Horizontal Kerning lookup 15-2" uni0647 dx=-100 dy=0 dh=-100 dv=0 dx=0 dy=0 dh=0 dv=0
PairPos2: "'kern' Horizontal Kerning lookup 15-2" uniFEE7 dx=-100 dy=0 dh=-100 dv=0 dx=0 dy=0 dh=0 dv=0
PairPos2: "'kern' Horizontal Kerning lookup 15-2" uniFEE3 dx=-100 dy=0 dh=-100 dv=0 dx=0 dy=0 dh=0 dv=0
PairPos2: "'kern' Horizontal Kerning lookup 15-2" uni0645 dx=-100 dy=0 dh=-100 dv=0 dx=0 dy=0 dh=0 dv=0
PairPos2: "'kern' Horizontal Kerning lookup 15-2" uniFEDB dx=-142 dy=0 dh=-142 dv=0 dx=0 dy=0 dh=0 dv=0
PairPos2: "'kern' Horizontal Kerning lookup 15-2" uni0643 dx=-100 dy=0 dh=-100 dv=0 dx=0 dy=0 dh=0 dv=0
PairPos2: "'kern' Horizontal Kerning lookup 15-2" uniFED7 dx=-100 dy=0 dh=-100 dv=0 dx=0 dy=0 dh=0 dv=0
PairPos2: "'kern' Horizontal Kerning lookup 15-2" uniFED3 dx=-100 dy=0 dh=-100 dv=0 dx=0 dy=0 dh=0 dv=0
PairPos2: "'kern' Horizontal Kerning lookup 15-2" uni0641 dx=-100 dy=0 dh=-100 dv=0 dx=0 dy=0 dh=0 dv=0
PairPos2: "'kern' Horizontal Kerning lookup 15-2" uniFECF dx=-100 dy=0 dh=-100 dv=0 dx=0 dy=0 dh=0 dv=0
PairPos2: "'kern' Horizontal Kerning lookup 15-2" uniFECB dx=-100 dy=0 dh=-100 dv=0 dx=0 dy=0 dh=0 dv=0
PairPos2: "'kern' Horizontal Kerning lookup 15-2" uniFEC7 dx=-100 dy=0 dh=-100 dv=0 dx=0 dy=0 dh=0 dv=0
PairPos2: "'kern' Horizontal Kerning lookup 15-2" uni0638 dx=-100 dy=0 dh=-100 dv=0 dx=0 dy=0 dh=0 dv=0
PairPos2: "'kern' Horizontal Kerning lookup 15-2" uniFEC3 dx=-100 dy=0 dh=-100 dv=0 dx=0 dy=0 dh=0 dv=0
PairPos2: "'kern' Horizontal Kerning lookup 15-2" uni0637 dx=-100 dy=0 dh=-100 dv=0 dx=0 dy=0 dh=0 dv=0
PairPos2: "'kern' Horizontal Kerning lookup 15-2" uniFEBF dx=-100 dy=0 dh=-100 dv=0 dx=0 dy=0 dh=0 dv=0
PairPos2: "'kern' Horizontal Kerning lookup 15-2" uni0636 dx=-100 dy=0 dh=-100 dv=0 dx=0 dy=0 dh=0 dv=0
PairPos2: "'kern' Horizontal Kerning lookup 15-2" uniFEBB dx=-100 dy=0 dh=-100 dv=0 dx=0 dy=0 dh=0 dv=0
PairPos2: "'kern' Horizontal Kerning lookup 15-2" uni0635 dx=-100 dy=0 dh=-100 dv=0 dx=0 dy=0 dh=0 dv=0
PairPos2: "'kern' Horizontal Kerning lookup 15-2" uniFEB7 dx=-100 dy=0 dh=-100 dv=0 dx=0 dy=0 dh=0 dv=0
PairPos2: "'kern' Horizontal Kerning lookup 15-2" uni0634 dx=-100 dy=0 dh=-100 dv=0 dx=0 dy=0 dh=0 dv=0
PairPos2: "'kern' Horizontal Kerning lookup 15-2" uniFEB3 dx=-100 dy=0 dh=-100 dv=0 dx=0 dy=0 dh=0 dv=0
PairPos2: "'kern' Horizontal Kerning lookup 15-2" uni0633 dx=-100 dy=0 dh=-100 dv=0 dx=0 dy=0 dh=0 dv=0
PairPos2: "'kern' Horizontal Kerning lookup 15-2" uniFEA7 dx=-100 dy=0 dh=-100 dv=0 dx=0 dy=0 dh=0 dv=0
PairPos2: "'kern' Horizontal Kerning lookup 15-2" uniFEA3 dx=-100 dy=0 dh=-100 dv=0 dx=0 dy=0 dh=0 dv=0
PairPos2: "'kern' Horizontal Kerning lookup 15-2" uniFE9F dx=-100 dy=0 dh=-100 dv=0 dx=0 dy=0 dh=0 dv=0
PairPos2: "'kern' Horizontal Kerning lookup 15-2" uniFE9B dx=-100 dy=0 dh=-100 dv=0 dx=0 dy=0 dh=0 dv=0
PairPos2: "'kern' Horizontal Kerning lookup 15-2" uni062B dx=-100 dy=0 dh=-100 dv=0 dx=0 dy=0 dh=0 dv=0
PairPos2: "'kern' Horizontal Kerning lookup 15-2" uniFE97 dx=-100 dy=0 dh=-100 dv=0 dx=0 dy=0 dh=0 dv=0
PairPos2: "'kern' Horizontal Kerning lookup 15-2" uni062A dx=-100 dy=0 dh=-100 dv=0 dx=0 dy=0 dh=0 dv=0
PairPos2: "'kern' Horizontal Kerning lookup 15-2" uni0629 dx=-100 dy=0 dh=-100 dv=0 dx=0 dy=0 dh=0 dv=0
PairPos2: "'kern' Horizontal Kerning lookup 15-2" uniFE91 dx=-47 dy=0 dh=-47 dv=0 dx=0 dy=0 dh=0 dv=0
PairPos2: "'kern' Horizontal Kerning lookup 15-2" uni0628 dx=-100 dy=0 dh=-100 dv=0 dx=0 dy=0 dh=0 dv=0
PairPos2: "'kern' Horizontal Kerning lookup 15-2" uni0627 dx=-100 dy=0 dh=-100 dv=0 dx=0 dy=0 dh=0 dv=0
PairPos2: "'kern' Horizontal Kerning lookup 15-2" uni0622 dx=-100 dy=0 dh=-100 dv=0 dx=0 dy=0 dh=0 dv=0
PairPos2: "'kern' Horizontal Kerning lookup 15-2" uni0621 dx=-100 dy=0 dh=-100 dv=0 dx=0 dy=0 dh=0 dv=0
PairPos2: "'kern' Horizontal Kerning lookup 15-2" uniFB94 dx=-142 dy=0 dh=-142 dv=0 dx=0 dy=0 dh=0 dv=0
PairPos2: "'kern' Horizontal Kerning lookup 15-2" uniFB92 dx=-142 dy=0 dh=-142 dv=0 dx=0 dy=0 dh=0 dv=0
PairPos2: "'kern' Horizontal Kerning lookup 15-2" afii57509 dx=-142 dy=0 dh=-142 dv=0 dx=0 dy=0 dh=0 dv=0
PairPos2: "'kern' Horizontal Kerning lookup 15-2" uniFB7C dx=-100 dy=0 dh=-100 dv=0 dx=0 dy=0 dh=0 dv=0
PairPos2: "'kern' Horizontal Kerning lookup 15-2" afii57506 dx=-100 dy=0 dh=-100 dv=0 dx=0 dy=0 dh=0 dv=0
PairPos2: "'kern' Horizontal Kerning lookup 15-2" afii57440 dx=-100 dy=0 dh=-100 dv=0 dx=0 dy=0 dh=0 dv=0
EndChar

StartChar: uniFEB2
Encoding: 65202 65202 189
Width: 2686
VWidth: 2553
GlyphClass: 2
Flags: W
AnchorPoint: "Anchor-10" 709.089 1069.03 basechar 0
AnchorPoint: "Anchor-7" 286.557 -585.885 basechar 0
LayerCount: 2
Fore
SplineSet
2696.31738281 -0.06640625 m 6,0,-1
 2636.30371094 -0.06640625 l 2,1,2
 2413.05644621 -0.06640625 2413.05644621 -0.06640625 2320.37011719 108.974609375 c 1,3,4
 2300.50976562 80.796875 2300.50976562 80.796875 2273.53027344 59.9033203125 c 128,-1,5
 2246.55175781 39.009765625 2246.55175781 39.009765625 2213.59570312 25.876953125 c 128,-1,6
 2180.63867188 12.7451171875 2180.63867188 12.7451171875 2142.79003906 6.3466796875 c 128,-1,7
 2104.94140625 -0.052734375 2104.94140625 -0.052734375 2061.39746094 -0.06640625 c 0,8,9
 1888.94335938 -0.0068359375 1888.94335938 -0.0068359375 1805.76171875 115.219726562 c 1,10,11
 1720.54785156 -0.896484375 1720.54785156 -0.896484375 1541.16503906 -0.0654296875 c 0,12,13
 1447.09765625 0.654296875 1447.09765625 0.654296875 1383.90234375 41.365234375 c 1,14,15
 1369.56054688 -194.740234375 1369.56054688 -194.740234375 1213.46679688 -319.130859375 c 128,-1,16
 1057.37207031 -443.522460938 1057.37207031 -443.522460938 773.692382812 -452.186523438 c 2,17,-1
 754.025390625 -452.787109375 l 1,18,-1
 726.23828125 -452.787109375 l 2,19,20
 409.555664062 -452.897460938 409.555664062 -452.897460938 242.858398438 -317.383789062 c 128,-1,21
 76.16015625 -181.870117188 76.16015625 -181.870117188 76.16015625 83.2763671875 c 2,22,-1
 76.16015625 356.138671875 l 1,23,-1
 75.9501953125 525.9921875 l 1,24,-1
 334.91796875 526.041015625 l 1,25,-1
 334.91796875 84.4580078125 l 2,26,27
 334.954101562 -50.4794921875 334.954101562 -50.4794921875 428.502929688 -116.984375 c 128,-1,28
 522.051757812 -183.490234375 522.051757812 -183.490234375 728.396484375 -183.490234375 c 2,29,-1
 753.2578125 -183.490234375 l 1,30,-1
 780.552734375 -182.91015625 l 2,31,32
 963.233398438 -179.186523438 963.233398438 -179.186523438 1046.09472656 -112.548828125 c 128,-1,33
 1128.95507812 -45.912109375 1128.95507812 -45.912109375 1128.88574219 88.537109375 c 2,34,-1
 1128.55859375 724.787109375 l 1,35,-1
 1398.79199219 725.025390625 l 1,36,-1
 1399.48339844 435.233398438 l 2,37,38
 1399.63671875 374.08984375 1399.63671875 374.08984375 1414.98828125 337.403320312 c 128,-1,39
 1430.33886719 300.715820312 1430.33886719 300.715820312 1461.09667969 284.471679688 c 128,-1,40
 1491.85449219 268.228515625 1491.85449219 268.228515625 1542.25976562 267.932617188 c 0,41,42
 1585.36621094 267.685546875 1585.36621094 267.685546875 1611.63964844 282.102539062 c 128,-1,43
 1637.91308594 296.51953125 1637.91308594 296.51953125 1651.59570312 331.532226562 c 128,-1,44
 1665.27832031 366.544921875 1665.27832031 366.544921875 1665.39160156 425.989257812 c 2,45,-1
 1665.96875 727.62109375 l 1,46,-1
 1933.90625 727.62109375 l 1,47,-1
 1934.62109375 424.193359375 l 2,48,49
 1934.70507812 380.671875 1934.70507812 380.671875 1942.18261719 350.872070312 c 128,-1,50
 1949.66015625 321.072265625 1949.66015625 321.072265625 1965.73339844 302.721679688 c 128,-1,51
 1981.80664062 284.372070312 1981.80664062 284.372070312 2005.17871094 276.259765625 c 128,-1,52
 2028.54980469 268.1484375 2028.54980469 268.1484375 2062.2578125 267.932617188 c 0,53,54
 2127.375 267.5625 2127.375 267.5625 2156.56347656 302.62109375 c 128,-1,55
 2185.75292969 337.680664062 2185.75292969 337.680664062 2185.66210938 424.6328125 c 2,56,-1
 2185.34667969 727.62109375 l 1,57,-1
 2450.34863281 727.62109375 l 1,58,-1
 2451.53027344 427.60546875 l 2,59,60
 2451.72753906 343.64453125 2451.72753906 343.64453125 2494.90163764 305.7890625 c 128,-1,61
 2538 268 2538 268 2638.88574219 267.93359375 c 2,62,-1
 2696.31738281 267.93359375 l 6,63,64
 2761.0001633 267.93359375 2761.0001633 267.93359375 2761.31738281 138.93359375 c 6,65,-1
 2761.31738281 127.93359375 l 6,66,67
 2760.99983526 -0.06640625 2760.99983526 -0.06640625 2696.31738281 -0.06640625 c 6,0,-1
EndSplineSet
EndChar

StartChar: uniFEB3
Encoding: 65203 65203 190
Width: 1624
VWidth: 2553
GlyphClass: 2
Flags: W
AnchorPoint: "Anchor-10" 779.679 1153.53 basechar 0
AnchorPoint: "Anchor-7" 909.307 -287.179 basechar 0
LayerCount: 2
Fore
SplineSet
1049.34472656 426.892578125 m 2,0,1
 1049.79003906 341.012695312 1049.79003906 341.012695312 1083.17382812 304.713867188 c 128,-1,2
 1116.55859375 268.415039062 1116.55859375 268.415039062 1192.2421875 267.999023438 c 0,3,4
 1247.95800781 267.6171875 1247.95800781 267.6171875 1273.22167969 299.473632812 c 128,-1,5
 1298.484375 331.329101562 1298.484375 331.329101562 1298.484375 412.9921875 c 2,6,-1
 1298.484375 770.362304688 l 1,7,-1
 1557.2421875 770.362304688 l 1,8,-1
 1557.2421875 405.002929688 l 2,9,10
 1557.11328125 210.118164062 1557.11328125 210.118164062 1465.8203125 105.059570312 c 128,-1,11
 1374.52734375 0 1374.52734375 0 1199.95898438 0 c 0,12,13
 1010.78613281 0 1010.78613281 0 924.465820312 113.689453125 c 1,14,15
 844.14453125 0 844.14453125 0 656.8984375 0 c 0,16,17
 472.435546875 0 472.435546875 0 388.362304688 119.700195312 c 1,18,19
 288.475585938 0 288.475585938 0 63.82421875 0 c 2,20,-1
 -0.0234375 0 l 2,21,22
 -35.96484375 0 -35.96484375 0 -62.34765625 16.9580078125 c 128,-1,23
 -88.7314453125 33.916015625 -88.7314453125 33.916015625 -101.876953125 62.619140625 c 128,-1,24
 -115.0234375 91.3232421875 -115.0234375 91.3232421875 -115.0234375 128 c 2,25,-1
 -115.0234375 139.010742188 l 2,26,27
 -115.008789062 195.603515625 -115.008789062 195.603515625 -84.59765625 231.801757812 c 128,-1,28
 -54.1865234375 268 -54.1865234375 268 -0.0234375 268 c 2,29,-1
 64.7529296875 268 l 2,30,31
 165.151367188 268 165.151367188 268 207.935546875 305.48046875 c 128,-1,32
 250.719726562 342.959960938 250.719726562 342.959960938 250.87890625 426.055664062 c 2,33,-1
 251.456054688 727.6875 l 1,34,-1
 519.393554688 727.6875 l 1,35,-1
 520.108398438 424.3203125 l 2,36,37
 520.369140625 367.100585938 520.369140625 367.100585938 535.016601562 332.908203125 c 128,-1,38
 549.6640625 298.716796875 549.6640625 298.716796875 579.288085938 283.49609375 c 128,-1,39
 608.912109375 268.276367188 608.912109375 268.276367188 657.763671875 267.999023438 c 0,40,41
 721.87890625 267.604492188 721.87890625 267.604492188 750.89453125 302.666992188 c 128,-1,42
 779.909179688 337.729492188 779.909179688 337.729492188 780.149414062 424.8515625 c 2,43,-1
 780.986328125 727.6875 l 1,44,-1
 1047.78613281 727.6875 l 1,45,-1
 1049.34472656 426.892578125 l 2,0,1
EndSplineSet
EndChar

StartChar: uniFEB4
Encoding: 65204 65204 191
Width: 1801
VWidth: 2548
GlyphClass: 2
Flags: W
AnchorPoint: "Anchor-10" 855.65 1147.67 basechar 0
LayerCount: 2
Fore
SplineSet
1811.8046875 0 m 6,0,-1
 1751.80078125 0 l 2,1,2
 1528 0 1528 0 1435.84472656 109.240234375 c 1,3,4
 1358.625 -0 1358.625 -0 1176.8984375 0 c 0,5,6
 1004.01171875 0 1004.01171875 0 921.130859375 115.202148438 c 1,7,8
 836.358398438 0 836.358398438 0 656.8984375 0 c 0,9,10
 472.435546875 0 472.435546875 0 388.362304688 119.700195312 c 1,11,12
 288.475585938 0 288.475585938 0 63.82421875 0 c 2,13,-1
 -0.0234375 0 l 2,14,15
 -53.85546875 0 -53.85546875 0 -84.431640625 35.8876953125 c 128,-1,16
 -115.008789062 71.775390625 -115.008789062 71.775390625 -115.0234375 128 c 2,17,-1
 -115.0234375 139 l 2,18,19
 -115.0234375 195.59765625 -115.0234375 195.59765625 -84.609375 231.798828125 c 128,-1,20
 -54.1962890625 268 -54.1962890625 268 -0.0234375 268 c 2,21,-1
 64.7529296875 268 l 2,22,23
 132.293945312 268 132.293945312 268 173.196289062 285.044921875 c 128,-1,24
 214.098632812 302.08984375 214.098632812 302.08984375 232.365234375 336.30078125 c 128,-1,25
 250.631835938 370.51171875 250.631835938 370.51171875 250.87890625 426.106445312 c 2,26,-1
 251.456054688 727.6875 l 1,27,-1
 519.393554688 727.6875 l 1,28,-1
 520.108398438 424.276367188 l 2,29,30
 520.307617188 339.521484375 520.307617188 339.521484375 552.486328125 303.967773438 c 128,-1,31
 584.6640625 268.413085938 584.6640625 268.413085938 657.763671875 267.999023438 c 0,32,33
 722.03125 267.603515625 722.03125 267.603515625 751.26171875 302.98828125 c 128,-1,34
 780.491210938 338.372070312 780.491210938 338.372070312 780.87890625 426.106445312 c 2,35,-1
 781.456054688 727.6875 l 1,36,-1
 1049.39355469 727.6875 l 1,37,-1
 1050.10839844 424.276367188 l 2,38,39
 1050.24414062 366.466796875 1050.24414062 366.466796875 1064.14453125 332.1328125 c 128,-1,40
 1078.04492188 297.797851562 1078.04492188 297.797851562 1105.39453125 283.034179688 c 128,-1,41
 1132.74414062 268.26953125 1132.74414062 268.26953125 1177.76269531 267.999023438 c 0,42,43
 1242.67382812 267.602539062 1242.67382812 267.602539062 1271.87890625 302.6796875 c 128,-1,44
 1301.08398438 337.756835938 1301.08398438 337.756835938 1301.14941406 424.735351562 c 2,45,-1
 1300.83398438 727.6875 l 1,46,-1
 1565.8359375 727.6875 l 1,47,-1
 1567.01757812 427.72265625 l 2,48,49
 1567.43066406 343.763671875 1567.43066406 343.763671875 1610.56933594 305.881835938 c 0,50,51
 1654 268 1654 268 1754.37304688 268 c 2,52,-1
 1811.8046875 268 l 6,53,54
 1877 268 1877 268 1876.8046875 139 c 6,55,-1
 1876.8046875 128 l 6,56,57
 1877 0 1877 0 1811.8046875 0 c 6,0,-1
EndSplineSet
EndChar

StartChar: uniFEBA
Encoding: 65210 65210 197
Width: 2612
VWidth: 2593
GlyphClass: 2
Flags: W
AnchorPoint: "Anchor-10" 672.398 1186.4 basechar 0
AnchorPoint: "Anchor-7" 290.946 -652.786 basechar 0
LayerCount: 2
Fore
SplineSet
2617.67382812 0 m 6,0,-1
 2590.16699219 0 l 2,1,2
 2432 0 2432 0 2317.91015625 98.279296875 c 1,3,4
 2251.67089844 48.4697265625 2251.67089844 48.4697265625 2164.87695312 24.11328125 c 128,-1,5
 2078.08203125 -0.2431640625 2078.08203125 -0.2431640625 1971.45898438 -0.2958984375 c 2,6,-1
 1601.56347656 -0.48046875 l 2,7,8
 1463.828125 -0.8583984375 1463.828125 -0.8583984375 1379.74316406 55.609375 c 1,9,10
 1375.21484375 -66.2119140625 1375.21484375 -66.2119140625 1332.29394531 -159.821289062 c 128,-1,11
 1289.37304688 -253.430664062 1289.37304688 -253.430664062 1210.33007812 -316.524414062 c 128,-1,12
 1131.28613281 -379.6171875 1131.28613281 -379.6171875 1018.02636719 -413.670898438 c 128,-1,13
 904.765625 -447.723632812 904.765625 -447.723632812 758.65234375 -452.186523438 c 2,14,-1
 738.985351562 -452.787109375 l 1,15,-1
 711.202148438 -452.787109375 l 2,16,17
 397.9609375 -452.8984375 397.9609375 -452.8984375 234.508789062 -301.447265625 c 128,-1,18
 71.0576171875 -149.99609375 71.0576171875 -149.99609375 71.12109375 143.262695312 c 2,19,-1
 70.986328125 525.9921875 l 1,20,-1
 329.877929688 526.041015625 l 1,21,-1
 329.877929688 144.462890625 l 2,22,23
 329.93359375 -23.4677734375 329.93359375 -23.4677734375 421.995117188 -103.478515625 c 128,-1,24
 514.057617188 -183.490234375 514.057617188 -183.490234375 713.356445312 -183.490234375 c 2,25,-1
 738.217773438 -183.490234375 l 1,26,-1
 765.4921875 -182.911132812 l 2,27,28
 953.407226562 -178.704101562 953.407226562 -178.704101562 1038.66601562 -111.854492188 c 128,-1,29
 1123.92382812 -45.005859375 1123.92382812 -45.005859375 1123.84570312 88.5341796875 c 2,30,-1
 1123.47363281 724.797851562 l 1,31,-1
 1384.92773438 724.931640625 l 1,32,-1
 1385.0390625 506.596679688 l 2,33,34
 1385.01269531 354.020507812 1385.01269531 354.020507812 1437.78222656 308.967773438 c 1,35,36
 1470.66601562 384.564453125 1470.66601562 384.564453125 1505.77734375 449.637695312 c 128,-1,37
 1540.88769531 514.709960938 1540.88769531 514.709960938 1578.96484375 570.18359375 c 128,-1,38
 1617.04101562 625.657226562 1617.04101562 625.657226562 1657.4609375 670.216796875 c 128,-1,39
 1697.88085938 714.775390625 1697.88085938 714.775390625 1741.44042969 748.95703125 c 128,-1,40
 1785.00097656 783.138671875 1785.00097656 783.138671875 1831.01660156 806.041992188 c 128,-1,41
 1877.03222656 828.9453125 1877.03222656 828.9453125 1926.36230469 840.692382812 c 128,-1,42
 1975.69140625 852.440429688 1975.69140625 852.440429688 2027.59375 852.51953125 c 0,43,44
 2236.82324219 853.05078125 2236.82324219 853.05078125 2357.07324219 694.561523438 c 0,45,46
 2449.9375 571.479492188 2449.9375 571.479492188 2450.73632812 399.192382812 c 0,47,48
 2450.80859375 386.3671875 2450.80859375 386.3671875 2450.203125 373.19921875 c 128,-1,49
 2449.59765625 360.03125 2449.59765625 360.03125 2448.40039062 347.5390625 c 128,-1,50
 2447.20214844 335.046875 2447.20214844 335.046875 2445.46191406 323.432617188 c 1,51,52
 2508 268 2508 268 2598.29296875 268 c 2,53,-1
 2617.67382812 268 l 6,54,55
 2682 268 2682 268 2682.67382812 139 c 6,56,-1
 2682.67382812 128 l 6,57,58
 2682 0 2682 0 2617.67382812 0 c 6,0,-1
2195.71582031 454.522460938 m 0,59,60
 2187.03613281 490.888671875 2187.03613281 490.888671875 2172.62109375 516.594726562 c 128,-1,61
 2158.20605469 542.301757812 2158.20605469 542.301757812 2136.37695312 559.147460938 c 128,-1,62
 2114.54785156 575.994140625 2114.54785156 575.994140625 2085.29589844 583.814453125 c 128,-1,63
 2056.04492188 591.634765625 2056.04492188 591.634765625 2017.30175781 591.533203125 c 0,64,65
 1941.52832031 591.709960938 1941.52832031 591.709960938 1859.96777344 513.28125 c 128,-1,66
 1778.40722656 434.852539062 1778.40722656 434.852539062 1696.62304688 271.046875 c 1,67,-1
 1991.44726562 271.046875 l 2,68,69
 2061.8203125 271.025390625 2061.8203125 271.025390625 2107.84472656 281.279296875 c 128,-1,70
 2153.86816406 291.533203125 2153.86816406 291.533203125 2170.49609375 306.323242188 c 0,71,72
 2180.42871094 315.270507812 2180.42871094 315.270507812 2187.04199219 326.435546875 c 128,-1,73
 2193.65625 337.599609375 2193.65625 337.599609375 2197.39160156 353.240234375 c 128,-1,74
 2201.12695312 368.881835938 2201.12695312 368.881835938 2201.17480469 388.491210938 c 0,75,76
 2201.12207031 402.155273438 2201.12207031 402.155273438 2200.39257812 414.768554688 c 128,-1,77
 2199.66308594 427.3828125 2199.66308594 427.3828125 2198.48046875 437.173828125 c 128,-1,78
 2197.296875 446.965820312 2197.296875 446.965820312 2195.71582031 454.522460938 c 0,59,60
EndSplineSet
EndChar

StartChar: uniFEBB
Encoding: 65211 65211 198
Width: 1648
VWidth: 2593
GlyphClass: 2
Flags: W
AnchorPoint: "Anchor-10" 630.109 1290.04 basechar 0
AnchorPoint: "Anchor-7" 630.109 -226.146 basechar 0
LayerCount: 2
Fore
SplineSet
-5.0234375 0 m 2,0,1
 -58.85546875 0 -58.85546875 0 -89.431640625 35.8876953125 c 128,-1,2
 -120.008789062 71.775390625 -120.008789062 71.775390625 -120.0234375 128 c 2,3,-1
 -120.0234375 139 l 2,4,5
 -120.0234375 195.59765625 -120.0234375 195.59765625 -89.609375 231.798828125 c 128,-1,6
 -59.1962890625 268 -59.1962890625 268 -5.0234375 268 c 2,7,-1
 51.2724609375 268 l 2,8,9
 145.955078125 268 145.955078125 268 186.913085938 307.646484375 c 128,-1,10
 227.87109375 347.29296875 227.87109375 347.29296875 227.774414062 437.512695312 c 2,11,-1
 227.774414062 729.1796875 l 1,12,-1
 484.580078125 729.1796875 l 1,13,-1
 485.829101562 434.166992188 l 2,14,15
 486.1171875 366.125976562 486.1171875 366.125976562 503.458007812 335.359375 c 128,-1,16
 520.798828125 304.592773438 520.798828125 304.592773438 552.520507812 297.538085938 c 1,17,18
 791.138671875 853 791.138671875 853 1147.5 853 c 0,19,20
 1357.8671875 853 1357.8671875 853 1476.9140625 696.021484375 c 0,21,22
 1569.953125 572.436523438 1569.953125 572.436523438 1570.5625 399.588867188 c 0,23,24
 1571.04785156 204.943359375 1571.04785156 204.943359375 1441.18847656 99.9267578125 c 0,25,26
 1318.18652344 -0.0126953125 1318.18652344 -0.0126953125 1091.25683594 0.1845703125 c 2,27,-1
 710.34375 0 l 2,28,29
 479.28125 -0.1123046875 479.28125 -0.1123046875 370.752929688 106.541015625 c 1,30,31
 272.02734375 0 272.02734375 0 58.154296875 0 c 2,32,-1
 -5.0234375 0 l 2,0,1
1315.55078125 454.962890625 m 0,33,34
 1306.91113281 491.213867188 1306.91113281 491.213867188 1292.50390625 516.877929688 c 128,-1,35
 1278.09667969 542.541015625 1278.09667969 542.541015625 1256.26171875 559.39453125 c 128,-1,36
 1234.42578125 576.248046875 1234.42578125 576.248046875 1205.15332031 584.12890625 c 128,-1,37
 1175.88183594 592.010742188 1175.88183594 592.010742188 1137.12402344 592.013671875 c 0,38,39
 994.07421875 592.00390625 994.07421875 592.00390625 849.196289062 333.362304688 c 0,40,41
 832.7578125 304.016601562 832.7578125 304.016601562 816.505859375 271.52734375 c 1,42,-1
 1111.19921875 271.52734375 l 2,43,44
 1181.12988281 271.7421875 1181.12988281 271.7421875 1227.25488281 282.045898438 c 128,-1,45
 1273.37988281 292.349609375 1273.37988281 292.349609375 1290.671875 307.114257812 c 0,46,47
 1305.86816406 320.779296875 1305.86816406 320.779296875 1313.43457031 340.21484375 c 128,-1,48
 1321 359.649414062 1321 359.649414062 1321 389 c 0,49,50
 1321 429.213867188 1321 429.213867188 1315.55078125 454.962890625 c 0,33,34
EndSplineSet
EndChar

StartChar: uniFEBC
Encoding: 65212 65212 199
Width: 1734
VWidth: 2593
GlyphClass: 2
Flags: W
AnchorPoint: "Anchor-10" 689.854 1292.04 basechar 0
AnchorPoint: "Anchor-7" 719.196 -263.704 basechar 0
LayerCount: 2
Fore
SplineSet
1738.9765625 0 m 6,0,-1
 1709.9921875 0 l 2,1,2
 1552 0 1552 0 1438.20800781 98.1103515625 c 1,3,4
 1312.45996094 0.2919921875 1312.45996094 0.2919921875 1091.28417969 0.1845703125 c 2,5,-1
 711.32421875 0 l 2,6,7
 478.125 0 478.125 0 370.547851562 106.274414062 c 1,8,9
 271.788085938 -0.423828125 271.788085938 -0.423828125 58.0927734375 -0.0966796875 c 2,10,-1
 -5.0537109375 0 l 2,11,12
 -58.859375 0 -58.859375 0 -89.44140625 35.89453125 c 128,-1,13
 -120.0234375 71.7890625 -120.0234375 71.7890625 -120.0234375 128 c 2,14,-1
 -120.0234375 139.010742188 l 2,15,16
 -120.008789062 195.603515625 -120.008789062 195.603515625 -89.59765625 231.801757812 c 128,-1,17
 -59.1865234375 268 -59.1865234375 268 -5.0234375 268 c 2,18,-1
 51.2763671875 268 l 2,19,20
 145.833984375 267.991210938 145.833984375 267.991210938 186.8046875 307.6484375 c 128,-1,21
 227.774414062 347.3046875 227.774414062 347.3046875 227.774414062 437.534179688 c 2,22,-1
 227.774414062 728.1796875 l 1,23,-1
 484.579101562 728.1796875 l 1,24,-1
 485.828125 434.213867188 l 2,25,26
 486.059570312 398.959960938 486.059570312 398.959960938 491.025390625 373.412109375 c 128,-1,27
 495.9921875 347.864257812 495.9921875 347.864257812 505.317382812 332.54296875 c 128,-1,28
 514.643554688 317.221679688 514.643554688 317.221679688 526.018554688 309.077148438 c 128,-1,29
 537.393554688 300.93359375 537.393554688 300.93359375 552.529296875 297.55859375 c 1,30,31
 791.138671875 853 791.138671875 853 1147.5 853 c 0,32,33
 1356.83984375 853 1356.83984375 853 1476.90136719 695.0390625 c 0,34,35
 1569.95214844 571.436523438 1569.95214844 571.436523438 1570.56152344 399.723632812 c 0,36,37
 1570.92578125 360.21875 1570.92578125 360.21875 1565.35253906 323.76953125 c 1,38,39
 1597.25683594 295.197265625 1597.25683594 295.197265625 1633.94824219 281.598632812 c 0,40,41
 1671 268 1671 268 1716.11816406 268 c 2,42,-1
 1738.9765625 268 l 6,43,44
 1804 268 1804 268 1803.9765625 139 c 6,45,-1
 1803.9765625 128 l 6,46,47
 1804 0 1804 0 1738.9765625 0 c 6,0,-1
1315.55078125 454.962890625 m 0,48,49
 1306.91113281 491.213867188 1306.91113281 491.213867188 1292.50390625 516.877929688 c 128,-1,50
 1278.09667969 542.541015625 1278.09667969 542.541015625 1256.26171875 559.39453125 c 128,-1,51
 1234.42578125 576.248046875 1234.42578125 576.248046875 1205.15332031 584.12890625 c 128,-1,52
 1175.88183594 592.010742188 1175.88183594 592.010742188 1137.12402344 592.013671875 c 0,53,54
 994.07421875 592.00390625 994.07421875 592.00390625 849.196289062 333.362304688 c 0,55,56
 832.7578125 304.016601562 832.7578125 304.016601562 816.505859375 271.52734375 c 1,57,-1
 1111.19921875 271.52734375 l 2,58,59
 1181.12988281 271.7421875 1181.12988281 271.7421875 1227.25488281 282.045898438 c 128,-1,60
 1273.37988281 292.349609375 1273.37988281 292.349609375 1290.671875 307.114257812 c 0,61,62
 1305.86816406 320.779296875 1305.86816406 320.779296875 1313.43457031 340.21484375 c 128,-1,63
 1321 359.649414062 1321 359.649414062 1321 389 c 0,64,65
 1321 429.213867188 1321 429.213867188 1315.55078125 454.962890625 c 0,48,49
EndSplineSet
EndChar

StartChar: uniFEC2
Encoding: 65218 65218 205
Width: 1437
VWidth: 2593
GlyphClass: 2
Flags: W
AnchorPoint: "Anchor-7" 545.078 -244.734 basechar 0
AnchorPoint: "Anchor-10" 453.545 1463.1 basechar 0
LayerCount: 2
Fore
SplineSet
1441.9765625 0 m 6,0,-1
 1414.49316406 0 l 2,1,2
 1256 0 1256 0 1141.94726562 99.2392578125 c 1,3,4
 1009.32715175 0.24420432275 1009.32715175 0.24420432275 794.952148438 0.1845703125 c 2,5,-1
 71.7705078125 -0.0166015625 l 1,6,-1
 71.7705078125 269.266601562 l 1,7,-1
 235.73828125 269.044921875 l 1,8,9
 238 275 238 275 330.905273438 452 c 1,10,-1
 330.905273438 1368.640625 l 1,11,-1
 581 1368.64355469 l 1,12,-1
 581 751.250976562 l 1,13,14
 647 802 647 802 713.696289062 827.411132812 c 0,15,16
 781 853 781 853 850.17578125 853 c 0,17,18
 1065 853 1065 853 1181.66308594 697.923828125 c 0,19,20
 1277 571 1277 571 1274.23730469 399.258789062 c 0,21,22
 1274 382 1274 382 1272.828125 362.885742188 c 0,23,24
 1272 344 1272 344 1269.12890625 324.889648438 c 1,25,26
 1332 268 1332 268 1419.61914062 268 c 2,27,-1
 1441.9765625 268 l 6,28,29
 1507 268 1507 268 1506.9765625 139 c 6,30,-1
 1506.9765625 128 l 6,31,32
 1507 0 1507 0 1441.9765625 0 c 6,0,-1
1019.27050781 454.779296875 m 0,33,34
 1002 527 1002 527 961.734375 559.467773438 c 0,35,36
 921 592 921 592 847.799804688 592.013671875 c 0,37,38
 822 592 822 592 796.172851562 583.888671875 c 0,39,40
 770 576 770 576 743.142578125 559.17578125 c 0,41,42
 716 543 716 543 688.552734375 516.391601562 c 0,43,44
 661 490 661 490 633.197265625 455.055664062 c 0,45,46
 605 420 605 420 576.858398438 373.6171875 c 0,47,48
 548 327 548 327 520.266601562 271.52734375 c 1,49,-1
 814.875 271.52734375 l 2,50,51
 885.309784981 272.038536707 885.309784981 272.038536707 931.1875 282.026367188 c 128,-1,52
 977 292 977 292 994.330078125 307.09765625 c 0,53,54
 1009 320 1009 320 1017.15234375 339.950195312 c 0,55,56
 1025 359 1025 359 1024.67480469 389.055664062 c 0,57,58
 1025 410 1025 410 1023.42382812 426.251953125 c 0,59,60
 1022 443 1022 443 1019.27050781 454.779296875 c 0,33,34
EndSplineSet
EndChar

StartChar: uniFEC3
Encoding: 65219 65219 206
Width: 1170
VWidth: 2593
GlyphClass: 2
Flags: W
AnchorPoint: "Anchor-10" 254.277 1457.82 basechar 0
AnchorPoint: "Anchor-7" 348.078 -262.734 basechar 0
LayerCount: 2
Fore
SplineSet
-5.0234375 0 m 2,0,1
 -41 0 -41 0 -67.34765625 16.9580078125 c 0,2,3
 -94 34 -94 34 -106.876953125 62.619140625 c 0,4,5
 -120.0234375 91.0506876488 -120.0234375 91.0506876488 -120.0234375 128 c 2,6,-1
 -120.0234375 139.010742188 l 2,7,8
 -120 196 -120 196 -89.59765625 231.801757812 c 0,9,10
 -59 268 -59 268 -5.0234375 268 c 2,11,-1
 54.685546875 268 l 5,12,13
 102 360 102 360 149.689453125 452.0625 c 5,14,-1
 149.689453125 1368.84375 l 5,15,-1
 399.784179688 1368.84375 l 5,16,-1
 399.784179688 751.220703125 l 5,17,18
 466 802 466 802 532.3125 827.580078125 c 4,19,20
 599 853 599 853 667.955078125 853.200195312 c 4,21,22
 884 853 884 853 1000.41210938 698.170898438 c 4,23,24
 1092 576 1092 576 1093.02246094 399.791992188 c 4,25,26
 1094 219 1094 219 965.41015625 101.641601562 c 4,27,28
 853 0 853 0 613.724609375 0 c 6,29,-1
 -5.0234375 0 l 2,0,1
838.12890625 454.663085938 m 4,30,31
 821 527 821 527 778.647460938 559.342773438 c 4,32,33
 736 592 736 592 659.578125 592.213867188 c 4,34,35
 584 592 584 592 502.1484375 512.973632812 c 4,36,37
 420 434 420 434 338.701171875 268.727539062 c 5,38,-1
 633.685546875 268.727539062 l 6,39,40
 675 269 675 269 719.905273438 274.1484375 c 4,41,42
 758 279 758 279 780.25390625 287.141601562 c 4,43,44
 802 295 802 295 812.965820312 304.16796875 c 4,45,46
 823 313 823 313 829.794921875 324.782226562 c 4,47,48
 836 336 836 336 840.008789062 352.205078125 c 4,49,50
 844 368 844 368 843.4609375 388.872070312 c 4,51,52
 843 434 843 434 838.12890625 454.663085938 c 4,30,31
EndSplineSet
EndChar

StartChar: uniFEC4
Encoding: 65220 65220 207
Width: 1254
VWidth: 2593
GlyphClass: 2
Flags: W
AnchorPoint: "Anchor-10" 260.783 1458.53 basechar 0
AnchorPoint: "Anchor-7" 490.837 -254.314 basechar 0
LayerCount: 2
Fore
SplineSet
1258.9765625 0 m 6,0,-1
 1232.27734375 0 l 2,1,2
 1073 0 1073 0 959.58984375 99.5595703125 c 1,3,4
 823.334048096 0.515922936018 823.334048096 0.515922936018 612.75 0.384765625 c 2,5,-1
 -5.0234375 0 l 2,6,7
 -41 -0 -41 -0 -67.34765625 16.9580078125 c 0,8,9
 -94 34 -94 34 -106.876953125 62.619140625 c 0,10,11
 -120.0234375 91.0506876488 -120.0234375 91.0506876488 -120.0234375 128 c 2,12,-1
 -120.0234375 139.010742188 l 2,13,14
 -120 196 -120 196 -89.59765625 231.801757812 c 0,15,16
 -59 268 -59 268 -5.0234375 268 c 2,17,-1
 53.685546875 268 l 1,18,19
 101 360 101 360 148.689453125 452.0625 c 1,20,-1
 148.689453125 1368.84375 l 1,21,-1
 398.784179688 1368.84375 l 1,22,-1
 398.784179688 751.305664062 l 1,23,24
 531 853 531 853 667.955078125 853.200195312 c 0,25,26
 883 853 883 853 999.395507812 698.192382812 c 0,27,28
 1093 574 1093 574 1092.02246094 399.537109375 c 0,29,30
 1092 364 1092 364 1086.984375 325.022460938 c 1,31,32
 1119 296 1119 296 1155.734375 282.00390625 c 0,33,34
 1193 268 1193 268 1237.40332031 268 c 2,35,-1
 1258.9765625 268 l 6,36,37
 1324 268 1324 268 1323.9765625 139 c 6,38,-1
 1323.9765625 128 l 6,39,40
 1324 0 1324 0 1258.9765625 0 c 6,0,-1
837.07421875 454.893554688 m 0,41,42
 830.322265625 483.959960938 830.322265625 483.959960938 819.9921875 506.166015625 c 128,-1,43
 809.661132812 528.373046875 809.661132812 528.373046875 795.228515625 544.759765625 c 128,-1,44
 780.795898438 561.147460938 780.795898438 561.147460938 761.678710938 571.583984375 c 128,-1,45
 742.561523438 582.021484375 742.561523438 582.021484375 718.830078125 587.098632812 c 128,-1,46
 695.098632812 592.176757812 695.098632812 592.176757812 665.577148438 592.213867188 c 0,47,48
 586.143554688 592.131835938 586.143554688 592.131835938 503.103515625 513.828125 c 128,-1,49
 420.063476562 435.524414062 420.063476562 435.524414062 337.955078125 271.727539062 c 1,50,-1
 632.685546875 271.727539062 l 2,51,52
 703.098632812 271.8515625 703.098632812 271.8515625 749.100585938 282.103515625 c 128,-1,53
 795.102539062 292.35546875 795.102539062 292.35546875 812.149414062 307.329101562 c 0,54,55
 842.11328125 333.342773438 842.11328125 333.342773438 842.461914062 389.565429688 c 0,56,57
 842.944335938 429.6484375 842.944335938 429.6484375 837.07421875 454.893554688 c 0,41,42
EndSplineSet
EndChar

StartChar: uniFECA
Encoding: 65226 65226 213
Width: 1297
VWidth: 2593
GlyphClass: 2
Flags: W
AnchorPoint: "Anchor-10" 574.282 1388.27 basechar 0
AnchorPoint: "Anchor-7" 242.935 -721.024 basechar 0
LayerCount: 2
Fore
SplineSet
1301.9765625 0 m 2,0,-1
 1148.21679688 0 l 2,1,2
 1013 0 1013 0 890.680664062 37.2431640625 c 0,3,4
 768.607421875 74.4853515625 768.607421875 74.4853515625 662.977539062 147.885742188 c 1,5,6
 329.353515625 40.5654296875 329.353515625 40.5654296875 325.681640625 -158.447265625 c 0,7,8
 323.145507812 -325.775390625 323.145507812 -325.775390625 445.182617188 -409.0859375 c 128,-1,9
 567.220703125 -492.396484375 567.220703125 -492.396484375 834.442382812 -492.172851562 c 2,10,-1
 1177.33007812 -491.885742188 l 1,11,-1
 1177.33007812 -755.587890625 l 1,12,-1
 822.309570312 -754.58203125 l 2,13,14
 419.0078125 -752.934570312 419.0078125 -752.934570312 244.487304688 -587.817382812 c 0,15,16
 66.763671875 -417.869140625 66.763671875 -417.869140625 70.1142578125 -175.044921875 c 0,17,18
 72.98828125 -1.99609375 72.98828125 -1.99609375 162.975585938 124.33203125 c 128,-1,19
 252.962890625 250.661132812 252.962890625 250.661132812 423.512695312 324.372070312 c 1,20,21
 324.869140625 402.774414062 324.869140625 402.774414062 274.493164062 473.5546875 c 128,-1,22
 224.1171875 544.333984375 224.1171875 544.333984375 225.482421875 613.887695312 c 0,23,24
 227 685.916015625 227 685.916015625 268.740234375 741.8125 c 128,-1,25
 310.481445312 797.708007812 310.481445312 797.708007812 386.26171875 834.015625 c 0,26,27
 482.943359375 879.985351562 482.943359375 879.985351562 685.1328125 880.323242188 c 0,28,29
 819.943359375 880.153320312 819.943359375 880.153320312 914.525390625 856.30859375 c 128,-1,30
 1009.10644531 832.462890625 1009.10644531 832.462890625 1065.26757812 780.58203125 c 0,31,32
 1103.50488281 745.638671875 1103.50488281 745.638671875 1123.83203125 702.596679688 c 128,-1,33
 1144.16015625 659.553710938 1144.16015625 659.553710938 1144.40625 611.05859375 c 0,34,35
 1144.30371094 563.389648438 1144.30371094 563.389648438 1129.09570312 518.844726562 c 128,-1,36
 1113.88769531 474.298828125 1113.88769531 474.298828125 1084.49804688 434.208007812 c 128,-1,37
 1055.109375 394.116210938 1055.109375 394.116210938 1013.46191406 358.125976562 c 128,-1,38
 971.815429688 322.135742188 971.815429688 322.135742188 917.418945312 289.4921875 c 1,39,40
 961.174804688 278.876953125 961.174804688 278.876953125 1021.72558594 273.438476562 c 0,41,42
 1082 268 1082 268 1159.4453125 268 c 2,43,-1
 1301.9765625 268 l 2,44,45
 1367 268 1367 268 1366.9765625 139 c 2,46,-1
 1366.9765625 128 l 2,47,48
 1367 0 1367 0 1301.9765625 0 c 2,0,-1
876.833007812 580.30859375 m 0,49,50
 877 586 877 586 872.41015625 591.373046875 c 0,51,52
 868 597 868 597 854.901367188 604.625976562 c 0,53,54
 842 612 842 612 821.302734375 617.798828125 c 0,55,56
 801 624 801 624 764.576171875 627.641601562 c 0,57,58
 728 632 728 632 681.71875 631.885742188 c 0,59,60
 639 632 639 632 605.975585938 628.263671875 c 0,61,62
 573 625 573 625 555.142578125 619.500976562 c 0,63,64
 537 614 537 614 526.01953125 607.897460938 c 0,65,66
 515 601 515 601 511.391601562 596.787109375 c 0,67,68
 508 592 508 592 508.056640625 588.469726562 c 0,69,70
 508 588 508 588 509.119140625 585.833984375 c 0,71,72
 510 584 510 584 511.678710938 581.356445312 c 0,73,74
 527 556 527 556 567.3984375 520.284179688 c 4,75,76
 627 467 627 467 679.619140625 435.297851562 c 1,77,78
 708 446 708 446 732.759765625 458.01171875 c 0,79,80
 758 470 758 470 780.5 483.743164062 c 0,81,82
 803 497 803 497 823.9609375 512.970703125 c 0,83,84
 876 552 876 552 876.833007812 580.30859375 c 0,49,50
EndSplineSet
EndChar

StartChar: uniFECB
Encoding: 65227 65227 214
Width: 1083
VWidth: 2593
GlyphClass: 2
Flags: W
AnchorPoint: "Anchor-10" 394.602 1461.91 basechar 0
AnchorPoint: "Anchor-7" 545.228 -222.038 basechar 0
LayerCount: 2
Fore
SplineSet
-5.0234375 0 m 2,0,1
 -58.85546875 0 -58.85546875 0 -89.431640625 35.8876953125 c 128,-1,2
 -120.008789062 71.775390625 -120.008789062 71.775390625 -120.0234375 128 c 2,3,-1
 -120.0234375 139 l 2,4,5
 -120.0234375 195.59765625 -120.0234375 195.59765625 -89.609375 231.798828125 c 128,-1,6
 -59.1962890625 268 -59.1962890625 268 -5.0234375 268 c 2,7,-1
 215.159179688 268 l 1,8,9
 127.060546875 380.536132812 127.060546875 380.536132812 127.352539062 523.323242188 c 0,10,11
 128.060546875 712.34765625 128.060546875 712.34765625 248.344726562 835.586914062 c 0,12,13
 370.172851562 959.986328125 370.172851562 959.986328125 584.305664062 960.165039062 c 0,14,15
 810.118164062 959.984375 810.118164062 959.984375 944.114257812 794.138671875 c 2,16,-1
 960.93359375 773.3203125 l 1,17,-1
 848.520507812 567.448242188 l 1,18,-1
 810.762695312 604.25 l 2,19,20
 780.438476562 633.805664062 780.438476562 633.805664062 746.20703125 653.180664062 c 128,-1,21
 711.975585938 672.555664062 711.975585938 672.555664062 672.729492188 682.190429688 c 128,-1,22
 633.482421875 691.825195312 633.482421875 691.825195312 588.620117188 691.75 c 0,23,24
 521.625 691.862304688 521.625 691.862304688 477.166992188 673.750976562 c 128,-1,25
 432.709960938 655.638671875 432.709960938 655.638671875 406.3046875 620.44921875 c 0,26,27
 401.9296875 614.609375 401.9296875 614.609375 398.170898438 608.387695312 c 128,-1,28
 394.412109375 602.165039062 394.412109375 602.165039062 391.188476562 595.37109375 c 128,-1,29
 387.96484375 588.577148438 387.96484375 588.577148438 385.376953125 581.34375 c 128,-1,30
 382.788085938 574.110351562 382.788085938 574.110351562 380.784179688 566.249023438 c 128,-1,31
 378.78125 558.388671875 378.78125 558.388671875 377.427734375 550.03125 c 128,-1,32
 376.07421875 541.673828125 376.07421875 541.673828125 375.35546875 532.633789062 c 128,-1,33
 374.63671875 523.59375 374.63671875 523.59375 374.584960938 514 c 0,34,35
 374.92578125 426.3125 374.92578125 426.3125 463.807617188 355.370117188 c 0,36,37
 494.9296875 330.388671875 494.9296875 330.388671875 524.857421875 318.8125 c 128,-1,38
 554.784179688 307.235351562 554.784179688 307.235351562 585.483398438 307.395507812 c 0,39,40
 608.669921875 307.271484375 608.669921875 307.271484375 632.23046875 308.971679688 c 128,-1,41
 655.791992188 310.671875 655.791992188 310.671875 680.0234375 314.232421875 c 128,-1,42
 704.254882812 317.79296875 704.254882812 317.79296875 729.26171875 323.239257812 c 2,43,-1
 1012 385.086914062 l 1,44,-1
 1012 114.727539062 l 1,45,-1
 982.866210938 106.50390625 l 2,46,47
 605.537109375 0 605.537109375 0 304.7578125 0 c 2,48,-1
 -5.0234375 0 l 2,0,1
EndSplineSet
EndChar

StartChar: uniFECC
Encoding: 65228 65228 215
Width: 1104
VWidth: 2593
GlyphClass: 2
Flags: W
AnchorPoint: "Anchor-10" 505.677 1248.6 basechar 0
AnchorPoint: "Anchor-7" 456.382 -223.212 basechar 0
LayerCount: 2
Fore
SplineSet
1058.58203125 0 m 2,0,1
 736.219296926 0 736.219296926 0 558.478515625 111.834960938 c 1,2,3
 395.3203125 0 395.3203125 0 35.9580078125 0 c 2,4,-1
 -5.0234375 0 l 2,5,6
 -58.85546875 0 -58.85546875 0 -89.431640625 35.8876953125 c 128,-1,7
 -120.008789062 71.775390625 -120.008789062 71.775390625 -120.0234375 128 c 2,8,-1
 -120.0234375 139 l 2,9,10
 -120.0234375 195.59765625 -120.0234375 195.59765625 -89.609375 231.798828125 c 128,-1,11
 -59.1962890625 268 -59.1962890625 268 -5.0234375 268 c 2,12,-1
 35.330078125 268 l 2,13,14
 213.869140625 268 213.869140625 268 312.935546875 282.752929688 c 1,15,16
 79.0234375 430.4765625 79.0234375 430.4765625 82.4833984375 583.935546875 c 0,17,18
 85.5147264497 731.458199422 85.5147264497 731.458199422 237.275390625 804.022460938 c 0,19,20
 333.944335938 849.985351562 333.944335938 849.985351562 539.930664063 849.986328125 c 0,21,22
 818.580541786 849.987649179 818.580541786 849.987649179 921.231445312 767.463867188 c 0,23,24
 1003.29048996 701.492054164 1003.29048996 701.492054164 1005.34277344 581.56640625 c 0,25,26
 1006.97460938 435.485351562 1006.97460938 435.485351562 790.470703125 282.249023438 c 1,27,28
 895 268 895 268 1065.32910156 268 c 2,29,-1
 1108.9765625 268 l 2,30,31
 1174 268 1174 268 1173.9765625 139 c 2,32,-1
 1173.9765625 128 l 2,33,34
 1174 0 1174 0 1108.9765625 0 c 2,35,-1
 1058.58203125 0 l 2,0,1
730.83984375 553.009765625 m 0,36,37
 731 556 731 556 729.6015625 559.1953125 c 0,38,39
 697 602 697 602 548.71484375 601.885742188 c 0,40,41
 477 602 477 602 432.352539062 592.069335938 c 0,42,43
 355 574 355 574 366.301757812 550.232421875 c 0,44,45
 377 527 377 527 425.836914062 491.174804688 c 0,46,47
 515 427 515 427 559.057617188 405.84765625 c 1,48,49
 603 425 603 425 672.670898438 483.750976562 c 4,50,51
 730 532 730 532 730.83984375 553.009765625 c 0,36,37
EndSplineSet
EndChar

StartChar: uniFEDA
Encoding: 65242 65242 229
Width: 2059
VWidth: 2593
GlyphClass: 2
Flags: W
AnchorPoint: "Anchor-10" 657.624 1569.46 basechar 0
AnchorPoint: "Anchor-7" 564.902 -273.681 basechar 0
LayerCount: 2
Fore
SplineSet
2064.75195312 -1.06640625 m 2,0,-1
 2007.74121094 -1.06640625 l 2,1,2
 1821 -1 1821 -1 1709.96777344 106.541992188 c 1,3,4
 1598.93147836 -1.06640625 1598.93147836 -1.06640625 1415.66992188 -1.06640625 c 2,5,-1
 513.987304688 -1.06640625 l 2,6,7
 234.852488468 -0.663332042556 234.852488468 -0.663332042556 143.017578125 236.729492188 c 0,8,9
 102.199606329 340.74922796 102.199606329 340.74922796 102.1953125 480.825195312 c 2,10,-1
 102.1875 735.689453125 l 1,11,-1
 360.944335938 735.689453125 l 1,12,-1
 360.944335938 491.580078125 l 2,13,14
 361 371 361 371 399.413762182 319.615234375 c 128,-1,15
 437.827524363 268.23046875 437.827524363 268.23046875 518.510742188 268.23046875 c 2,16,-1
 1422.79980469 268.23046875 l 2,17,18
 1510 268 1510 268 1547.97460938 311.796875 c 4,19,20
 1585.45605469 356.544465353 1585.45605469 356.544465353 1585.45605469 456.446289062 c 6,21,-1
 1585.45605469 1367.22460938 l 5,22,-1
 1839.21289062 1367.18847656 l 1,23,-1
 1839.21289062 430.97265625 l 2,24,25
 1839 348 1839 348 1880.67871094 309.0859375 c 0,26,27
 1922.49574471 270.543070839 1922.49574471 270.543070839 2019.15332031 268.098632812 c 2,28,-1
 2065.76171875 266.919921875 l 2,29,30
 2139.60424763 264.992207037 2139.60424763 264.992207037 2166.67382812 202.954101562 c 0,31,32
 2179.734375 175.557197393 2179.734375 175.557197393 2179.734375 137.93359375 c 2,33,-1
 2179.734375 126.994140625 l 2,34,35
 2180 71 2180 71 2149.5 35 c 128,-1,36
 2119 -1 2119 -1 2064.75195312 -1.06640625 c 2,0,-1
759.555664062 823.330078125 m 2,37,38
 772.923828125 821.645507812 772.923828125 821.645507812 785.088867188 820.315429688 c 128,-1,39
 797.25390625 818.986328125 797.25390625 818.986328125 807.864257812 818.041992188 c 128,-1,40
 818.474609375 817.096679688 818.474609375 817.096679688 827.833984375 816.497070312 c 128,-1,41
 837.193359375 815.897460938 837.193359375 815.897460938 845.063476562 815.650390625 c 128,-1,42
 852.93359375 815.404296875 852.93359375 815.404296875 859.50390625 815.4921875 c 0,43,44
 927.755859375 815.267578125 927.755859375 815.267578125 970.731445312 826.237304688 c 128,-1,45
 1013.70800781 837.206054688 1013.70800781 837.206054688 1029.97460938 853.928710938 c 0,46,47
 1047.89355469 872.219726562 1047.89355469 872.219726562 1048.09863281 882.260742188 c 0,48,49
 1047.83984375 899.908203125 1047.83984375 899.908203125 990.938476562 908.998046875 c 0,50,51
 956.923828125 914.404296875 956.923828125 914.404296875 929.290039062 923.8984375 c 128,-1,52
 901.65625 933.393554688 901.65625 933.393554688 878.061523438 949.056640625 c 128,-1,53
 854.466796875 964.720703125 854.466796875 964.720703125 838.368164062 985.91796875 c 0,54,55
 771.669921875 1074.34667969 771.669921875 1074.34667969 801.8828125 1170.54003906 c 0,56,57
 856.951171875 1344.63574219 856.951171875 1344.63574219 1148.52148438 1366.29980469 c 2,58,-1
 1220.75488281 1371.66699219 l 1,59,-1
 1220.75488281 1191.28027344 l 1,60,-1
 1158.9375 1186.25097656 l 2,61,62
 1107.0234375 1182.07910156 1107.0234375 1182.07910156 1069.78027344 1173.47753906 c 128,-1,63
 1032.53710938 1164.875 1032.53710938 1164.875 1014.17285156 1154.04882812 c 128,-1,64
 995.80859375 1143.22265625 995.80859375 1143.22265625 987.875976562 1133.3046875 c 128,-1,65
 979.942382812 1123.38574219 979.942382812 1123.38574219 979.63671875 1113.24023438 c 0,66,67
 979.743164062 1107.47949219 979.743164062 1107.47949219 980.46484375 1104.23242188 c 128,-1,68
 981.185546875 1100.98535156 981.185546875 1100.98535156 983.809570312 1097.41992188 c 128,-1,69
 986.432617188 1093.85449219 986.432617188 1093.85449219 991.802734375 1091.09667969 c 128,-1,70
 997.172851562 1088.33789062 997.172851562 1088.33789062 1006.30566406 1085.34082031 c 0,71,72
 1030.41503906 1077.05957031 1030.41503906 1077.05957031 1078.67382812 1070.15136719 c 0,73,74
 1142.45800781 1060.70214844 1142.45800781 1060.70214844 1185.66503906 1019.35058594 c 0,75,76
 1232.10546875 975.013671875 1232.10546875 975.013671875 1231.65039062 901.016601562 c 0,77,78
 1232.07128906 832.469726562 1232.07128906 832.469726562 1202.16113281 785.444335938 c 0,79,80
 1075.69140625 584.154296875 1075.69140625 584.154296875 740.762695312 636.504882812 c 2,81,-1
 683.897460938 645.393554688 l 1,82,-1
 683.897460938 832.864257812 l 1,83,-1
 759.555664062 823.330078125 l 2,37,38
EndSplineSet
EndChar

StartChar: uniFEDB
Encoding: 65243 65243 230
Width: 908
VWidth: 2593
GlyphClass: 2
Flags: W
AnchorPoint: "Anchor-10" 296.18 1486.67 basechar 0
AnchorPoint: "Anchor-7" 421.179 -234.565 basechar 0
LayerCount: 2
Fore
SplineSet
-5.033203125 0 m 2,0,1
 -40.970703125 0.0087890625 -40.970703125 0.0087890625 -67.3505859375 16.9677734375 c 128,-1,2
 -93.7314453125 33.92578125 -93.7314453125 33.92578125 -106.876953125 62.626953125 c 128,-1,3
 -120.0234375 91.3271484375 -120.0234375 91.3271484375 -120.0234375 128 c 2,4,-1
 -120.0234375 139.010742188 l 2,5,6
 -120.008789062 195.603515625 -120.008789062 195.603515625 -89.59765625 231.801757812 c 128,-1,7
 -59.1865234375 268 -59.1865234375 268 -5.0234375 268 c 2,8,-1
 342.91796875 268 l 2,9,10
 391.456054688 268 391.456054688 268 424.7578125 274.478515625 c 128,-1,11
 458.05859375 280.95703125 458.05859375 280.95703125 476.529296875 293.916015625 c 128,-1,12
 495 306.875 495 306.875 502.793945312 323.447265625 c 128,-1,13
 510.587890625 340.018554688 510.587890625 340.018554688 510.708984375 362.9765625 c 0,14,15
 510.783203125 377.446289062 510.783203125 377.446289062 486.173828125 418.836914062 c 128,-1,16
 461.564453125 460.227539062 461.564453125 460.227539062 413.575195312 514.94140625 c 2,17,-1
 142.7890625 823.668945312 l 2,18,19
 113.256835938 857.333007812 113.256835938 857.333007812 93.025390625 881.689453125 c 128,-1,20
 72.794921875 906.046875 72.794921875 906.046875 61.2998046875 921.87890625 c 0,21,22
 25.9521484375 969.083007812 25.9521484375 969.083007812 31.75390625 1043.66308594 c 0,23,24
 34.1650390625 1071.90429688 34.1650390625 1071.90429688 41.5537109375 1097.10351562 c 128,-1,25
 48.9423828125 1122.30175781 48.9423828125 1122.30175781 61.22265625 1143.95605469 c 128,-1,26
 73.5029296875 1165.61132812 73.5029296875 1165.61132812 90.322265625 1183.39941406 c 128,-1,27
 107.141601562 1201.1875 107.141601562 1201.1875 128.748046875 1214.875 c 128,-1,28
 150.354492188 1228.56347656 150.354492188 1228.56347656 176.061523438 1237.56054688 c 2,29,-1
 876.5 1482.71875 l 1,30,-1
 876.5 1213.55371094 l 1,31,-1
 316.465820312 1017.81445312 l 1,32,-1
 597.005859375 698.8828125 l 2,33,34
 771.64453125 500.2109375 771.64453125 500.2109375 752.454101562 321.092773438 c 0,35,36
 746.286132812 264.764648438 746.286132812 264.764648438 725.540039062 215.684570312 c 128,-1,37
 704.793945312 166.60546875 704.793945312 166.60546875 670.08203125 125.916992188 c 128,-1,38
 635.370117188 85.228515625 635.370117188 85.228515625 587.369140625 53.6474609375 c 0,39,40
 505.810546875 -0.125 505.810546875 -0.125 391.416992188 -0.0966796875 c 2,41,-1
 -5.033203125 0 l 2,0,1
EndSplineSet
EndChar

StartChar: uniFEDC
Encoding: 65244 65244 231
Width: 1066
VWidth: 2593
GlyphClass: 2
Flags: W
AnchorPoint: "Anchor-10" 293.27 1421.68 basechar 0
AnchorPoint: "Anchor-7" 307.814 -291.873 basechar 0
LayerCount: 2
Fore
SplineSet
1071.19628906 -0.48046875 m 2,0,-1
 1056.40234375 -0.48046875 l 2,1,2
 861.220703125 -0.017578125 861.220703125 -0.017578125 706.432617188 181.881835938 c 1,3,4
 606.862304688 -1.794921875 606.862304688 -1.794921875 358.3984375 -1.06640625 c 2,5,-1
 -5.08203125 0 l 2,6,7
 -58.8544921875 0 -58.8544921875 0 -89.439453125 35.8984375 c 128,-1,8
 -120.0234375 71.796875 -120.0234375 71.796875 -120.0234375 128 c 2,9,-1
 -120.0234375 139.010742188 l 2,10,11
 -120.008789062 195.603515625 -120.008789062 195.603515625 -89.59765625 231.801757812 c 128,-1,12
 -59.1865234375 268 -59.1865234375 268 -5.0234375 268 c 2,13,-1
 340.0078125 268 l 2,14,15
 388.559570312 268 388.559570312 268 421.893554688 274.451171875 c 128,-1,16
 455.227539062 280.903320312 455.227539062 280.903320312 473.6640625 293.765625 c 128,-1,17
 492.100585938 306.62890625 492.100585938 306.62890625 499.881835938 322.999023438 c 128,-1,18
 507.6640625 339.369140625 507.6640625 339.369140625 507.798828125 361.990234375 c 0,19,20
 507.811523438 365.4375 507.811523438 365.4375 506.196289062 371.030273438 c 128,-1,21
 504.581054688 376.622070312 504.581054688 376.622070312 500.93359375 384.825195312 c 128,-1,22
 497.286132812 393.028320312 497.286132812 393.028320312 491.959960938 402.84765625 c 128,-1,23
 486.633789062 412.666992188 486.633789062 412.666992188 478.647460938 425.150390625 c 128,-1,24
 470.661132812 437.634765625 470.661132812 437.634765625 460.983398438 451.166992188 c 128,-1,25
 451.3046875 464.698242188 451.3046875 464.698242188 438.33984375 480.94921875 c 128,-1,26
 425.374023438 497.200195312 425.374023438 497.200195312 410.665039062 513.970703125 c 2,27,-1
 139.978515625 822.5859375 l 2,28,29
 92.998046875 875.319335938 92.998046875 875.319335938 58.6904296875 920.697265625 c 0,30,31
 22.923828125 968.004882812 22.923828125 968.004882812 28.845703125 1042.69335938 c 0,32,33
 34.8544921875 1114.28613281 34.8544921875 1114.28613281 71.8486328125 1164.71875 c 128,-1,34
 108.842773438 1215.15039062 108.842773438 1215.15039062 173.206054688 1237.58105469 c 2,35,-1
 873.58984375 1481.66113281 l 1,36,-1
 873.58984375 1212.44335938 l 1,37,-1
 313.495117188 1019.62109375 l 1,38,-1
 850.416015625 410.084960938 l 2,39,40
 893.1328125 361.68359375 893.1328125 361.68359375 932.21484375 328.922851562 c 128,-1,41
 971.296875 296.162109375 971.296875 296.162109375 999.108398438 282.27734375 c 128,-1,42
 1026.91992188 268.392578125 1026.91992188 268.392578125 1047.33691406 267.9921875 c 2,43,-1
 1071.87890625 267.51171875 l 2,44,45
 1107.60644531 266.787109375 1107.60644531 266.787109375 1133.77539062 249.58203125 c 128,-1,46
 1159.9453125 232.377929688 1159.9453125 232.377929688 1173.00683594 203.706054688 c 128,-1,47
 1186.06835938 175.03515625 1186.06835938 175.03515625 1186.06835938 138.51953125 c 2,48,-1
 1186.06835938 127.48828125 l 2,49,50
 1186.02441406 71.51171875 1186.02441406 71.51171875 1155.53027344 35.6884765625 c 128,-1,51
 1125.03613281 -0.134765625 1125.03613281 -0.134765625 1071.19628906 -0.48046875 c 2,0,-1
EndSplineSet
EndChar

StartChar: uniFEDE
Encoding: 65246 65246 233
Width: 1507
VWidth: 2593
GlyphClass: 2
Flags: W
AnchorPoint: "Anchor-10" 482.754 1201.62 basechar 0
AnchorPoint: "Anchor-7" 308.91 -637.293 basechar 0
LayerCount: 2
Fore
SplineSet
1511.9765625 0 m 2,0,-1
 1490.84960938 0 l 2,1,2
 1374 0 1374 0 1301.8046875 39.2587890625 c 1,3,4
 1284 -192 1284 -192 1140.72949219 -314.68359375 c 0,5,6
 997.746332019 -437.21738854 997.746332019 -437.21738854 741.654296875 -445.049804688 c 2,7,-1
 721.985351562 -445.651367188 l 1,8,-1
 694.211914062 -445.651367188 l 2,9,10
 272 -446 272 -446 134.193359375 -165.1640625 c 0,11,12
 71.1846992405 -37.3745932364 71.1846992405 -37.3745932364 71.12109375 143.262695312 c 2,13,-1
 70.986328125 525.9921875 l 1,14,-1
 329.877929688 526.041015625 l 1,15,-1
 329.877929688 144.462890625 l 2,16,17
 330 -20 330 -20 417.870117188 -98.279296875 c 0,18,19
 506.401969536 -176.354492188 506.401969536 -176.354492188 696.356445312 -176.354492188 c 2,20,-1
 721.217773438 -176.354492188 l 1,21,-1
 748.485351562 -175.774414062 l 2,22,23
 907 -172 907 -172 979.112304688 -105.78125 c 0,24,25
 1056.36401395 -33.6601618012 1056.36401395 -33.6601618012 1056.36523438 98.416015625 c 6,26,-1
 1056.37695312 1366.63671875 l 5,27,-1
 1305.29882812 1366.63671875 l 1,28,-1
 1305.29882812 473.765625 l 2,29,30
 1305 398 1305 398 1324.40722656 354.208007812 c 0,31,32
 1344 309 1344 309 1382.49511719 288.456054688 c 128,-1,33
 1421 268 1421 268 1484.24902344 268 c 2,34,-1
 1511.9765625 268 l 2,35,36
 1566 268 1566 268 1596.47851562 231.797851562 c 0,37,38
 1626.9765625 196.027489231 1626.9765625 196.027489231 1626.9765625 139 c 2,39,-1
 1626.9765625 128.010742188 l 2,40,41
 1627 91 1627 91 1613.90625 62.666015625 c 0,42,43
 1601 34 1601 34 1574.43261719 16.9912109375 c 128,-1,44
 1548 0 1548 0 1511.9765625 0 c 2,0,-1
EndSplineSet
EndChar

StartChar: uniFEDF
Encoding: 65247 65247 234
Width: 609
VWidth: 2593
GlyphClass: 2
Flags: W
AnchorPoint: "Anchor-10" 345.682 1473.64 basechar 0
AnchorPoint: "Anchor-7" 181.01 -202.415 basechar 0
LayerCount: 2
Fore
SplineSet
-5.0234375 0 m 2,0,1
 -41 0 -41 0 -67.34765625 16.9580078125 c 0,2,3
 -94 34 -94 34 -106.876953125 62.619140625 c 0,4,5
 -120.0234375 91.0506876488 -120.0234375 91.0506876488 -120.0234375 128 c 2,6,-1
 -120.0234375 139.010742188 l 2,7,8
 -120 196 -120 196 -89.59765625 231.801757812 c 0,9,10
 -59 268 -59 268 -5.0234375 268 c 2,11,-1
 101.969726562 268 l 6,12,13
 178 268 178 268 211.833007812 307.822265625 c 4,14,15
 245.95703125 347.949472081 245.95703125 347.949472081 245.95703125 442.866210938 c 6,16,-1
 245.95703125 1368.15820312 l 5,17,-1
 499.71484375 1368.15820312 l 1,18,-1
 499.71484375 434.967773438 l 2,19,20
 500 224 500 224 396.591796875 112.209960938 c 0,21,22
 293 0 293 0 96.173828125 0 c 2,23,-1
 -5.0234375 0 l 2,0,1
EndSplineSet
EndChar

StartChar: uniFEE0
Encoding: 65248 65248 235
Width: 699
VWidth: 2593
GlyphClass: 2
Flags: W
AnchorPoint: "Anchor-10" 373.225 1565.2 basechar 0
AnchorPoint: "Anchor-7" 291.065 -252.554 basechar 0
LayerCount: 2
Fore
SplineSet
704.518554688 0 m 6,0,-1
 659.068359375 0 l 2,1,2
 496 0 496 0 372.610351562 119.6953125 c 1,3,4
 258 0 258 0 89.7177734375 0 c 2,5,-1
 -5.0234375 0 l 2,6,7
 -41 0 -41 0 -67.34765625 16.9580078125 c 0,8,9
 -94 34 -94 34 -106.876953125 62.619140625 c 0,10,11
 -120.0234375 91.0506876488 -120.0234375 91.0506876488 -120.0234375 128 c 2,12,-1
 -120.0234375 139.010742188 l 2,13,14
 -120 196 -120 196 -89.59765625 231.801757812 c 0,15,16
 -59 268 -59 268 -5.0234375 268 c 2,17,-1
 87.873046875 268 l 2,18,19
 173 268 173 268 211.102539062 316.46484375 c 0,20,21
 248.931640625 364.912452368 248.931640625 364.912452368 248.931640625 479.43359375 c 2,22,-1
 248.931640625 1367.72753906 l 1,23,-1
 499.02734375 1367.72753906 l 1,24,-1
 499.02734375 478.254882812 l 2,25,26
 499 365 499 365 539.776367188 316.5546875 c 0,27,28
 581 268 581 268 668.973632812 268 c 2,29,-1
 704.518554688 268 l 6,30,31
 769 268 769 268 769.518554688 139 c 6,32,-1
 769.518554688 128 l 6,33,34
 769 0 769 0 704.518554688 0 c 6,0,-1
EndSplineSet
EndChar

StartChar: uniFEE2
Encoding: 65250 65250 237
Width: 1380
VWidth: 2593
GlyphClass: 2
Flags: W
AnchorPoint: "Anchor-10" 609.565 1194.03 basechar 0
LayerCount: 2
Fore
SplineSet
1384.9765625 0 m 6,0,-1
 1350.15429688 0 l 2,1,2
 1210 0 1210 0 1135.80664062 77.50390625 c 1,3,4
 1048.68164062 -17.888671875 1048.68164062 -17.888671875 890.765625 -16.6484375 c 0,5,6
 705.791015625 -15.9384765625 705.791015625 -15.9384765625 603.455078125 82.748046875 c 0,7,8
 472.579101562 207.243164062 472.579101562 207.243164062 478.90234375 466.270507812 c 0,9,10
 479.985351562 511.315429688 479.985351562 511.315429688 481.65625 544.856445312 c 1,11,12
 325.010742188 495.831054688 325.010742188 495.831054688 325.010742188 201.032226562 c 2,13,-1
 325.010742188 -496.416992188 l 1,14,-1
 70.94921875 -496.416992188 l 1,15,-1
 70.94921875 196.595703125 l 2,16,17
 70.9755859375 502.288085938 70.9755859375 502.288085938 203.110351562 663.401367188 c 128,-1,18
 335.244140625 824.513671875 335.244140625 824.513671875 593.25390625 824.525390625 c 2,19,-1
 898.158203125 824.5390625 l 2,20,21
 1056.58398438 824.790039062 1056.58398438 824.790039062 1147.55859375 743.606445312 c 128,-1,22
 1238.53320312 662.421875 1238.53320312 662.421875 1250.32128906 508.97265625 c 0,23,24
 1255.11914062 448.056640625 1255.11914062 448.056640625 1252.11230469 408.4609375 c 0,25,26
 1250.88085938 391.41796875 1250.88085938 391.41796875 1249.87988281 376.221679688 c 128,-1,27
 1248.87792969 361.025390625 1248.87792969 361.025390625 1248.44824219 353.658203125 c 128,-1,28
 1248.01757812 346.291015625 1248.01757812 346.291015625 1248.00292969 345.227539062 c 0,29,30
 1247.63964844 302.698242188 1247.63964844 302.698242188 1268.10546875 285.349609375 c 0,31,32
 1289 268 1289 268 1346.3671875 268 c 2,33,-1
 1384.9765625 268 l 6,34,35
 1450 268 1450 268 1449.9765625 139 c 6,36,-1
 1449.9765625 128 l 6,37,38
 1450 0 1450 0 1384.9765625 0 c 6,0,-1
852.844726562 574.115234375 m 0,39,40
 777.768554688 574.043945312 777.768554688 574.043945312 736.734375 572.2734375 c 1,41,42
 736.366210938 560.329101562 736.366210938 560.329101562 736.125976562 546.196289062 c 128,-1,43
 735.885742188 532.0625 735.885742188 532.0625 735.772460938 515.61328125 c 128,-1,44
 735.659179688 499.165039062 735.659179688 499.165039062 735.673828125 480.38671875 c 128,-1,45
 735.688476562 461.609375 735.688476562 461.609375 735.831054688 440.404296875 c 0,46,47
 736.875 304.438476562 736.875 304.438476562 778.83984375 261.5390625 c 0,48,49
 816.779296875 222.979492188 816.779296875 222.979492188 888.750976562 222.890625 c 0,50,51
 947.794921875 222.930664062 947.794921875 222.930664062 977.26171875 274.202148438 c 128,-1,52
 1006.72753906 325.474609375 1006.72753906 325.474609375 1002.99121094 450.612304688 c 0,53,54
 1000.98339844 516.0859375 1000.98339844 516.0859375 967.053710938 545.075195312 c 128,-1,55
 933.125 574.065429688 933.125 574.065429688 852.844726562 574.115234375 c 0,39,40
EndSplineSet
EndChar

StartChar: uniFEE3
Encoding: 65251 65251 238
Width: 956
VWidth: 2593
GlyphClass: 2
Flags: W
AnchorPoint: "Anchor-10" 401.346 1086.25 basechar 0
AnchorPoint: "Anchor-7" 408.389 -212.648 basechar 0
LayerCount: 2
Fore
SplineSet
-5.0234375 0 m 2,0,1
 -58.85546875 0 -58.85546875 0 -89.431640625 35.8876953125 c 128,-1,2
 -120.008789062 71.775390625 -120.008789062 71.775390625 -120.0234375 128 c 2,3,-1
 -120.0234375 139 l 2,4,5
 -120.0234375 195.59765625 -120.0234375 195.59765625 -89.609375 231.798828125 c 128,-1,6
 -59.1962890625 268 -59.1962890625 268 -5.0234375 268 c 2,7,-1
 64.806640625 268 l 2,8,9
 104.150390625 268 104.150390625 268 114.6171875 275.8046875 c 128,-1,10
 125.083007812 283.610351562 125.083007812 283.610351562 125.111328125 302.446289062 c 0,11,12
 124.99609375 547.892578125 124.99609375 547.892578125 165.236328125 645.765625 c 0,13,14
 194.735351562 717.515625 194.735351562 717.515625 243.610351562 766.556640625 c 128,-1,15
 292.485351562 815.59765625 292.485351562 815.59765625 358.373046875 840.30078125 c 128,-1,16
 424.259765625 865.00390625 424.259765625 865.00390625 505.310546875 865.006835938 c 0,17,18
 692.184570312 865.002929688 692.184570312 865.002929688 788.977539062 749.727539062 c 128,-1,19
 885.76953125 634.453125 885.76953125 634.453125 885.510742188 419.915039062 c 0,20,21
 885.331054688 281.135742188 885.331054688 281.135742188 843.650390625 184.385742188 c 128,-1,22
 801.969726562 87.634765625 801.969726562 87.634765625 718.391601562 36.7646484375 c 128,-1,23
 634.8125 -14.1064453125 634.8125 -14.1064453125 513.227539062 -13.58984375 c 0,24,25
 354.32421875 -13.029296875 354.32421875 -13.029296875 246.34375 72.271484375 c 1,26,27
 171.431640625 0 171.431640625 0 47.23046875 0 c 2,28,-1
 -5.0234375 0 l 2,0,1
511.029296875 613.109375 m 0,29,30
 467.974609375 613.081054688 467.974609375 613.081054688 440.692382812 596.374023438 c 128,-1,31
 413.41015625 579.66796875 413.41015625 579.66796875 398.05078125 538.610351562 c 128,-1,32
 382.692382812 497.552734375 382.692382812 497.552734375 381.673828125 429.0625 c 0,33,34
 380.017578125 327.90625 380.017578125 327.90625 411.689453125 286.103515625 c 128,-1,35
 443.360351562 244.30078125 443.360351562 244.30078125 512.826171875 243.838867188 c 0,36,37
 573.291015625 243.520507812 573.291015625 243.520507812 602.563476562 284.828125 c 128,-1,38
 631.8359375 326.134765625 631.8359375 326.134765625 631.700195312 428.733398438 c 0,39,40
 631.747070312 463.736328125 631.747070312 463.736328125 628.318359375 491.328125 c 128,-1,41
 624.889648438 518.918945312 624.889648438 518.918945312 617.84375 539.224609375 c 128,-1,42
 610.797851562 559.529296875 610.797851562 559.529296875 600.849609375 573.758789062 c 128,-1,43
 590.901367188 587.989257812 590.901367188 587.989257812 577.099609375 596.647460938 c 128,-1,44
 563.297851562 605.306640625 563.297851562 605.306640625 547.220703125 609.201171875 c 128,-1,45
 531.142578125 613.095703125 531.142578125 613.095703125 511.029296875 613.109375 c 0,29,30
EndSplineSet
EndChar

StartChar: uniFEE4
Encoding: 65252 65252 239
Width: 1018
VWidth: 2593
GlyphClass: 2
Flags: W
AnchorPoint: "Anchor-10" 516.487 1200.49 basechar 0
AnchorPoint: "Anchor-7" 495.36 -234.948 basechar 0
LayerCount: 2
Fore
SplineSet
1023.24023438 0 m 2,0,-1
 974.501953125 0 l 2,1,2
 844 0 844 0 772.577148438 69.552734375 c 1,3,4
 683 -14 683 -14 513.249023438 -13.58984375 c 0,5,6
 333 -13 333 -13 242.786132812 68.890625 c 1,7,8
 168 0 168 0 47.23046875 0 c 2,9,-1
 -5.0234375 0 l 2,10,11
 -41 0 -41 0 -67.34765625 16.9580078125 c 0,12,13
 -94 34 -94 34 -106.876953125 62.619140625 c 0,14,15
 -120.0234375 91.0506876488 -120.0234375 91.0506876488 -120.0234375 128 c 2,16,-1
 -120.0234375 139.010742188 l 2,17,18
 -120 196 -120 196 -89.59765625 231.801757812 c 0,19,20
 -59 268 -59 268 -5.0234375 268 c 2,21,-1
 54.806640625 268 l 2,22,23
 120 268 120 268 124.35546875 292.438476562 c 0,24,25
 125 296 125 296 125.111328125 302.446289062 c 0,26,27
 125 549 125 549 165.259765625 645.82421875 c 0,28,29
 255 865 255 865 508.310546875 865.006835938 c 0,30,31
 561 865 561 865 606.291015625 856.140625 c 0,32,33
 652 847 652 847 690.670898438 829.377929688 c 0,34,35
 729 811 729 811 760.19140625 784.999023438 c 0,36,37
 791 759 791 759 813.780273438 722.729492188 c 0,38,39
 837 687 837 687 850.178710938 642.849609375 c 0,40,41
 884 535 884 535 880.174804688 309.317382812 c 0,42,43
 880 298 880 298 885.408203125 289.600585938 c 0,44,45
 893 278 893 278 911.529296875 272.844726562 c 4,46,47
 928 268 928 268 978.973632812 268 c 2,48,-1
 1023.24023438 268 l 2,49,50
 1088.24023438 268 1088.24023438 268 1088.24023438 139 c 2,51,-1
 1088.24023438 128 l 2,52,53
 1088 0 1088 0 1023.24023438 0 c 2,0,-1
512.029296875 613.109375 m 0,54,55
 469.166992188 613.081054688 469.166992188 613.081054688 441.771484375 596.016601562 c 128,-1,56
 414.375976562 578.953125 414.375976562 578.953125 398.688476562 536.91796875 c 128,-1,57
 383.000976562 494.8828125 383.000976562 494.8828125 381.672851562 424.973632812 c 0,58,59
 380.02734375 326.268554688 380.02734375 326.268554688 412.1875 285.287109375 c 128,-1,60
 444.34765625 244.305664062 444.34765625 244.305664062 515.825195312 243.838867188 c 0,61,62
 555.262695312 243.62890625 555.262695312 243.62890625 580.081054688 259.40625 c 128,-1,63
 604.900390625 275.18359375 604.900390625 275.18359375 618.846679688 315.779296875 c 128,-1,64
 632.79296875 356.375 632.79296875 356.375 632.700195312 424.732421875 c 0,65,66
 632.79296875 495.330078125 632.79296875 495.330078125 618.387695312 537.540039062 c 128,-1,67
 603.983398438 579.75 603.983398438 579.75 578.309570312 596.416015625 c 128,-1,68
 552.635742188 613.08203125 552.635742188 613.08203125 512.029296875 613.109375 c 0,54,55
EndSplineSet
EndChar

